<?xml version="1.0" encoding="UTF-8"?><svg xmlns="http://www.w3.org/2000/svg" viewBox="0 0 534.8 556.29"><defs><style>.cls-1,.cls-2{fill:#fff;}.cls-3,.cls-4{fill:#ffc63b;}.cls-5,.cls-6{fill:#ffc73c;}.cls-7,.cls-8{fill:orange;}.cls-9,.cls-10{fill:#fda3a1;}.cls-11,.cls-12{fill:#fea3a2;}.cls-13,.cls-14{fill:#6c44e0;}.cls-15,.cls-16{fill:#321b6b;}.cls-17,.cls-18{fill:#d44454;}.cls-19,.cls-20{fill:#c62436;}.cls-21,.cls-22{fill:#e26472;}.cls-23,.cls-24{fill:#5428d1;}.cls-25{fill:#481eba;}.cls-26{fill:#2f8f7a;}.cls-27,.cls-28{fill:#311a6b;}.cls-29{fill:#602ee8;}.cls-30{fill:#5ebfaa;}.cls-31,.cls-32{fill:#845eef;}.cls-33,.cls-34{fill:#835def;}.cls-28,.cls-35,.cls-32,.cls-34,.cls-36,.cls-24,.cls-22,.cls-20,.cls-18,.cls-10,.cls-37,.cls-12,.cls-14,.cls-16,.cls-38,.cls-2,.cls-39,.cls-8,.cls-4,.cls-6{fill-rule:evenodd;}.cls-35{fill:#4d2dcc;}.cls-36{fill:#5429d1;}.cls-37{fill:#fdfdfd;}.cls-38{fill:#edf0fb;}.cls-39{fill:#ffa600;}</style></defs><path class="cls-38" d="M503.23,189.7C435.62,51.47,241.29-8.19,139.06,114.54c-28.2,33.86-16.93,108.72-43.14,147.76-42.3,63-59.52,97.43-57.39,134.32,14.57,252.2,642.11,155.83,464.69-206.91Z"/><g><path class="cls-6" d="M93.69,153.99c-.1,.01-.18,.06-.24,.15-.06,.09-.07,.18-.04,.28,5.22,15.99,22.24,38.07,40.35,40.04,11.07,1.21,17.84-6.59,14.93-15.96-5.83-18.82-37.57-26.38-55-24.52Z"/><path class="cls-8" d="M92.17,58.62c-.17-.06-.35-.04-.5,.06-.15,.1-.25,.25-.27,.43-3.39,29.85,7.89,78.33,35.83,94.97,17.08,10.17,33.86,2.53,36.09-14.84,4.49-34.89-41.44-70.72-71.16-80.62Z"/><path class="cls-5" d="M175.89,200.95c.3,.31,.8,.33,1.11,.03,.31-.3,.33-.8,.03-1.11-18.61-19.6-23.62-34.5-28.45-48.85-4.51-13.4-8.85-26.32-23.74-42.09-.3-.32-.79-.33-1.11-.03-.32,.3-.33,.79-.03,1.11,14.65,15.52,18.94,28.28,23.39,41.51,4.88,14.51,9.95,29.58,28.8,49.43Z"/><path class="cls-7" d="M173.91,207.07c.4,.17,.86-.02,1.03-.42,.17-.4-.02-.86-.42-1.03-22.98-9.54-16.97-18.7-52.22-33.46-.4-.17-.86,.02-1.03,.42-.17,.4,.02,.86,.42,1.03,35.09,14.7,28.71,23.7,52.22,33.47Z"/></g><g><path class="cls-16" d="M203.47,49.59l8.99,2.75c.49,.15,1.08,.83,1.45,1.43l11.83,18.85c.37,.6-.77,2.01-1.26,1.86l-9.15-2.78c-.49-.15-1.08-.83-1.45-1.43l-11.93-19.04c-.49-.78,.61-1.92,1.53-1.64Z"/><path class="cls-36" d="M202.38,50.54l8.99,2.75c.49,.15,1.08,.83,1.45,1.43l11.83,18.85c.37,.6,.15,1.03-.34,.88l-8.99-2.75c-.49-.15-1.08-.83-1.45-1.43l-11.83-18.85c-.37-.6-.16-1.03,.34-.88Z"/></g><g><path class="cls-35" d="M168.78,128.64v401.25c0,9.77,7.92,17.67,17.7,17.67h190.13c9.77,0,17.7-7.9,17.7-17.67V128.64c0-9.77-7.92-17.7-17.7-17.7H186.47c-9.77,0-17.7,7.92-17.7,17.7Z"/><path class="cls-38" d="M281.53,123.06c1.85,0,3.35-1.5,3.35-3.35s-1.5-3.35-3.35-3.35-3.35,1.5-3.35,3.35,1.5,3.35,3.35,3.35Z"/><path class="cls-33" d="M184.84,128.12h193.38c2.92,0,5.29,2.37,5.29,5.29V504.85c0,2.92-2.37,5.3-5.3,5.3H184.84c-2.92,0-5.3-2.37-5.3-5.3V133.41c0-2.92,2.37-5.3,5.3-5.3Z"/><path class="cls-38" d="M292.66,531.1c0-6.32-5.13-11.45-11.45-11.45s-11.45,5.13-11.45,11.45,5.13,11.45,11.45,11.45,11.45-5.13,11.45-11.45Z"/></g><g><path class="cls-37" d="M405.27,381.67H240.06c-4.02,0-7.28,3.26-7.28,7.29v79.4c0,4.02,3.25,7.29,7.28,7.29h165.21c4.02,0,7.29-3.26,7.29-7.29v-79.4c0-4.02-3.26-7.29-7.29-7.29Z"/><path class="cls-38" d="M307.72,397.42h-52.23c-1.42,0-2.72,.58-3.66,1.52h0c-.94,.93-1.52,2.23-1.52,3.66v52.68c0,1.42,.58,2.72,1.52,3.66,.94,.94,2.23,1.52,3.66,1.52h52.23c1.43,0,2.72-.58,3.66-1.52,.94-.94,1.52-2.24,1.52-3.66v-52.68c0-1.42-.58-2.72-1.52-3.66-.94-.94-2.23-1.52-3.66-1.52Z"/><path class="cls-34" d="M405.27,383.46H240.06c-1.52,0-2.89,.61-3.88,1.6-.99,.99-1.61,2.37-1.61,3.9v79.4c0,1.52,.61,2.9,1.61,3.9,.99,.99,2.36,1.6,3.88,1.6h165.21c1.52,0,2.89-.62,3.89-1.61,.99-.99,1.61-2.37,1.61-3.89v-79.4c0-1.52-.62-2.89-1.61-3.89-1-.99-2.37-1.61-3.89-1.61h0Zm-165.21-3.57h165.21c2.5,0,4.77,1.02,6.42,2.66,1.64,1.64,2.66,3.91,2.66,6.42v79.4c0,2.51-1.02,4.77-2.66,6.42-1.64,1.64-3.91,2.66-6.42,2.66H240.06c-2.5,0-4.77-1.02-6.41-2.66-1.64-1.64-2.65-3.91-2.65-6.41v-79.4c0-2.5,1.01-4.77,2.65-6.41,1.64-1.65,3.91-2.66,6.41-2.66Z"/><path class="cls-33" d="M332.11,418.81h43.59c1,0,1.8,.81,1.8,1.8v1.54c0,1-.81,1.8-1.8,1.8h-43.59c-1,0-1.81-.81-1.81-1.81v-1.53c0-1,.81-1.81,1.81-1.81Z"/><path class="cls-24" d="M255.5,394.01h52.23c2.36,0,4.51,.97,6.07,2.52s2.52,3.71,2.52,6.07v52.68c0,2.36-.97,4.51-2.52,6.06h0c-1.56,1.56-3.7,2.53-6.06,2.53h-52.23c-2.36,0-4.51-.97-6.07-2.52-1.56-1.56-2.52-3.71-2.52-6.07v-52.68c0-2.36,.97-4.51,2.53-6.07,1.55-1.56,3.7-2.53,6.07-2.53h0Zm52.23,3.41h-52.23c-1.42,0-2.72,.58-3.66,1.52h0c-.94,.93-1.52,2.23-1.52,3.66v52.68c0,1.42,.58,2.72,1.52,3.66,.94,.94,2.23,1.52,3.66,1.52h52.23c1.43,0,2.72-.58,3.66-1.52,.94-.94,1.52-2.24,1.52-3.66v-52.68c0-1.42-.58-2.72-1.52-3.66-.94-.94-2.23-1.52-3.66-1.52Z"/><path class="cls-33" d="M332.11,407.76h63.85c1,0,1.8,.81,1.8,1.8v1.53c0,1-.81,1.81-1.81,1.81h-63.85c-1,0-1.81-.81-1.81-1.81v-1.53c0-1,.81-1.81,1.81-1.81Z"/><rect class="cls-33" x="330.31" y="396.71" width="67.46" height="5.14" rx="1.81" ry="1.81"/><path class="cls-8" d="M336.19,429.74h55.92c3.24,0,5.89,2.65,5.89,5.89s-2.65,5.89-5.89,5.89h-55.92c-3.24,0-5.89-2.65-5.89-5.89s2.65-5.89,5.89-5.89Z"/><path class="cls-37" d="M356.36,437.79c1.19,0,2.16-.97,2.16-2.16s-.97-2.16-2.16-2.16-2.16,.97-2.16,2.16,.97,2.16,2.16,2.16Z"/><path class="cls-37" d="M364.15,437.79c1.19,0,2.16-.97,2.16-2.16s-.97-2.16-2.16-2.16-2.16,.97-2.16,2.16,.97,2.16,2.16,2.16Z"/><path class="cls-37" d="M371.95,437.79c1.19,0,2.16-.97,2.16-2.16s-.97-2.16-2.16-2.16-2.16,.97-2.16,2.16,.97,2.16,2.16,2.16Z"/><path class="cls-21" d="M265.22,437.41c-2.82,5.32-8.08,14.5-10.52,22.99,.26,.04,.53,.06,.8,.06h10.76c2.81-5.63,6.73-11.48,9.27-15.39,5.49-8.43-5.11-16.31-10.31-7.65Z"/><path class="cls-21" d="M283.77,447.47c7.17-.68,20.03-1.93,29.13-5.52v-15.15c-8.76,7.31-21.39,6.82-28.98,6.85-10.06,.04-10.23,14.24-.14,13.83Z"/><path class="cls-20" d="M265.05,460.46h33.7v-20.69c0-3.42-2.8-6.22-6.22-6.22h-21.26c-3.42,0-6.22,2.8-6.22,6.22v20.69Z"/><path class="cls-28" d="M291.66,412.69c-2.18-7.17-9.25-11.33-15.8-9.31-6.55,2.02-10.08,9.47-7.9,16.64,2.18,7.17,9.25,11.33,15.8,9.31,6.55-2.03,10.08-9.48,7.9-16.64Z"/><path class="cls-10" d="M285.48,422.3l1.36,12.72c.16,2.53-1.76,4.71-4.29,4.87-2.53,.16-4.71-1.76-4.87-4.29-.01-.22,0-.46,0-.68l1.45-12.69c.15-1.75,1.68-3.05,3.43-2.9,1.59,.14,2.81,1.42,2.9,2.96Z"/><path class="cls-10" d="M271.22,418.99c1.23,7.16,6.27,12.27,11.25,11.42,4.98-.86,8.02-7.36,6.79-14.52-1.23-7.16-6.27-12.27-11.25-11.42-4.98,.86-8.02,7.36-6.79,14.52Z"/><path class="cls-10" d="M268.6,419.23c.4,2.06,1.92,3.49,3.41,3.18,1.48-.3,2.36-2.22,1.96-4.29-.4-2.06-1.92-3.49-3.41-3.18-1.48,.3-2.36,2.22-1.96,4.29Z"/><path class="cls-10" d="M285.89,415.62c.28,2.08,1.72,3.59,3.22,3.37,1.5-.22,2.48-2.09,2.2-4.17-.28-2.08-1.72-3.59-3.22-3.37-1.5,.22-2.48,2.09-2.2,4.17Z"/><path class="cls-28" d="M291.73,411.32c-2.07,2.58-8.01,3.97-12.03,1.56-4.02-2.41-6.31-5.84-4.38-9.04,5.76-9.55,22.47-.08,16.41,7.48Z"/><path class="cls-28" d="M270.87,418.3s2.85-2.45,4.69-6.65c1.83-4.21,1.52-8.22,1.52-8.22-10.28-2.07-12.92,10.42-6.2,14.87Z"/><path class="cls-10" d="M275.39,449.86c-2.57,.91-3.75,1.8-4.04,3.27-.19,.97-.22,3.85,1.24,4.99,4.2,3.26,10.1,.1,10.16-5.05,.05-4.06,.02-5.81-7.36-3.2Z"/><path class="cls-10" d="M275.92,449.02c-.08-.89-1.63-4.08-2.52-4.16-.58,.2-.35,2.56-.36,3.47-.01,.72-.12,1.43-.19,2.14-.06,.58-.18,1.3,.11,1.83,.34,.64,1.29,1.11,1.94,.65,.82-.73,1.1-2.85,1.03-3.93Z"/><path class="cls-22" d="M274.34,460.46c.19-.17,.37-.33,.54-.48,3.37-2.93,.12-9.62-4.06-7.38-3.42,1.84-7.11,4.72-11.21,7.86h14.73Z"/><path class="cls-23" d="M366.44,457.57c0-5.17,4.19-9.36,9.36-9.36s9.36,4.19,9.36,9.36c0,1.87-.54,3.6-1.48,5.06l3.41,3.41c.1,.1,.16,.23,.16,.37,0,.29-.23,.52-.52,.52h-10.92c-5.17,0-9.36-4.19-9.36-9.36Z"/><path class="cls-23" d="M339.78,454.83h-2.19c-.3,0-.55,.25-.55,.55v10.86c0,.3,.25,.55,.55,.55h2.19c.3,0,.55-.25,.55-.55v-10.86c0-.3-.25-.55-.55-.55h0Zm18.1,.55c0-.58-.24-1.1-.61-1.4-.2-.17-.43-.25-.69-.25h-7.07c-.2,0-.37-.1-.47-.27-.1-.17-.1-.37,0-.55l1.73-3.02c.49-.88,.54-2.37-.62-3.46-.12-.11-.26-.16-.42-.15-.16,.01-.29,.09-.39,.22l-6.54,8.55c-.18,.23-.37,.4-.62,.55l-.74,.44v9.77h.64c.3,0,.56,.11,.78,.32l.46,.45c.21,.21,.47,.32,.78,.32h12.5c.26,0,.49-.08,.69-.25,.37-.3,.61-.82,.61-1.4,0-.51-.18-.96-.47-1.27-.2-.21-.2-.54,0-.75,.29-.31,.47-.76,.47-1.27s-.18-.96-.47-1.27c-.2-.21-.2-.54,0-.75,.29-.31,.47-.76,.47-1.27s-.18-.96-.47-1.27c-.2-.21-.2-.54,0-.75,.29-.31,.47-.76,.47-1.27Z"/></g><g><rect class="cls-1" x="202.97" y="312.73" width="155" height="26.72" rx="11.88" ry="11.88"/><path class="cls-35" d="M214.85,308.93h131.24c4.32,0,8.24,1.76,11.08,4.6s4.6,6.76,4.6,11.08v2.97c0,4.32-1.76,8.24-4.6,11.08-2.84,2.84-6.76,4.6-11.08,4.6H214.85c-4.32,0-8.24-1.76-11.08-4.6-2.84-2.84-4.6-6.76-4.6-11.08v-2.97c0-4.32,1.76-8.24,4.6-11.08s6.76-4.6,11.08-4.6h0Zm0,3.8c-6.53,0-11.88,5.34-11.88,11.88v2.97c0,6.53,5.34,11.88,11.88,11.88h131.24c6.53,0,11.88-5.34,11.88-11.88v-2.97c0-6.53-5.34-11.88-11.88-11.88H214.85Z"/><path class="cls-27" d="M216.73,323.05c-.09,2.08-1.85,3.69-3.93,3.6-2.08-.09-3.69-1.85-3.6-3.93,.09-2.08,1.85-3.69,3.93-3.6,2.08,.09,3.69,1.85,3.6,3.93h0Zm-9.03-.4c-.13,2.91,2.12,5.37,5.03,5.5,1.18,.05,2.29-.29,3.2-.91,2.76,3.02,3.78,5.25,6.55,8.28,.26,.29,.63,.48,1.05,.5,.83,.04,1.54-.61,1.57-1.44,.02-.42-.14-.81-.4-1.09-2.54-2.78-5.44-4.84-7.66-7.27,.7-.85,1.14-1.93,1.19-3.11,.13-2.91-2.12-5.37-5.04-5.5-2.91-.13-5.37,2.12-5.5,5.03Z"/><circle class="cls-7" cx="237.62" cy="326.56" r="5.48"/><path class="cls-8" d="M256.01,332.04c3.02,0,5.48-2.46,5.48-5.48s-2.46-5.48-5.48-5.48-5.48,2.46-5.48,5.48,2.46,5.48,5.48,5.48Z"/><circle class="cls-7" cx="274.39" cy="326.56" r="5.48"/></g><path class="cls-17" d="M282.12,61.96l-26.17,51.54c-3.04,5.99-13.58,.24-10.72-5.55l20.13-54.06c3.34-8.91,22.01-2.77,16.76,8.06Z"/><path class="cls-20" d="M325.1,110.94c-.05-.31-.12-.63-.21-.94-2.38-11.58-7.05-30.46-11.24-44.86-1.38-4.75-2.71-9.01-3.89-12.36l-.03-.05c-4.07-11.28-16.16-17.78-27.97-14.67-12.43,3.27-19.94,16.12-16.68,28.6,.45,1.7,1.85,5.74,3.74,10.96,3.47,9.56,8.59,23.07,12.58,33.32h43.7Z"/><path class="cls-12" d="M265.48,41.65l9.19,9.85c1.9,1.87,4.96,1.85,6.83-.05,1.87-1.91,1.85-4.96-.05-6.83-.16-.17-.36-.33-.55-.46l-11.1-7.59c-1.5-1.08-3.58-.76-4.67,.73-.99,1.36-.81,3.21,.36,4.36Z"/><path class="cls-18" d="M278.25,111.92c13.13,1,35.62,1.97,44.76-4.73,5.16-4.83,6.92-9.8,6.12-16.27-.84-6.77-4.4-15.07-6.84-21.65-2.34-6.29-7.56-19.06-18.18-24.75-7.49-4.01-9.45,1.45-7.01,9.36,4.88,15.76,18.11,32.23,17.16,39.14-1.1,7.96-26.46,7.65-36.51,7.79-5.45,.08-9.51,11.08,.5,11.1Z"/><path class="cls-16" d="M241.6,22.33c-.53,2.92,1.11,5.84,3.67,6.53,2.56,.7,5.07-1.11,5.61-4.02,.54-2.92-1.11-5.84-3.67-6.54-2.56-.69-5.07,1.11-5.61,4.03Z"/><path class="cls-12" d="M274.54,23.99c.48,27.51-25.92,26.25-27.51,1.63-1.18-25.3,25.09-28.33,27.51-1.63Z"/><path class="cls-16" d="M273.62,9.36c-.85-6.81-6.67-10.23-11.91-9.17-6.76,1.37-6,6.99-18.1,8.23-3.09,.31-6.26-2.64-6.74-.42-.8,3.64,1.61,12.38,7.46,12.71,6.43,.35,8.46-4.79,15.61-3.17,2.76,.63,6.54-.1,8.3-1.83-5.73,10.06,8.94,5.7,2.92,22.9,1.09,.17,10.01-8.03,10.31-13.44,.63-4.68-.94-4.58-.83-6.1,1.22-6.9-1.66-10.52-7.01-9.71Z"/><path class="cls-12" d="M274.91,24.69c.62,2.89-.56,5.58-2.65,6-2.09,.43-4.29-1.57-4.91-4.47-.62-2.88,.56-5.57,2.65-6,2.09-.42,4.29,1.57,4.91,4.47Z"/><path class="cls-36" d="M245.99,26.32c-1.4,.62-1.73,3.12-.45,6.03,1.28,2.92,3.41,4.38,4.76,3.79,1.3-.68,1.73-3.15,.46-6.06-1.27-2.91-3.35-4.34-4.76-3.76h0Zm15.25-4.97c-1.28-.5-2.75-.51-4.1,.09-1.36,.59-2.35,1.68-2.84,2.97-.5,1.27-.51,2.74,.08,4.1,.59,1.35,1.68,2.34,2.96,2.84,1.28,.5,2.75,.51,4.1-.09,1.36-.59,2.34-1.67,2.84-2.96,.5-1.27,.51-2.74-.08-4.1-.59-1.36-1.68-2.35-2.96-2.85h0Zm-15.61,4.15c.95-.41,2.08-.15,3.16,.62,.94,.67,1.83,1.72,2.51,3.03,.27-.3,.57-.52,.9-.67,.34-.15,.72-.23,1.12-.21-.45-1.41-.38-2.89,.13-4.2,.58-1.49,1.74-2.76,3.32-3.46,1.59-.7,3.3-.68,4.8-.09,1.49,.58,2.77,1.73,3.46,3.32,.69,1.58,.68,3.3,.1,4.79-.58,1.49-1.74,2.77-3.32,3.47-1.59,.69-3.3,.68-4.8,.09-1.46-.57-2.71-1.69-3.41-3.22-.42-.07-.8-.02-1.12,.12-.32,.14-.61,.39-.86,.74,.66,1.55,.89,3.12,.73,4.4-.16,1.31-.74,2.33-1.69,2.74-.95,.41-2.08,.15-3.16-.62-1.07-.77-2.09-2.04-2.78-3.62-.69-1.59-.94-3.19-.78-4.5,.16-1.31,.74-2.33,1.69-2.75h0Z"/><path class="cls-9" d="M212.68,74.96c-1.35-1.88-3.67-10.79-2.05-12.45,1.47-.58,5,4.45,6.56,6.22,1.23,1.39,2.64,2.6,3.98,3.89,1.09,1.04,2.55,2.24,2.88,3.78,.4,1.84-.67,4.34-2.72,4.56-2.85-.05-6.97-3.77-8.65-6Z"/><g><path class="cls-2" d="M289.8,174.99H142.65c-3.58,0-6.48,2.9-6.48,6.49v78.12c0,3.58,2.9,6.49,6.48,6.49h147.15c3.58,0,6.49-2.91,6.49-6.49v-78.12c0-3.58-2.91-6.49-6.49-6.49Z"/><path class="cls-32" d="M142.65,173.26h147.15c2.27,0,4.32,.92,5.81,2.41h0c1.49,1.49,2.41,3.55,2.41,5.81v78.12c0,2.26-.92,4.32-2.41,5.81h0c-1.49,1.49-3.54,2.41-5.81,2.41H142.65c-2.27,0-4.32-.92-5.81-2.41-1.49-1.49-2.4-3.54-2.4-5.81v-78.12c0-2.27,.91-4.32,2.4-5.81,1.49-1.49,3.55-2.41,5.81-2.41h0Zm147.15,3.47H142.65c-1.32,0-2.51,.53-3.36,1.38-.86,.86-1.39,2.05-1.39,3.37v78.12c0,1.32,.53,2.51,1.39,3.37,.85,.86,2.04,1.39,3.36,1.39h147.15c1.32,0,2.5-.53,3.37-1.39h0c.86-.86,1.39-2.04,1.39-3.36v-78.12c0-1.32-.53-2.51-1.39-3.36h0c-.87-.86-2.05-1.39-3.37-1.39h0Z"/><path class="cls-32" d="M166.87,186.82s-.11-.08-.19-.08c-2.38,.13-3.82,.89-5.61,2.68,0,0-6.18,6.22-8.64,8.64-2.23,2.19,4.45,8.94,6.81,6.73,1.4-1.3,4.51-4.1,4.51-4.1,3.79,6.57,1.2,20.82-3.27,26.56-2.04,2.61-6.45,7.39-4.52,10.98,1.54,2.89,14.8,4.15,17.87,4.15,3.09,0,16.36-1.26,17.9-4.15,1.92-3.59-2.48-8.37-4.51-10.98-4.49-5.73-7.09-19.95-3.28-26.56,0,0,3.12,2.8,4.51,4.1,2.36,2.21,9.04-4.54,6.82-6.73-2.46-2.42-8.65-8.64-8.65-8.64-1.78-1.79-3.22-2.54-5.61-2.68-.07,0-.14,.03-.19,.08,.23,3.92-2.5,7.82-6.98,7.82s-7.2-3.9-6.99-7.82Z"/><path class="cls-39" d="M165.45,212.25c-.1,1.12-.25,2.26-.45,3.37,5.89,1.61,11.79,1.66,17.69,0-.21-1.12-.36-2.25-.46-3.37-5.45,1.59-11.06,1.49-16.78,0Z"/><path class="cls-32" d="M284.64,204.77h-68.88c-.77,0-1.39,.63-1.39,1.4v1.19c0,.77,.62,1.4,1.39,1.4h68.88c.77,0,1.4-.63,1.4-1.4v-1.19c0-.77-.63-1.4-1.4-1.4Z"/><path class="cls-31" d="M215.77,213.9h68.88c.77,0,1.4,.63,1.4,1.4v1.19c0,.77-.63,1.4-1.4,1.4h-68.88c-.77,0-1.4-.63-1.4-1.4v-1.18c0-.77,.63-1.4,1.4-1.4Z"/><path class="cls-32" d="M229.43,223.04h-13.67c-.77,0-1.39,.63-1.39,1.4v1.19c0,.77,.62,1.4,1.39,1.4h13.67c.77,0,1.4-.63,1.4-1.4v-1.19c0-.77-.63-1.4-1.4-1.4Z"/><path class="cls-14" d="M161.83,253.9c1.24,0,2.26-1.01,2.26-2.25s-1.02-2.25-2.26-2.25-2.26,1.01-2.26,2.25,1.01,2.25,2.26,2.25Z"/><path class="cls-39" d="M169.94,253.9c1.24,0,2.26-1.01,2.26-2.25s-1.02-2.25-2.26-2.25-2.26,1.01-2.26,2.25,1.01,2.25,2.26,2.25Z"/><path class="cls-39" d="M178.06,253.9c1.24,0,2.26-1.01,2.26-2.25s-1.02-2.25-2.26-2.25-2.26,1.01-2.26,2.25,1.02,2.25,2.26,2.25Z"/><path class="cls-39" d="M186.17,253.9c1.25,0,2.26-1.01,2.26-2.25s-1.01-2.25-2.26-2.25-2.25,1.01-2.25,2.25,1.01,2.25,2.25,2.25Z"/><path class="cls-39" d="M220.08,186.9h60.19c3.14,0,5.7,2.57,5.7,5.71h0c0,3.14-2.56,5.71-5.7,5.71h-60.19c-3.14,0-5.7-2.57-5.7-5.71h0c0-3.14,2.56-5.71,5.7-5.71Z"/><path class="cls-39" d="M220.08,242.48h60.19c3.14,0,5.7,2.57,5.7,5.71h0c0,3.14-2.56,5.71-5.7,5.71h-60.19c-3.14,0-5.7-2.57-5.7-5.71h0c0-3.14,2.56-5.71,5.7-5.71Z"/><path class="cls-2" d="M232.17,251.58c1.64,0,2.64-.81,2.64-2.11,0-1.36-1.16-1.83-2.36-2.1-.98-.23-1.66-.35-1.66-1.12,0-.65,.58-1.08,1.45-1.08,.93,0,1.41,.43,1.91,.88,.19,.19,.5-.15,.5-.56,0-.51-.85-1.25-2.42-1.25s-2.54,.85-2.54,2.05c0,1.43,1.13,1.81,2.22,2.06,.94,.22,1.77,.4,1.77,1.2,0,.7-.56,1.1-1.54,1.1s-1.62-.51-2.13-1.04c-.14-.14-.51,.19-.51,.56,0,.58,.95,1.41,2.65,1.41Z"/><path class="cls-2" d="M247.27,251.43h3.58c.34,0,.53-.07,.53-.38v-.26c0-.32-.19-.37-.53-.37h-3.06v-5.68c0-.35-.16-.4-.49-.4h-.17c-.3,0-.46,.05-.46,.4v6.18c0,.38,.23,.51,.6,.51Z"/><path class="cls-2" d="M267.29,251.43h3.59c.33,0,.52-.07,.52-.38v-.26c0-.32-.19-.37-.52-.37h-3.07v-5.68c0-.35-.16-.4-.49-.4h-.16c-.31,0-.47,.05-.47,.4v6.18c0,.38,.24,.51,.6,.51h0Zm-2.91-.34c.24,.34,.38,.37,.7,.37,.26,0,.6-.14,.6-.37,0-.03,0-.07-.02-.1l-2.3-3.1,2.29-3.11s.02-.07,.02-.1c0-.22-.33-.36-.59-.36-.32,0-.43,.06-.67,.39l-1.75,2.49-1.72-2.51c-.23-.34-.37-.37-.69-.37-.26,0-.61,.14-.61,.37,0,.03,0,.06,.03,.1l2.23,3.09-2.32,3.13s-.02,.07-.02,.1c0,.22,.33,.36,.59,.36,.32,0,.43-.07,.67-.39l1.79-2.54,1.78,2.55h0Z"/></g><g><path class="cls-3" d="M80.17,303.22c8.18,17.01,16.98,42.2,32.43,40.54,11.77-1.33,19.63-7.58,34.25-9.89,6.39-1.01,10.76-7.01,9.75-13.4s-7.01-10.76-13.4-9.75c-12.56,1.98-3.15,14.55-30.5,16.14-6.01-7.85-6.06-11.86-15.77-32.76-5.27-11.34-23.76-5.46-16.74,9.12Z"/><g><path class="cls-16" d="M163.48,285.56l-8.77,3.42c-.48,.19-1.02,.91-1.34,1.53l-10.38,19.71c-.33,.62,.92,1.95,1.4,1.76l8.93-3.47c.48-.19,1.02-.91,1.34-1.53l10.47-19.91c.43-.82-.75-1.87-1.65-1.52Z"/><path class="cls-36" d="M164.63,286.43l-8.77,3.43c-.48,.19-1.02,.91-1.34,1.53l-10.38,19.71c-.33,.62-.08,1.04,.4,.85l8.77-3.43c.48-.19,1.01-.91,1.34-1.53l10.38-19.71c.33-.62,.08-1.04-.4-.85Z"/></g><path class="cls-27" d="M124.36,542.87l-13.73-4.47c-1.82-.59-3.65-.33-5.23,.59-2.52,1.47-4.59,5.56-4.55,8.64h26.28c.06-1.99-.68-4.07-2.77-4.76Z"/><path class="cls-27" d="M50.47,542.87l13.73-4.47c1.82-.59,3.65-.33,5.23,.59,2.52,1.47,4.59,5.56,4.55,8.64h-26.28c-.06-1.99,.68-4.07,2.77-4.76Z"/><path class="cls-27" d="M95.46,249.35c-3.75-3-7.05-.46-10.04-2.82-1.75-1.37-4.72-3.57-8.92-4.56-4.12-.97-9.06,.09-10.54,4.18-3.97-.5-9.19,4.05-9.1,10.54,.05,3.54,1.07,6.69-.42,9.3-3.21,5.63-8.34,5.14-11.11,12.54-4.16,11.08,.45,27.9,20.09,29.63,50.64,4.47,13.02-45.19,13.19-45.7,.18-.51,8.88,2.21,15.23-1.18,4.28-2.28,4.79-9.41,1.63-11.94Z"/><path class="cls-3" d="M54.58,289.72c-15.45,12.5-28.39,17.1-30.85,41.14-1.21,11.78,3.01,24.62,2.16,39.4-.37,6.46,4.56,12,11.02,12.38,6.46,.37,12-4.56,12.38-11.02,.73-12.7-13.33-10-9.06-37.07,3.17-20.09,9.39-17.31,25.86-30.1,13.24-8.6,1.38-25.15-11.51-14.72Z"/><path class="cls-9" d="M72.72,276.89c5.17,2.06,11.64-2.01,14.46-9.08,2.81-7.07,.89-14.47-4.28-16.53-5.17-2.06-11.64,2.01-14.45,9.08-2.81,7.07-.9,14.47,4.28,16.53Z"/><path class="cls-9" d="M72.07,262.11l-1.97,23.4c-.2,2.51,1.68,4.71,4.19,4.91,2.51,.2,4.71-1.68,4.91-4.19,.02-.24,.02-.5,0-.72l-1.87-23.46c-.12-1.48-1.17-2.36-2.66-2.38-1.38-.01-2.51,1.14-2.61,2.44Z"/><path class="cls-25" d="M77.63,403.08l24.51,134c1.35,7.37,11.1,6.56,11.42-.64,2.06-46.14,3.37-97.12-3.04-137.47-4.06-25.55-37.67-21.99-32.89,4.11Z"/><path class="cls-29" d="M52.72,359.21c-18.87,38.47-2.2,135.55,8.24,177.95,1.55,6.28,10.08,4.98,10.53-.35,3.94-46.88,3.85-88.16,6.58-131.34,.43-13.55,21.91-23.17,32.05-8.54-1.43-16.43-7.28-25.74-11.91-37.52-15.14,5.02-29.31,5.34-45.48-.21Z"/><path class="cls-27" d="M81.94,250.95s-2.64,5.03-7.24,7.41c-5.33,2.76-7.79,3.36-7.79,3.36-2.03-8.04,1.49-15.01,9.48-13.81,1.94,.29,3.57,1.03,5.55,3.04Z"/><path class="cls-9" d="M63.72,263.7c.48,2.23,2.4,3.4,4.29,2.61,1.89-.79,3.03-3.23,2.56-5.46-.48-2.23-2.4-3.4-4.29-2.61-1.89,.79-3.03,3.23-2.56,5.46Z"/><path class="cls-9" d="M157.09,310c.77-2.77,.73-11.17-1.8-12.83-1.55-.15-3.16,6.02-4.17,8.13-1.26,3.1-4.21,5.72-4.45,9.15,.12,1.85,1.81,3.95,3.83,3.6,2.78-.91,5.54-5.38,6.6-8.04Z"/><path class="cls-9" d="M49.4,376.52c1.77,2.26,4.96,10.03,3.27,12.54-1.38,.74-5.23-4.35-6.97-5.9-2.35-2.38-6.09-3.66-7.63-6.73-.6-1.76,.15-4.34,2.15-4.79,2.92-.23,7.19,2.84,9.18,4.89Z"/><path class="cls-7" d="M51.4,355.55c2.99-18.26-.92-32.88-2.29-51.59-1.01-13.74,10.55-20.25,24.32-20.59,14.49-.36,25.98,6.14,25.53,20.59-.55,17.49-4.71,24.2,.25,50.95,2.24,12.1-12.53,16.55-23.88,16.61-8.11,.04-25.9-3.98-23.93-15.98Z"/><path class="cls-9" d="M61.68,285.5c3.47-1.32,7.47-2.02,11.75-2.13,5.32-.13,10.24,.73,14.33,2.58,.1,.67,.15,1.35,.15,2.05,0,7.39-5.92,13.38-13.23,13.38s-13.23-5.99-13.23-13.38c0-.86,.08-1.69,.23-2.5Z"/></g><path class="cls-17" d="M255.03,104.94l-29.28-27.58c-3.99-3.76-10.54,1.98-7.62,6.07l25.22,31.24c5.53,7.74,18.79-1.81,11.67-9.73Z"/><path class="cls-9" d="M266.11,102.83c-2.53,.38-11.35,5.39-11.42,7.95,.67,1.6,7.36,.53,9.96,.41,2.04-.1,4.09,.08,6.13,.16,1.66,.06,3.73,.29,5.21-.63,1.76-1.1,2.92-3.87,1.51-5.66-2.23-2.22-8.34-2.62-11.39-2.22Z"/><g><path class="cls-9" d="M501.08,244.12c-9.84,22.82-31.46,11.19-23.62-9.71,8.44-21.28,31.55-13.23,23.62,9.71Z"/><path class="cls-9" d="M496.79,247.49l6.04,25.39c2.08,10.41-13.69,12.11-14.59,1.56l-1.36-24.35c-.39-6.38,8.54-8.83,9.92-2.6Z"/><path class="cls-27" d="M475.51,232.63c5,2.28,11.81,6.31,11.79,7.8,.04,3.73-3.48,14.14,1.29,16,4.77,1.86,8.18,1.47,11.66-.25,9.14-4.54,14.07-19.19,7.13-24.74-1.27-12.94-10.99-4.49-12.88-12.92-1.89-8.43-13.55-10.31-20.52-5.48-6.97,4.83-3.48,17.3,1.52,19.58Z"/><path class="cls-9" d="M490.1,240.76c-.32,2.63-2.44,4.47-4.74,4.11-2.3-.37-3.91-2.8-3.59-5.43,.32-2.63,2.44-4.47,4.74-4.11,2.3,.37,3.91,2.8,3.59,5.43Z"/><path class="cls-27" d="M513.43,533.2c2.26,2.83,7.8,14.35,.05,14.35h-22.76c-3.77-.03-4.8-5.11-.96-6.25,6.56-1.94,15.29-6.62,16.04-7.54,1.88-2.32,5.26-3.54,7.63-.56Z"/><path class="cls-27" d="M473.17,533.2c2.17,2.83,7.38,14.35-.36,14.35h-22.76c-3.77-.03-4.65-5.11-.78-6.25,6.61-1.94,15.48-6.62,16.26-7.54,1.95-2.32,5.36-3.54,7.65-.56Z"/><path class="cls-25" d="M507.61,370c.92,28.12-.57,57.28,1.36,85.38,.59,6.17,1.79,22.54,2.29,28.9,.96,12.86,2.48,36.3,3.05,49.25,.13,2.65-1.92,4.85-4.57,4.89-2.2,.03-4.12-1.43-4.77-3.44-5.83-17.93-12.4-48.58-17.56-66.79-9.31-31.58-12.52-64.55-16.53-96.95-1.96-25.31,35.49-26.65,36.73-1.24Z"/><path class="cls-26" d="M505.86,305.46c-32.17,15.62-74.08,5.66-90.19-27.27-2.17-4.27,5.16-8.78,7.95-4.75,23.54,33.33,48.72,21.36,76.62,14.8,12.79-3.01,16.94,11.73,5.61,17.23Z"/><path class="cls-29" d="M507.08,373.18c-.47,5.2-4.85,13.41-9.01,19-6.26,8.42-16.79,12.5-17.68,20.58-2.09,18.97-2,34.45-2.74,53.49-.75,18.89-1.35,49.63-2.8,68.42-.19,2.64-2.48,4.63-5.13,4.44-2.2-.16-3.95-1.79-4.35-3.86-2.49-12.81-5.09-35.62-7.19-48.47-1.42-8.97-3.24-19.62-4.52-28.43-3.08-27.95-3.98-61.26-4.15-89.3,2.44-33.78,60.08-30.4,57.56,4.14Z"/><path class="cls-30" d="M518.12,289.9c-.08,18.26-6.66,27.44-10.08,45.97-2.3,12.42,1.88,26.07,3.55,35.47,1.21,6.83-1.38,11.11-9.58,13.92-13.29,4.55-43.68,4.33-54.64-5.94-.64-.6-4.54-5.75-4.05-14.24,1.19-20.84,8.17-59.05,20.16-81.57,8.13-15.28,21.37-20.52,32.78-18.77,11.97,1.84,21.93,11.39,21.87,25.16Z"/><path class="cls-9" d="M411.98,268.05c-.55-2.56,.9-12.8,3.24-13.77,1.72,.07,3.13,6.86,3.95,9.4,.64,1.99,1.54,3.89,2.34,5.81,.65,1.57,1.61,3.47,1.29,5.21-.38,2.08-2.52,4.18-4.68,3.46-2.84-1.34-5.4-7.05-6.14-10.12Z"/><path class="cls-9" d="M452.48,384.62c-.63,2.18,.17,11.25,2.23,12.32,1.56,.1,3.17-5.68,4.04-7.82,.68-1.68,1.59-3.24,2.41-4.85,.67-1.31,1.62-2.87,1.42-4.42-.24-1.85-2.06-3.89-4.05-3.47-2.64,.9-5.23,5.63-6.05,8.23Z"/><path class="cls-26" d="M491.79,281.18c10.12,29.66-1.17,97.22-30.84,102.92-6.03,1.16-8.23-6.42-4.06-8.47,24.4-12.01,25.4-65.24,16.92-88.56-6.83-14.87,12.44-22.11,17.97-5.9Z"/><path class="cls-29" d="M473.43,388.54s-5.81-.16-13.2-2.48c-7.22,4.33-10.44,6.45-10.44,6.45,4.95,6.23,11.27,8.37,16.17,7.49,5.14-.92,8.71-5.16,7.48-11.46Z"/><g><path class="cls-28" d="M424.59,269.45c-.35,.27-.81,.44-1.33,.44h-8.2c-1.36,0-2.66-1.11-2.89-2.48l-3.86-23.15c-.18-1.07,1.1-2.6,1.78-3.27,.34-.33,.86-.58,1.49-.58h8.2c1.36,0,2.66,1.11,2.89,2.48l3.86,23.15c.16,.95-.27,1.57-.48,1.8-.2,.23-1.44,1.59-1.47,1.61Z"/><path class="cls-35" d="M411.59,240.41h8.2c1.36,0,2.66,1.11,2.89,2.48l3.86,23.15c.23,1.36-.7,2.48-2.06,2.48h-8.2c-1.36,0-2.66-1.11-2.89-2.48l-3.86-23.15c-.23-1.36,.7-2.48,2.06-2.48Z"/></g></g><g><path class="cls-8" d="M66.63,427.89l7.99,3.12c.44,.17,.93,.83,1.22,1.4l9.46,17.97c.3,.57-.84,1.77-1.28,1.6l-8.14-3.16c-.44-.17-.93-.83-1.23-1.4l-9.55-18.15c-.39-.74,.68-1.7,1.5-1.38Z"/><path class="cls-4" d="M65.57,428.69l7.99,3.12c.44,.17,.93,.83,1.22,1.4l9.46,17.97c.3,.57,.07,.95-.37,.77l-7.99-3.12c-.44-.17-.93-.83-1.23-1.4l-9.46-17.97c-.3-.57-.07-.95,.37-.77Z"/></g><path class="cls-11" d="M45.8,536.65c-2.45,5.85-10.11,1.85-8.1-3.09l4.85-11.9c2.04-5,9.97-1.52,8.1,3.08l-4.85,11.9Z"/><path class="cls-15" d="M47.13,533.39c1.83,3.6,10.7,15.81,1.95,15.81H20.02c-4.26-.03-5.26-5.78-.88-7.06,7.47-2.19,16.77-7.41,18.57-8.57,2.53,1.12,6.67,1.79,9.43-.18Z"/><path class="cls-19" d="M141.85,451.07c-3.54,17.03-.66,39.96-18.39,51.5-10.97,7.15-37.86,9.24-50.95,5-5.03-1.63-3.36-8.11,.67-7.9,10.58,.55,35.6-2.55,42.83-7.51,14.69-10.07,6.42-26.21,9.77-44.16,1.39-13.75,19.03-11.14,16.07,3.06Z"/><path class="cls-25" d="M83.05,470.54c15.15,.48,35.4,33.54,44.41,43.27,16.18,3.16,28.59-3.81,28.59-3.81,1.27,9.21,4.72,33.31-17.36,38.15-27.82,6.11-51.97-39.68-58.6-56.04-9.33,17.52-15.4,23.46-22.92,37.53-7.43-1.58-8.53-1.93-15.84-5.01,6.76-20.48,20.88-54.77,41.72-54.1Z"/><path class="cls-17" d="M168.81,510.15c-.17,45.44-49.27,45.53-43.12-2.64,8.14-25.22-12.69-67.5,12.41-74.74,40.41-11.66,30.77,61.05,30.71,77.38Z"/><path class="cls-11" d="M78.11,536.28c-1.44,6.18-9.66,3.51-8.5-1.69l2.79-12.54c1.17-5.27,9.58-3.17,8.5,1.69l-2.79,12.55Z"/><path class="cls-15" d="M78.74,533.45c1.83,3.6,10.65,15.74,1.91,15.74h-29.06c-4.26-.03-5.26-5.78-.88-7.06,7.47-2.19,17.36-7.48,19.16-8.65,2.53,1.12,6.3,1.37,8.88-.04Z"/><path class="cls-13" d="M95.79,470.54c15.15,.48,35.4,33.54,44.41,43.27,16.18,3.16,28.62-3.75,28.62-3.75,1.27,9.21,4.7,33.25-17.38,38.1-27.82,6.11-51.77-34.96-58.41-51.31-4.78,18.29-5.82,21.49-10.48,35.16-6.97-.37-11.31-.83-17.04-3.09,3.9-20.09,9.44-59.05,30.28-58.38Z"/><path class="cls-21" d="M157.71,456.94c-15.74,16.49-27.05,26.87-43.64,24.27-10.54-1.65-22.52-8.81-33.9-22.31-3.42-4.06,1.44-8.69,4.76-6.38,40.68,28.34,37.94,14.91,58.81-9.12,8.48-10.97,24.02,3,13.96,13.54Z"/><path class="cls-12" d="M72.42,450.79c-1.06-1.99-2.16-10.91-.37-12.31,1.5-.36,4.25,4.96,5.54,6.87,1,1.5,2.21,2.86,3.34,4.28,.92,1.14,2.16,2.49,2.3,4.03,.15,1.83-1.21,4.11-3.23,4.05-2.75-.41-6.25-4.55-7.57-6.92Z"/><path class="cls-27" d="M127.78,405.31c.09,3.22-2.44,5.9-5.65,5.99-3.22,.09-5.9-2.44-5.99-5.65-.09-3.22,2.44-5.9,5.66-5.99,3.21-.09,5.9,2.44,5.99,5.65Z"/><path class="cls-9" d="M120.41,410.62c-1.1,10.39,.49,23.47,11.71,20.27,7.3-2.08,14.61-6.97,15.71-17.35,2.13-24.89-24.28-27.7-27.43-2.92Z"/><path class="cls-27" d="M115.4,402.61c-4.3-4.36-3.04-14.42,7.5-11.77,2.21,.55,6.15,1.53,8.8,2.05,5.55,1.08,6.99-1.78,13.74,1.96,15.33,8.49,2.39,31.39-5.26,32.26,0,0-6.46,1.56-1.66-8.53,1.42-2.97-.56-7.66-3.32-9.56-7.18-7.89-12.17,1.33-19.8-6.41Z"/><path class="cls-10" d="M143.14,414.84c0,2.81-1.76,5.2-3.92,5.33-2.16,.14-3.9-2.03-3.9-4.84,0-2.81,1.76-5.19,3.92-5.33,2.16-.14,3.91,2.03,3.9,4.84Z"/><path class="cls-9" d="M138.62,416.66l7.29,15.76c2.73,6.52-7.33,10.08-9.31,3.29l-4.1-15.8c-1.1-4.14,4.4-7.13,6.12-3.25Z"/><rect class="cls-27" y="547.54" width="534.8" height="8.74"/><path class="cls-22" d="M324.36,221.92c8.38-8.38,21.97-8.38,30.35,0,7.18,7.18,8.21,18.18,3.08,26.46l2.94,9.32c.06,.17,.01,.35-.12,.48-.13,.13-.31,.17-.48,.12l-9.32-2.94c-8.27,5.12-19.28,4.1-26.46-3.08-8.38-8.38-8.38-21.97,0-30.35Z"/><path class="cls-2" d="M326.98,239.24l6.17,5.87c.15,.15,.35,.24,.58,.24s.43-.09,.58-.24l6.16-5.87c.05-.05,.11-.1,.16-.15,.82-.82,1.33-1.95,1.33-3.2,0-2.5-2.03-4.53-4.53-4.53-1.53,0-2.88,.76-3.71,1.92-.82-1.16-2.17-1.92-3.7-1.92-2.5,0-4.53,2.03-4.53,4.53,0,1.25,.51,2.38,1.33,3.2,.05,.05,.1,.1,.16,.15Z"/><path class="cls-1" d="M348.14,232.74l-2.14,1.91c-.16,.14-.26,.28-.29,.4-.04,.13-.03,.25,.03,.38,.13,.26,.62,.81,.86,.97,.12,.08,.25,.1,.38,.08,.13-.02,.27-.1,.43-.25l2.09-1.86v9.57c0,.21,.04,.38,.1,.49,.07,.11,.17,.19,.31,.23,.28,.08,1.02,.08,1.3,0,.14-.04,.24-.12,.31-.23,.07-.11,.1-.27,.1-.49v-12.15c0-.21-.05-.38-.12-.49-.21-.33-.75-.27-1.09-.27-.6,0-1.41,.93-2.28,1.7Z"/><path class="cls-18" d="M181.02,86.4c6.69-6.69,17.53-6.69,24.21,0,5.73,5.73,6.55,14.51,2.46,21.11l2.35,7.43c.04,.14,0,.28-.09,.38s-.25,.14-.39,.09l-7.43-2.35c-6.6,4.09-15.38,3.27-21.11-2.46-6.69-6.69-6.69-17.53,0-24.21Z"/><path class="cls-1" d="M199.99,95.04l-1.71,1.52c-.13,.11-.21,.22-.23,.32-.03,.1-.02,.2,.03,.3,.1,.21,.49,.65,.69,.77,.1,.06,.2,.08,.3,.06,.1-.02,.22-.08,.35-.2l1.66-1.48v7.64c0,.17,.03,.3,.08,.39,.06,.09,.14,.15,.24,.18,.23,.06,.81,.06,1.04,0,.11-.03,.19-.09,.25-.18,.06-.09,.08-.22,.08-.39v-9.7c0-.17-.04-.31-.1-.39-.17-.27-.6-.22-.87-.21-.48,0-1.13,.74-1.82,1.36Z"/><path class="cls-2" d="M187.55,98.25h3.06c2.14,0,3.89,1.75,3.89,3.89v5.36c-1.62,.84-3.47,1.32-5.42,1.32s-3.8-.48-5.42-1.32v-5.36c0-2.14,1.75-3.89,3.89-3.89h0Zm1.53-8.28c1.9,0,3.44,1.54,3.44,3.44s-1.54,3.44-3.44,3.44-3.44-1.54-3.44-3.44,1.54-3.44,3.44-3.44Z"/><path class="cls-20" d="M147.28,44.27c9.96-9.96,26.1-9.96,36.06,0,8.53,8.53,9.75,21.61,3.66,31.44l3.5,11.07c.07,.21,.01,.42-.14,.57-.15,.15-.37,.21-.57,.14l-11.07-3.5c-9.83,6.09-22.91,4.87-31.44-3.66-9.96-9.96-9.96-26.1,0-36.06Z"/><path class="cls-1" d="M175.54,57.14l-2.54,2.26c-.19,.17-.31,.33-.35,.48-.04,.15-.03,.3,.04,.45,.15,.31,.73,.96,1.03,1.15,.15,.09,.3,.12,.45,.1,.15-.03,.33-.12,.51-.29l2.48-2.21v11.38c0,.25,.04,.45,.12,.58,.08,.13,.2,.22,.36,.27,.34,.09,1.21,.09,1.55,0,.17-.05,.29-.14,.37-.27,.08-.13,.12-.33,.12-.58v-14.44c0-.25-.06-.46-.14-.59-.25-.4-.89-.32-1.3-.32-.71,.01-1.68,1.11-2.71,2.02Z"/><path class="cls-2" d="M157.02,61.93h4.56c3.19,0,5.8,2.61,5.8,5.8v7.98c-2.42,1.25-5.17,1.96-8.08,1.96s-5.66-.71-8.08-1.96v-7.98c0-3.19,2.61-5.8,5.8-5.8h0Zm2.28-12.33c2.83,0,5.13,2.3,5.13,5.13s-2.3,5.13-5.13,5.13-5.13-2.3-5.13-5.13,2.3-5.13,5.13-5.13Z"/><path class="cls-18" d="M352.89,186.73c11.33-11.33,29.69-11.33,41.02,0,9.71,9.71,11.09,24.58,4.17,35.76l3.98,12.59c.07,.24,.02,.48-.16,.65-.17,.18-.42,.23-.65,.16l-12.59-3.98c-11.18,6.93-26.06,5.54-35.76-4.17-11.33-11.33-11.33-29.69,0-41.02Z"/><path class="cls-2" d="M356.44,210.15l8.33,7.94c.2,.2,.48,.33,.79,.33s.59-.12,.79-.33l8.33-7.94c.07-.07,.15-.13,.21-.2,1.11-1.11,1.79-2.64,1.79-4.33,0-3.38-2.74-6.12-6.12-6.12-2.07,0-3.9,1.03-5.01,2.6-1.11-1.57-2.94-2.6-5.01-2.6-3.38,0-6.12,2.74-6.12,6.12,0,1.69,.68,3.22,1.79,4.33,.07,.07,.14,.14,.21,.2Z"/><path class="cls-1" d="M385.03,201.37l-2.89,2.58c-.21,.19-.35,.37-.4,.54-.05,.17-.04,.34,.04,.52,.17,.36,.84,1.1,1.17,1.31,.17,.1,.34,.14,.51,.11,.17-.03,.37-.14,.59-.33l2.82-2.51v12.94c0,.29,.05,.51,.14,.66,.09,.15,.23,.25,.41,.31,.38,.11,1.38,.11,1.76,0,.19-.06,.33-.16,.42-.31,.09-.15,.14-.37,.14-.66v-16.43c0-.28-.07-.52-.16-.67-.28-.45-1.01-.37-1.47-.36-.81,.01-1.91,1.26-3.08,2.3Z"/><path class="cls-20" d="M399.05,159.39c12.12-12.12,31.77-12.12,43.9,0,10.39,10.39,11.87,26.3,4.46,38.27l4.26,13.47c.08,.25,.02,.51-.17,.7-.19,.19-.45,.25-.7,.17l-13.47-4.26c-11.97,7.41-27.88,5.93-38.27-4.46-12.12-12.12-12.12-31.77,0-43.9Z"/><path class="cls-2" d="M402.84,184.44l8.92,8.49c.22,.22,.51,.35,.84,.35s.63-.13,.84-.35l8.92-8.49c.08-.07,.16-.14,.23-.22,1.19-1.19,1.92-2.82,1.92-4.63,0-3.62-2.93-6.55-6.55-6.55-2.22,0-4.17,1.1-5.36,2.78-1.18-1.68-3.14-2.78-5.36-2.78-3.62,0-6.55,2.93-6.55,6.55,0,1.81,.73,3.45,1.92,4.63,.08,.07,.15,.15,.23,.22Z"/><path class="cls-1" d="M433.44,175.06l-3.1,2.76c-.23,.2-.37,.4-.43,.58-.05,.18-.04,.36,.05,.55,.19,.38,.89,1.17,1.25,1.41,.18,.11,.36,.15,.55,.12,.19-.03,.4-.15,.63-.36l3.02-2.69v13.85c0,.31,.05,.54,.15,.7,.1,.16,.25,.27,.44,.33,.41,.12,1.47,.11,1.88,0,.2-.06,.35-.17,.45-.33,.1-.16,.15-.4,.15-.7v-17.58c0-.3-.07-.55-.17-.72-.3-.48-1.08-.39-1.58-.39-.87,.01-2.04,1.35-3.3,2.46Z"/></svg>