<svg width="720" height="570" viewBox="0 0 720 570" fill="none" xmlns="http://www.w3.org/2000/svg">
<g clip-path="url(#clip0_2394_13361)">
<path d="M150.188 435.055C149.884 378.92 228.497 332.985 325.776 332.458C423.055 331.931 502.162 377.01 502.466 433.145C502.771 489.28 424.157 535.215 326.878 535.742C229.6 536.269 150.493 491.19 150.188 435.055Z" fill="#F4F4F4"/>
<path d="M339.109 517.346L477.068 437.739C480.053 436.111 479.646 433.128 476.254 431.094L356.066 361.658C352.674 359.759 347.52 359.488 344.671 361.251L206.712 440.858C203.727 442.485 204.134 445.469 207.526 447.503L327.714 516.939C330.97 518.838 336.125 519.109 339.109 517.346Z" fill="#EAEAEA"/>
<path d="M238.592 73.3359C230.724 77.4044 223.263 81.8798 216.209 87.0332C214.31 88.3894 212.547 85.2702 214.446 83.9141C221.635 78.7606 229.096 74.2852 236.829 70.2167C238.863 69.2674 240.763 72.3866 238.592 73.3359Z" fill="#D5DEFB"/>
<path d="M372.074 66.4199C361.493 62.6226 350.776 59.7747 339.788 57.876C337.482 57.4692 338.432 53.9431 340.738 54.35C351.726 56.2486 362.442 59.0966 373.023 62.8939C375.194 63.7076 374.244 67.2336 372.074 66.4199Z" fill="#D5DEFB"/>
<path d="M488.736 175.185C482.632 163.25 475.713 151.858 467.846 140.873C466.489 138.975 469.609 137.212 470.966 139.11C478.833 149.96 485.752 161.352 491.856 173.421C492.941 175.456 489.821 177.219 488.736 175.185Z" fill="#D5DEFB"/>
<path d="M514.103 330.331C515.731 318.803 516.68 307.14 516.816 295.477C516.816 293.172 520.479 293.172 520.479 295.477C520.343 307.547 519.393 319.481 517.63 331.416C517.223 333.586 513.696 332.636 514.103 330.331Z" fill="#D5DEFB"/>
<path d="M164.524 144.264C158.691 154.028 153.808 164.2 149.467 174.778C148.653 176.948 145.126 175.998 145.94 173.828C150.281 162.979 155.435 152.537 161.404 142.501C162.489 140.467 165.609 142.23 164.524 144.264Z" fill="#D5DEFB"/>
<path d="M287.969 133.55C284.035 131.245 279.694 133.55 278.473 138.568L205.899 421.601C204.678 426.619 206.848 432.586 210.782 434.891L332.463 505.141C336.397 507.446 340.738 505.141 341.959 500.123L414.533 217.09C415.754 212.072 413.584 206.105 409.65 203.8L287.969 133.55Z" fill="#AB94F6"/>
<path d="M338.568 506.768L346.571 505.276C349.284 504.734 351.726 502.428 352.676 498.767L344.672 500.258C343.723 503.92 341.281 506.361 338.568 506.768Z" fill="#9C82F0"/>
<path d="M332.328 505.005L333.82 505.819C338.297 508.396 343.181 505.819 344.537 500.123L341.824 499.987C340.603 505.005 336.262 507.311 332.328 505.005Z" fill="#A790F4"/>
<path d="M293.395 129.617L285.391 131.109C286.883 130.838 288.511 131.109 290.139 132.058L298.143 130.567C296.515 129.617 294.887 129.346 293.395 129.617Z" fill="#AC96F6"/>
<path d="M411.684 202.172L419.688 200.816L298.142 130.566L290.003 132.058L411.684 202.172Z" fill="#AC96F6"/>
<path d="M281.322 133.55L281.187 133.686C281.187 133.686 281.187 133.686 281.187 133.821L281.051 133.957L280.915 134.093L280.78 134.228L280.644 134.364C280.644 134.364 280.644 134.364 280.644 134.499L280.508 134.635L280.373 134.771C280.373 134.771 280.373 134.771 280.373 134.906C282.272 132.601 285.256 131.923 288.105 133.55L290.275 132.058C286.884 130.16 283.493 130.973 281.322 133.55Z" fill="#A790F4"/>
<path d="M409.515 203.8L411.686 202.173L290.005 132.059L287.97 133.55L409.515 203.8Z" fill="#A790F4"/>
<path d="M344.673 500.259L352.676 498.767L425.115 215.734L417.112 217.226L344.673 500.259Z" fill="#9C82F0"/>
<path d="M341.824 499.987L344.672 500.258L417.111 217.225L414.398 217.09L341.824 499.987Z" fill="#A790F4"/>
<path d="M417.111 217.226L425.114 215.734C426.606 210.038 424.165 203.257 419.688 200.681L411.685 202.172C416.161 204.749 418.603 211.53 417.111 217.226Z" fill="url(#paint0_linear_2394_13361)"/>
<path d="M414.397 217.09L417.11 217.361C418.603 211.665 416.161 204.884 411.684 202.308L409.514 203.799C413.448 205.969 415.618 212.072 414.397 217.09Z" fill="#A790F4"/>
<path d="M331.785 499.309L333.277 500.123C335.719 501.479 338.296 500.123 338.975 497.14L336.262 497.004C335.719 499.309 333.684 500.394 331.785 499.309Z" fill="#0950E0"/>
<path d="M283.085 137.754L282.95 137.89C282.95 137.89 282.95 137.89 282.95 138.025L282.814 138.161L282.678 138.296L282.543 138.432C282.543 138.432 282.407 138.568 282.407 138.703L282.271 138.839L282.136 138.974C282.136 138.974 282.136 138.974 282.136 139.11C283.085 138.025 284.442 137.754 285.798 138.432L287.969 136.94C286.07 135.991 284.306 136.398 283.085 137.754Z" fill="#0950E0"/>
<path d="M299.093 146.298L301.264 144.671L287.834 136.94L285.664 138.432L299.093 146.298Z" fill="#0950E0"/>
<path d="M302.485 149.959L305.062 149.01C304.113 147.111 302.756 145.619 301.264 144.67L299.094 146.162C300.45 146.975 301.671 148.332 302.485 149.959Z" fill="#0950E0"/>
<path d="M308.182 161.215L310.76 160.13L305.198 149.01L302.485 149.959L308.182 161.215Z" fill="#0950E0"/>
<path d="M312.523 165.962L314.693 164.471C313.201 163.521 311.845 162.029 310.895 160.131L308.318 161.08C309.267 163.25 310.759 165.013 312.523 165.962Z" fill="#0950E0"/>
<path d="M374.109 201.494L376.279 200.002L314.693 164.471L312.522 165.962L374.109 201.494Z" fill="#0950E0"/>
<path d="M379.535 202.307L381.027 200.68C379.535 201.087 377.772 200.816 376.279 200.002L374.109 201.494C375.873 202.579 377.772 202.85 379.535 202.307Z" fill="#0950E0"/>
<path d="M388.76 199.731L390.252 198.104L381.028 200.68L379.535 202.308L388.76 199.731Z" fill="#0950E0"/>
<path d="M392.83 200.409L395 198.782C393.508 197.833 391.744 197.697 390.252 198.104L388.76 199.731C390.116 199.324 391.473 199.596 392.83 200.409Z" fill="#0950E0"/>
<path d="M406.394 208.139L408.564 206.647L394.999 198.781L392.829 200.409L406.394 208.139Z" fill="#0950E0"/>
<path d="M408.701 214.378L411.414 214.513C412.228 211.53 410.871 207.868 408.429 206.512L406.259 208.004C408.294 209.224 409.243 212.072 408.701 214.378Z" fill="#0950E0"/>
<path d="M285.664 138.432C283.765 137.347 281.73 138.432 281.187 140.737L208.749 423.228C208.07 425.669 209.155 428.381 211.055 429.466L331.786 499.173C333.685 500.258 335.72 499.173 336.262 496.868L408.701 214.377C409.38 211.936 408.294 209.224 406.395 208.139L392.966 200.409C391.609 199.595 390.117 199.46 388.76 199.866L379.536 202.443C377.772 202.986 375.873 202.714 374.11 201.629L312.523 166.098C310.76 165.148 309.268 163.385 308.182 161.216L302.485 150.095C301.671 148.468 300.45 147.111 299.094 146.298L285.664 138.432Z" fill="#2462E0"/>
<path d="M336.262 496.868L339.111 497.14L411.414 214.649L408.701 214.378L336.262 496.868Z" fill="#0950E0"/>
<path d="M239.27 316.498C224.212 360.438 239.812 411.294 274.133 430.009C308.453 448.725 348.471 428.246 363.528 384.306C378.586 340.367 362.986 289.51 328.665 270.795C294.345 252.08 254.327 272.558 239.27 316.498Z" fill="url(#paint1_radial_2394_13361)"/>
<path d="M299.932 412.084C273.193 411.447 252.176 383.312 252.989 349.243C253.801 315.174 276.135 288.072 302.873 288.709C329.612 289.347 350.629 317.482 349.816 351.551C349.004 385.619 326.67 412.721 299.932 412.084Z" fill="#5FB8FF"/>
<path d="M299.993 409.508C274.378 408.898 254.245 381.938 255.023 349.291C255.801 316.645 277.197 290.675 302.812 291.285C328.427 291.896 348.56 318.856 347.782 351.502C347.004 384.148 325.608 410.118 299.993 409.508Z" fill="#2462E0"/>
<path d="M262.196 328.974C252.7 356.64 262.467 388.782 284.172 400.58C305.876 412.379 331.108 399.495 340.603 371.694C350.099 344.028 340.332 311.887 318.628 300.088C296.923 288.289 271.692 301.309 262.196 328.974Z" fill="url(#paint2_radial_2394_13361)"/>
<path d="M412.633 480.595C412.905 480.73 413.04 481.002 413.312 481.137C414.261 482.087 415.346 482.765 416.432 483.443L415.482 482.629C414.397 482.087 413.447 481.408 412.633 480.595Z" fill="#40ACFF"/>
<path d="M404.767 466.626C404.767 466.897 404.902 467.169 404.902 467.44C404.631 466.219 404.495 464.999 404.495 463.778L404.224 462.558C404.36 463.914 404.495 465.27 404.767 466.626Z" fill="#40ACFF"/>
<path d="M415.484 482.765L416.433 483.578L440.986 497.547L438.68 496.191L415.484 482.765Z" fill="#40ACFF"/>
<path d="M404.631 443.028L404.36 441.808V462.557L404.495 463.778L404.631 443.028Z" fill="#40ACFF"/>
<path d="M412.092 431.637L407.886 434.078C410.057 432.857 413.177 432.993 416.568 434.891L420.773 432.45C417.382 430.416 414.262 430.281 412.092 431.637Z" fill="#1086E0"/>
<path d="M415.619 436.79L416.568 434.892C409.921 430.959 404.36 434.078 404.36 441.808L404.631 443.029C404.631 436.112 409.514 433.264 415.619 436.79Z" fill="#40ACFF"/>
<path d="M438.678 496.19L440.849 497.547C446.953 500.259 451.701 497.14 451.701 489.952L449.531 489.816C449.531 496.326 445.325 499.174 438.678 496.19Z" fill="#40ACFF"/>
<path d="M448.176 497.682L452.381 495.241C454.552 494.02 455.908 491.308 455.908 487.511L451.703 489.952C451.703 493.749 450.346 496.461 448.176 497.682Z" fill="#1086E0"/>
<path d="M451.702 489.952L455.907 487.511L456.043 466.762L451.838 469.203L451.702 489.952Z" fill="#1086E0"/>
<path d="M449.532 489.817L451.702 489.952L451.838 469.203L449.667 469.067L449.532 489.817Z" fill="#40ACFF"/>
<path d="M439.629 448.182L443.834 445.741L420.773 432.45L416.568 434.891L439.629 448.182Z" fill="#1086E0"/>
<path d="M438.679 450.081L439.629 448.182L416.568 434.892L415.618 436.79L438.679 450.081Z" fill="#40ACFF"/>
<path d="M455.5 462.693C455.5 462.557 455.5 462.421 455.364 462.286C455.364 462.15 455.364 462.015 455.229 461.879C454.143 456.997 451.295 451.979 447.496 448.724C447.225 448.588 447.089 448.317 446.818 448.182C451.159 451.708 454.415 457.268 455.5 462.693Z" fill="#40ACFF"/>
<path d="M415.619 436.79C409.515 433.264 404.631 436.112 404.631 443.029V463.778C404.631 470.694 409.515 479.238 415.619 482.629L430.27 491.037L438.816 496.055C445.327 499.038 449.668 496.191 449.668 489.681V468.931C449.668 462.015 444.784 453.471 438.68 450.081L415.619 436.79Z" fill="#5FB8FF"/>
<path d="M449.667 469.067L451.838 469.202C451.838 461.472 446.412 452.115 439.765 448.182L438.815 450.08C444.784 453.606 449.667 462.15 449.667 469.067Z" fill="#40ACFF"/>
<path d="M451.838 469.203L456.043 466.762C456.043 459.032 450.617 449.674 443.97 445.741L439.765 448.182C446.412 452.115 451.838 461.473 451.838 469.203Z" fill="#1086E0"/>
<path d="M415.348 465.405L417.111 464.456L414.67 465.541L412.906 466.49L415.348 465.405Z" fill="#1086E0"/>
<path d="M426.607 483.578L428.371 482.493L429.049 479.238L427.285 480.323L426.607 483.578Z" fill="#1086E0"/>
<path d="M428.098 474.22L429.861 473.135C428.912 473.678 427.691 473.542 426.334 472.864L424.571 473.949C426.063 474.763 427.284 474.763 428.098 474.22Z" fill="#1086E0"/>
<path d="M428.098 474.22L429.861 473.135C428.912 473.678 427.691 473.542 426.334 472.864L424.571 473.949C426.063 474.763 427.284 474.763 428.098 474.22Z" fill="#1086E0"/>
<path d="M422.944 461.337L421.18 462.422C420.366 462.964 419.824 464.049 419.824 465.541C419.824 468.66 421.994 472.457 424.707 473.949L426.471 472.864C423.758 471.237 421.587 467.575 421.587 464.456C421.587 462.964 422.13 461.879 422.944 461.337Z" fill="#1086E0"/>
<path d="M424.572 473.949L426.336 472.864C423.623 471.237 421.452 467.575 421.452 464.456C421.452 462.964 421.995 461.879 422.809 461.337L421.045 462.422C420.232 462.964 419.689 464.049 419.689 465.541C419.689 468.525 421.859 472.322 424.572 473.949Z" fill="#1086E0"/>
<path d="M418.195 456.591L419.959 455.642L416.839 452.658L415.075 453.608L418.195 456.591Z" fill="#1086E0"/>
<path d="M421.994 456.32L423.758 455.235C422.266 454.828 421.045 454.963 419.96 455.506L418.196 456.591C419.281 456.048 420.638 456.048 421.994 456.32Z" fill="#1086E0"/>
<path d="M421.994 456.32L423.758 455.235C422.266 454.828 421.045 454.963 419.96 455.506L418.196 456.591C419.281 456.048 420.638 456.048 421.994 456.32Z" fill="#1086E0"/>
<path d="M434.204 483.036L435.967 481.951C436.781 481.273 437.595 480.324 438.002 479.104L436.238 480.188C435.696 481.409 435.018 482.358 434.204 483.036Z" fill="#1086E0"/>
<path d="M434.204 483.036L435.967 481.951C436.781 481.273 437.595 480.324 438.002 479.104L436.238 480.188C435.696 481.409 435.018 482.358 434.204 483.036Z" fill="#1086E0"/>
<path d="M436.238 480.188L438.002 479.103L435.56 475.17L433.797 476.255L436.238 480.188Z" fill="#1086E0"/>
<path d="M433.795 476.255L435.559 475.17C435.694 474.492 435.83 473.678 435.83 472.865C435.83 472.051 435.694 471.102 435.559 470.152L433.795 471.237C433.931 472.187 434.067 473 434.067 473.95C434.067 474.763 434.067 475.577 433.795 476.255Z" fill="#1086E0"/>
<path d="M433.795 476.255L435.559 475.17C435.694 474.492 435.83 473.678 435.83 472.865C435.83 472.051 435.694 471.102 435.559 470.152L433.795 471.237C433.931 472.187 434.067 473 434.067 473.95C434.067 474.763 434.067 475.577 433.795 476.255Z" fill="#1086E0"/>
<path d="M431.219 464.321L432.982 463.236C431.897 461.473 430.676 459.845 429.184 458.489L427.421 459.574C428.913 460.93 430.134 462.558 431.219 464.321Z" fill="#1086E0"/>
<path d="M431.219 464.321L432.982 463.236C431.897 461.473 430.676 459.845 429.184 458.489L427.421 459.574C428.913 460.93 430.134 462.558 431.219 464.321Z" fill="#1086E0"/>
<path d="M426.877 455.506L428.641 454.421C427.962 453.878 427.284 453.471 426.606 453.065C426.606 453.065 426.606 453.065 426.47 453.065C425.792 452.658 425.114 452.386 424.571 452.115L422.808 453.2C423.486 453.471 424.164 453.743 424.707 454.149C424.707 454.149 424.707 454.149 424.842 454.149C425.521 454.556 426.199 454.963 426.877 455.506Z" fill="#1086E0"/>
<path d="M426.877 455.506L428.641 454.421C427.962 453.878 427.284 453.471 426.606 453.065C426.606 453.065 426.606 453.065 426.47 453.065C425.792 452.658 425.114 452.386 424.571 452.115L422.808 453.2C423.486 453.471 424.164 453.743 424.707 454.149C424.707 454.149 424.707 454.149 424.842 454.149C425.521 454.556 426.199 454.963 426.877 455.506Z" fill="#1086E0"/>
<path d="M427.42 459.574L429.184 458.489L428.641 454.421L426.877 455.506L427.42 459.574Z" fill="#1086E0"/>
<path d="M434.338 464.864L436.102 463.914L432.982 463.236L431.218 464.321L434.338 464.864Z" fill="#1086E0"/>
<path d="M436.373 470.152L438.137 469.067C437.73 467.304 437.051 465.541 436.102 463.778L434.338 464.863C435.152 466.626 435.831 468.389 436.373 470.152Z" fill="#1086E0"/>
<path d="M436.373 470.152L438.137 469.067C437.73 467.304 437.051 465.541 436.102 463.778L434.338 464.863C435.152 466.626 435.831 468.389 436.373 470.152Z" fill="#1086E0"/>
<path d="M415.348 465.406L412.906 466.491C413.313 468.254 413.991 470.017 414.941 471.78L418.061 472.458C419.146 474.221 420.367 475.848 421.859 477.204L422.537 481.273C423.216 481.815 423.894 482.222 424.572 482.629H424.708C425.386 483.036 426.064 483.307 426.607 483.578L427.285 480.324C428.777 480.73 429.998 480.595 431.083 480.052L434.203 483.036C435.017 482.358 435.831 481.408 436.238 480.188L433.797 476.255C433.932 475.577 434.068 474.763 434.068 473.949C434.068 473.136 433.932 472.186 433.797 471.237L436.238 470.152C435.831 468.389 435.153 466.626 434.203 464.863L431.083 464.185C429.998 462.422 428.777 460.795 427.285 459.438L426.607 455.37C425.929 454.827 425.25 454.421 424.572 454.014C424.572 454.014 424.572 454.014 424.436 454.014C423.758 453.607 423.08 453.336 422.537 453.064L421.859 456.319C420.367 455.912 419.146 456.048 418.061 456.591L414.941 453.607C414.127 454.285 413.313 455.234 412.906 456.455L415.348 460.388C415.212 461.066 415.076 461.88 415.076 462.693C415.212 463.643 415.212 464.592 415.348 465.406ZM424.572 473.949C421.859 472.322 419.689 468.66 419.689 465.541C419.689 462.422 421.859 461.201 424.572 462.829C427.285 464.456 429.456 468.254 429.456 471.237C429.456 474.221 427.285 475.441 424.572 473.949Z" fill="white"/>
<path d="M160.456 128.804C160.727 129.075 160.999 129.211 161.27 129.482C162.491 130.567 163.712 131.516 165.068 132.194L163.983 131.245C162.762 130.702 161.677 129.889 160.456 128.804Z" fill="#3AE85A"/>
<path d="M151.096 112.122C151.232 112.394 151.232 112.801 151.367 113.072C151.096 111.58 150.825 110.088 150.96 108.732L150.689 107.24C150.553 108.868 150.825 110.495 151.096 112.122Z" fill="#3AE85A"/>
<path d="M163.983 131.38L165.068 132.329L182.432 142.365L182.025 141.822L163.983 131.38Z" fill="#3AE85A"/>
<path d="M150.959 75.9127L150.688 74.4209L150.552 107.24L150.823 108.732L150.959 75.9127Z" fill="#3AE85A"/>
<path d="M195.59 167.726L200.609 164.878L199.931 146.569L194.912 149.417L195.59 167.726Z" fill="#19CC3A"/>
<path d="M192.877 162.844L195.59 167.726L194.912 149.417L192.334 147.79L192.877 162.844Z" fill="#3AE85A"/>
<path d="M159.913 62.2154L154.894 65.0634C157.471 63.5716 161.134 63.7072 165.204 66.0127L170.223 63.1648C166.289 60.8593 162.626 60.588 159.913 62.2154Z" fill="#19CC3A"/>
<path d="M164.118 68.4534L165.203 66.1479C157.2 61.5369 150.688 65.1986 150.688 74.4205L150.96 75.9123C150.96 67.5041 156.793 64.2493 164.118 68.4534Z" fill="#3AE85A"/>
<path d="M192.334 147.79L194.912 149.417C202.101 152.672 207.799 148.875 207.799 140.331L205.221 140.195C205.221 147.925 200.202 151.316 192.334 147.79Z" fill="#3AE85A"/>
<path d="M203.594 149.553L208.613 146.705C211.191 145.213 212.818 141.959 212.818 137.348L207.799 140.196C207.799 144.807 206.171 148.061 203.594 149.553Z" fill="#19CC3A"/>
<path d="M207.798 140.331L212.817 137.348L212.953 104.528L207.934 107.376L207.798 140.331Z" fill="#19CC3A"/>
<path d="M205.221 140.195L207.798 140.331L207.934 107.376L205.356 107.24L205.221 140.195Z" fill="#3AE85A"/>
<path d="M193.418 82.4227L198.438 79.4391L170.222 63.165L165.202 66.1486L193.418 82.4227Z" fill="#19CC3A"/>
<path d="M192.335 84.5924L193.42 82.4225L165.204 66.1484L164.119 68.4539L192.335 84.5924Z" fill="#3AE85A"/>
<path d="M212.41 99.6461C212.41 99.5105 212.275 99.2392 212.275 99.1036C212.275 98.968 212.275 98.8324 212.139 98.6968C210.918 92.8652 207.391 86.8981 202.914 82.9652C202.643 82.694 202.372 82.5583 202.101 82.2871C207.12 86.6269 211.054 93.2721 212.41 99.6461Z" fill="#3AE85A"/>
<path d="M164.118 68.4542C156.928 64.2501 150.96 67.6405 150.96 75.9131L150.824 108.732C150.824 117.005 156.657 127.176 163.847 131.381L182.024 141.823L192.876 162.844L192.334 147.79C200.202 151.316 205.357 147.926 205.357 140.196L205.492 107.376C205.492 99.1037 199.659 88.9324 192.47 84.7283L164.118 68.4542Z" fill="#5BF06D"/>
<path d="M205.356 107.241L207.934 107.376C207.934 98.1543 201.422 86.8981 193.419 82.2871L192.333 84.5926C199.523 88.7967 205.356 98.968 205.356 107.241Z" fill="#3AE85A"/>
<path d="M207.934 107.376L212.953 104.528C212.953 95.3057 206.442 84.0495 198.438 79.4385L193.419 82.2864C201.423 87.033 207.934 98.1536 207.934 107.376Z" fill="#19CC3A"/>
<path d="M179.718 121.209L184.873 118.497L181.482 111.987L176.327 114.7L179.718 121.209Z" fill="#19CC3A"/>
<path d="M176.328 114.7L181.482 111.988L179.312 105.885L174.157 108.597L176.328 114.7Z" fill="#19CC3A"/>
<path d="M187.587 135.314L192.742 132.602C193.285 132.33 193.827 131.923 194.234 131.517L189.08 134.229C188.537 134.636 188.13 135.043 187.587 135.314Z" fill="#19CC3A"/>
<path d="M174.158 108.597L179.312 105.884L177.82 99.1035L172.666 101.816L174.158 108.597Z" fill="#19CC3A"/>
<path d="M189.079 134.229L194.234 131.516L195.455 130.296L190.3 133.008L189.079 134.229Z" fill="#19CC3A"/>
<path d="M183.789 120.26L188.943 117.684L184.874 118.497L179.719 121.21L183.789 120.26Z" fill="#19CC3A"/>
<path d="M185.416 121.616L190.57 118.904C190.163 118.09 189.349 117.412 188.943 117.548L183.788 120.26C184.195 120.26 185.009 120.802 185.416 121.616Z" fill="#19CC3A"/>
<path d="M189.892 129.075L195.047 126.362L190.57 119.039L185.415 121.616L189.892 129.075Z" fill="#19CC3A"/>
<path d="M190.3 133.008L195.454 130.295C195.997 129.753 195.997 128.532 195.454 127.312C195.319 127.04 195.183 126.769 195.047 126.362L189.893 129.075C190.028 129.346 190.164 129.617 190.3 130.024C190.842 131.245 190.842 132.465 190.3 133.008Z" fill="#19CC3A"/>
<path d="M177.141 101.681L182.296 98.9682C182.703 98.8326 182.839 98.1545 182.703 97.3408L177.548 100.053C177.684 100.867 177.548 101.409 177.141 101.681Z" fill="#19CC3A"/>
<path d="M171.173 84.7283L166.018 87.4406C166.154 87.4406 166.154 87.305 166.289 87.305C168.053 86.7625 170.088 86.8982 172.123 87.8475L177.277 85.1351C175.107 84.1858 173.208 84.0502 171.444 84.5927C171.444 84.5927 171.309 84.7283 171.173 84.7283Z" fill="#19CC3A"/>
<path d="M174.158 88.5252L179.312 85.9485L177.278 85.1348L172.123 87.7115L174.158 88.5252Z" fill="#19CC3A"/>
<path d="M177.548 100.053L182.703 97.3405L181.618 89.6104L176.463 92.1871L177.548 100.053Z" fill="#19CC3A"/>
<path d="M170.222 115.513C170.901 117.276 171.85 119.31 172.935 121.751C176.191 128.668 179.447 132.736 181.21 134.635C182.024 135.584 182.974 136.127 183.923 136.127C185.958 136.262 187.722 135.584 188.942 134.364L190.163 133.143C190.706 132.601 190.706 131.38 190.163 130.16C190.028 129.888 189.892 129.617 189.756 129.21L185.28 121.751C184.873 120.938 184.059 120.26 183.652 120.395L179.582 121.344L176.191 114.835L174.021 108.732L172.528 101.951L176.869 101.816C177.412 101.816 177.683 101.138 177.412 100.188L176.327 92.3224C176.327 92.0512 176.191 91.6443 176.055 91.3731C175.648 90.1526 174.699 88.932 173.885 88.6608L171.986 87.8471C169.815 86.8977 167.916 86.7621 166.153 87.3046C165.339 87.5758 164.796 88.2539 164.661 89.3388C164.389 91.5087 164.118 95.9841 166.017 103.036C166.695 105.477 167.238 107.647 167.781 109.275L170.222 115.513Z" fill="white"/>
<path d="M176.462 92.1875L181.617 89.4751C181.617 89.2039 181.482 88.7971 181.346 88.5258C180.939 87.3053 179.989 86.0847 179.175 85.8135L174.021 88.5258C174.834 88.9327 175.648 90.0176 176.191 91.2382C176.327 91.645 176.462 91.9163 176.462 92.1875Z" fill="#19CC3A"/>
<path d="M240.489 7.15493V59.6387C240.489 61.5374 241.846 63.8429 243.474 64.7922L308.994 102.494C309.672 102.901 308.723 103.986 309.265 103.85C309.401 103.85 311.165 102.765 311.3 102.629C311.707 102.223 311.979 101.68 311.979 100.731V48.3825C311.979 46.4839 310.758 44.314 309.13 43.2291L308.994 43.0935L243.609 5.39191C243.609 5.39191 243.474 5.39191 243.474 5.25629C242.66 4.84944 241.981 4.84944 241.439 5.12067C241.439 5.12067 239.675 6.06999 239.675 6.20561C239.133 6.61246 240.489 6.20561 240.489 7.15493Z" fill="#ED8600"/>
<path d="M238.727 8.10409V60.5879C238.727 62.4865 240.083 64.792 241.711 65.7414L307.096 103.443C308.724 104.392 310.08 103.579 310.08 101.68V49.3317C310.08 47.433 308.859 45.2632 307.231 44.1782L307.096 44.0426L241.711 6.47669C241.711 6.47669 241.575 6.47669 241.575 6.34107C239.947 5.52737 238.727 6.34107 238.727 8.10409Z" fill="#FFD06E"/>
<path d="M241.71 62.4863L307.23 100.188V44.178L241.71 6.34082V62.4863Z" fill="#FFA100"/>
<path d="M241.71 8.51074L266.535 57.4685L241.71 62.4863L307.23 100.188L280.642 63.8425L307.23 47.2972L241.71 8.51074Z" fill="#FFDC40"/>
<path d="M273.588 56.9268L241.71 62.4871L307.23 100.189L273.588 56.9268Z" fill="#FFAE00"/>
<path d="M279.15 64.2501L276.437 65.6062L269.248 61.6734L267.077 58.1473L273.589 56.9268L279.15 64.2501Z" fill="#FFDC40"/>
<path d="M276.437 64.6563L269.519 60.5878L241.71 8.51082V6.47656L307.23 44.1781V47.2973L276.437 64.6563Z" fill="#FFB30F"/>
<path d="M108.365 205.698C108.5 205.834 108.771 206.105 108.907 206.241C109.857 207.054 110.806 207.733 111.756 208.275L110.942 207.597C110.128 207.054 109.178 206.512 108.365 205.698Z" fill="#FFA719"/>
<path d="M101.446 193.221C101.446 193.493 101.582 193.764 101.582 194.035C101.311 192.95 101.175 191.865 101.175 190.78L101.039 189.695C101.039 190.78 101.175 192.001 101.446 193.221Z" fill="#FFA719"/>
<path d="M110.941 207.597L111.755 208.275L124.371 215.598L124.1 215.191L110.941 207.597Z" fill="#FFA719"/>
<path d="M101.311 172.201L101.039 171.116V189.56L101.175 190.781L101.311 172.201Z" fill="#FFA719"/>
<path d="M124.101 215.191L124.372 215.598L133.732 220.887L131.698 219.667L124.101 215.191Z" fill="#FFA719"/>
<path d="M107.957 161.894L104.159 164.064C106.194 162.979 108.907 163.115 111.891 164.878L115.689 162.708C112.705 160.945 109.992 160.809 107.957 161.894Z" fill="#FF9000"/>
<path d="M111.077 166.641L111.891 164.878C105.922 161.352 101.038 164.2 101.038 171.116L101.174 172.201C101.31 165.963 105.651 163.522 111.077 166.641Z" fill="#FFA719"/>
<path d="M131.696 219.667L133.595 220.887C139.021 223.328 143.227 220.48 143.227 214.106L141.327 213.971C141.463 219.802 137.665 222.379 131.696 219.667Z" fill="#FFA719"/>
<path d="M140.244 221.023L144.042 218.853C145.941 217.768 147.162 215.327 147.162 211.937L143.364 214.106C143.364 217.497 142.143 219.938 140.244 221.023Z" fill="#FF9000"/>
<path d="M143.364 214.107L147.162 211.937V193.357L143.5 195.527L143.364 214.107Z" fill="#FF9000"/>
<path d="M141.463 213.971L143.362 214.107L143.498 195.527L141.463 195.392V213.971Z" fill="#FFA719"/>
<path d="M132.646 176.812L136.309 174.642L115.689 162.708L111.891 164.878L132.646 176.812Z" fill="#FF9000"/>
<path d="M131.697 178.575L132.646 176.812L111.892 164.878L111.078 166.641L131.697 178.575Z" fill="#FFA719"/>
<path d="M146.754 189.696C146.754 189.56 146.754 189.425 146.618 189.289C146.618 189.153 146.618 189.018 146.483 188.882C145.533 184.542 142.956 180.067 139.564 177.083C139.429 176.948 139.157 176.677 139.022 176.541C142.82 179.931 145.804 184.949 146.754 189.696Z" fill="#FFA719"/>
<path d="M111.077 166.641C105.651 163.522 101.31 165.963 101.31 172.202V190.781C101.31 197.019 105.651 204.614 111.077 207.733L124.235 215.328L131.967 219.803C137.8 222.38 141.599 219.803 141.734 214.107V195.528C141.734 189.289 137.393 181.695 131.967 178.576L111.077 166.641Z" fill="#FFB947"/>
<path d="M141.464 195.392L143.363 195.528C143.363 188.611 138.48 180.203 132.511 176.812L131.697 178.576C137.123 181.695 141.6 189.154 141.464 195.392Z" fill="#FFA719"/>
<path d="M143.499 195.528L147.297 193.358C147.297 186.441 142.413 178.033 136.445 174.643L132.646 176.812C138.615 180.203 143.499 188.611 143.499 195.528Z" fill="#FF9000"/>
<path d="M118.538 197.154L120.438 196.069C118.267 197.019 115.418 197.29 111.891 196.476L109.992 197.561C113.519 198.239 116.368 198.104 118.538 197.154Z" fill="#FF9000"/>
<path d="M129.525 212.073L131.424 210.988C131.56 210.988 131.56 210.717 131.695 210.445L129.796 211.53C129.661 211.937 129.66 212.073 129.525 212.073Z" fill="#FF9000"/>
<path d="M112.434 176.812L110.535 177.897C110.535 177.897 110.67 177.897 110.806 178.033L112.705 176.948C112.434 176.812 112.434 176.676 112.434 176.812Z" fill="#FF9000"/>
<path d="M130.882 209.902L132.781 208.817C129.119 205.291 126.27 201.765 124.235 198.239L122.336 199.324C124.371 202.715 127.219 206.241 130.882 209.902Z" fill="#FF9000"/>
<path d="M129.797 211.665L131.696 210.58C131.967 209.767 132.239 209.224 132.781 208.817L130.882 209.902C130.339 210.309 130.068 210.852 129.797 211.665Z" fill="#FF9000"/>
<path d="M113.654 179.66L115.553 178.576L112.568 176.812L110.669 177.897L113.654 179.66Z" fill="#FF9000"/>
<path d="M120.437 196.07L122.336 194.985C120.708 191.866 119.623 188.068 118.809 183.729L116.91 184.813C117.724 189.153 118.945 192.95 120.437 196.07Z" fill="#FF9000"/>
<path d="M119.488 183.051L121.387 181.966L115.554 178.575L113.654 179.66L119.488 183.051Z" fill="#FF9000"/>
<path d="M121.929 184.542L123.828 183.457V181.83L121.929 182.915V184.542Z" fill="#FF9000"/>
<path d="M121.115 176.947L119.216 178.032C119.216 178.032 119.352 178.032 119.488 178.032L121.387 176.947C121.387 176.947 121.251 176.947 121.115 176.947Z" fill="#FF9000"/>
<path d="M122.336 199.325L124.235 198.24C126.135 196.613 127.627 193.629 128.848 189.425L126.949 190.51C125.728 194.714 124.235 197.697 122.336 199.325Z" fill="#FF9000"/>
<path d="M121.928 182.915L123.827 181.83C123.827 180.338 123.963 179.117 123.963 178.304L122.064 179.389C122.064 180.202 121.928 181.423 121.928 182.915Z" fill="#FF9000"/>
<path d="M122.2 179.388L124.1 178.304C122.879 177.625 122.065 177.219 121.522 177.083L119.623 178.168C120.166 178.439 120.98 178.846 122.2 179.388Z" fill="#FF9000"/>
<path d="M127.355 187.526L129.254 186.441L123.828 183.457L121.929 184.542L127.355 187.526Z" fill="#FF9000"/>
<path d="M130.476 192.544L132.375 191.459L130.476 192.544Z" fill="white"/>
<path d="M130.476 192.544L132.375 191.459C132.375 191.459 132.375 191.323 132.375 191.188L130.476 192.272C130.612 192.408 130.612 192.544 130.476 192.544Z" fill="#FF9000"/>
<path d="M130.611 192.272L132.51 191.187V188.61L130.611 189.695V192.272Z" fill="#FF9000"/>
<path d="M130.339 189.288L132.238 188.203L129.254 186.44L127.355 187.525L130.339 189.288Z" fill="#FF9000"/>
<path d="M130.476 189.425L132.375 188.34C132.375 188.34 132.239 188.204 132.104 188.204L130.205 189.289C130.476 189.289 130.476 189.425 130.476 189.425Z" fill="#FF9000"/>
<path d="M118.537 197.155C116.367 198.104 113.518 198.376 109.991 197.562C110.398 198.511 110.805 199.596 111.076 200.817C111.212 201.495 111.348 201.766 111.483 201.902C111.619 201.902 111.755 202.037 112.026 202.037C115.282 202.308 117.995 201.902 120.436 200.545C122.743 204.478 125.456 208.14 128.711 211.53C129.118 211.802 129.254 212.073 129.254 212.073C129.39 212.208 129.525 211.937 129.661 211.53C129.932 210.717 130.203 210.174 130.746 209.767C127.083 206.241 124.235 202.715 122.2 199.189C124.099 197.562 125.591 194.578 126.812 190.374L127.219 190.645L130.203 192.408C130.339 192.544 130.339 192.544 130.475 192.408C130.475 192.408 130.475 192.273 130.475 192.137V189.56C130.475 189.425 130.475 189.289 130.475 189.289C130.475 189.289 130.339 189.154 130.203 189.154L127.219 187.526L121.793 184.407V182.915C121.793 181.423 121.929 180.203 121.929 179.389C120.708 178.711 119.894 178.304 119.351 178.169C119.08 178.033 118.944 178.033 118.944 178.304C118.944 178.44 118.944 178.711 119.08 178.982C119.216 179.253 119.216 180.067 119.216 181.423V183.051L113.518 179.66L110.534 177.897C110.398 177.762 110.262 177.762 110.262 177.762C110.262 177.762 110.262 177.897 110.262 178.033V180.61C110.262 180.745 110.262 180.881 110.262 180.881C110.262 180.881 110.398 181.017 110.534 181.017L113.518 182.644L114.061 182.915C115.146 188.475 116.638 193.086 118.537 197.155ZM124.37 189.018C123.556 192.273 122.2 194.578 120.436 196.07C118.809 192.951 117.723 189.154 116.909 184.814L124.37 189.018Z" fill="white"/>
<path d="M130.611 189.696L132.51 188.611C132.51 188.475 132.51 188.34 132.51 188.34L130.611 189.425C130.611 189.425 130.611 189.56 130.611 189.696Z" fill="#FF9000"/>
<path d="M405.851 67.5039C389.709 58.5532 376.822 66.419 376.957 85.1341C377.093 103.849 390.523 126.362 406.665 135.312C422.808 144.263 435.695 136.397 435.559 117.682C435.288 98.9671 421.994 76.4547 405.851 67.5039Z" fill="#D7D8E2"/>
<path d="M411.685 69.809C398.255 62.35 387.539 68.8597 387.674 84.4556C387.81 100.052 398.933 118.767 412.363 126.226C425.793 133.685 436.509 127.175 436.374 111.579C436.238 95.9831 425.115 77.2679 411.685 69.809Z" fill="#CDCEDB"/>
<path d="M423.487 74.2847C415.484 69.8093 408.972 73.7422 409.108 83.0998C409.244 92.4574 415.891 103.578 423.894 108.053C431.898 112.529 438.409 108.596 438.273 99.2382C438.138 90.0163 431.626 78.76 423.487 74.2847Z" fill="#B9BBCE"/>
<path d="M405.851 67.5039C389.709 58.5532 376.822 66.419 376.957 85.1341C377.093 103.849 390.523 126.362 406.665 135.312C422.808 144.263 435.695 136.397 435.559 117.682C435.288 98.9671 421.994 76.4547 405.851 67.5039Z" fill="url(#paint3_linear_2394_13361)"/>
<path d="M453.467 135.855L448.312 132.872C447.362 132.329 446.684 131.109 446.82 130.024L449.533 104.799L456.451 108.732L453.467 135.855Z" fill="#FF1F41"/>
<path d="M456.451 108.867L449.533 104.799V89.0674L456.451 93.0003V108.867Z" fill="#EB1D3B"/>
<path d="M456.451 93L470.559 82.4219C470.559 83.3712 469.745 99.6453 469.066 103.307C468.931 103.985 464.997 105.477 464.59 107.511C463.64 113.478 462.012 124.192 461.334 129.481C461.063 131.38 459.842 133.007 458.078 133.821C456.044 134.77 453.602 135.855 453.466 135.855L456.451 108.732V93Z" fill="#FF405D"/>
<path d="M457.4 54.0779C459.028 53.9423 460.927 54.3491 462.961 55.4341C469.066 58.8245 474.221 67.504 474.221 74.5561C474.221 76.9972 473.678 79.0315 472.729 80.3876C471.508 82.1506 470.287 83.7781 469.066 85.5411C470.287 83.9137 470.829 81.6082 470.829 78.7602C470.694 70.352 464.861 60.3163 457.535 56.3834C455.229 55.0272 452.923 54.6204 451.024 54.756C453.194 54.4848 455.365 54.2135 457.4 54.0779Z" fill="#FF1F41"/>
<path d="M427.013 64.9272C427.42 64.7916 427.827 64.5204 428.234 64.3848C428.912 64.1135 429.997 63.5711 430.676 63.2998C431.354 63.0286 432.439 62.4861 433.117 62.2149C433.524 62.0793 433.931 61.808 434.338 61.6724C435.017 61.4012 436.102 60.8587 436.78 60.5875C437.458 60.3162 438.544 59.7738 439.222 59.5025C439.629 59.3669 440.036 59.0957 440.443 58.9601C441.121 58.6888 442.206 58.1464 442.884 57.8751C443.563 57.6039 444.648 57.0614 445.326 56.7902C445.733 56.6546 446.14 56.3834 446.547 56.2477C447.225 55.9765 448.311 55.434 448.989 55.1628C451.295 54.2135 454.144 54.4847 457.399 56.2477C464.589 60.3162 470.558 70.3519 470.693 78.6245C470.693 82.5574 469.472 85.4054 467.438 86.8972C460.248 92.1863 453.194 97.4753 446.004 102.764C448.446 101.001 449.803 97.7466 449.803 93.1356C449.667 83.3711 442.749 71.7081 434.338 67.0971C430.54 65.0628 427.149 64.656 424.571 65.8765C425.385 65.7409 426.335 65.1985 427.013 64.9272Z" fill="url(#paint4_linear_2394_13361)"/>
<path d="M466.625 81.7439C466.489 73.0644 460.385 62.4862 452.788 58.4177C450.211 56.9259 447.769 56.5191 445.734 56.7903C446.006 56.6547 446.413 56.5191 446.684 56.3835C447.362 56.1122 448.447 55.5698 449.126 55.2985C451.432 54.3492 454.28 54.6204 457.536 56.3835C464.726 60.452 470.694 70.4876 470.83 78.7603C470.83 82.6932 469.609 85.5411 467.574 87.0329C466.354 87.9823 464.997 88.9316 463.776 89.8809C465.54 88.1179 466.625 85.4055 466.625 81.7439Z" fill="url(#paint5_linear_2394_13361)"/>
<path d="M433.118 96.5262C433.254 102.493 429.048 105.07 423.893 102.222C418.739 99.3742 414.398 92.0508 414.398 86.0837C414.398 80.1165 418.467 77.5398 423.622 80.3878C428.777 83.2357 432.982 90.4234 433.118 96.5262Z" fill="#A2A5B8"/>
<path d="M416.974 79.8456C418.602 78.7607 421.044 78.8963 423.621 80.3881C428.776 83.236 433.117 90.5593 433.117 96.5265C433.117 99.6457 432.032 101.816 430.268 102.765C426.47 104.799 422.536 106.969 418.738 109.003C420.501 108.054 421.587 105.884 421.451 102.901C421.315 97.069 417.246 90.0169 412.227 87.1689C409.649 85.8127 407.479 85.6771 405.715 86.6265C409.514 84.4566 413.176 82.1511 416.974 79.8456Z" fill="url(#paint6_linear_2394_13361)"/>
<path d="M399.747 93.8136C399.882 93.6779 399.882 93.5423 400.018 93.5423C400.154 93.4067 400.425 93.1355 400.561 92.8642C400.696 92.593 400.968 92.4574 401.103 92.1862C401.239 92.0505 401.239 91.9149 401.374 91.9149C401.51 91.7793 401.781 91.5081 401.917 91.2368C402.053 91.1012 402.324 90.83 402.46 90.5587C402.595 90.4231 402.595 90.2875 402.731 90.2875C402.867 90.1519 403.138 89.8807 403.274 89.6094C403.409 89.4738 403.681 89.2026 403.816 88.9313C403.952 88.7957 403.952 88.6601 404.088 88.6601C404.223 88.3889 404.495 88.2533 404.63 87.982C406.258 85.9478 408.971 85.6765 412.227 87.4396C417.246 90.2875 421.451 97.204 421.451 103.171C421.451 106.968 419.823 109.41 417.246 109.816C414.397 110.223 411.548 110.766 408.7 111.173C410.599 110.901 411.955 109.138 411.82 106.155C411.82 101.815 408.7 96.5259 404.901 94.356C402.46 92.9999 400.425 93.2711 399.204 94.7629C399.34 94.356 399.611 94.0848 399.747 93.8136Z" fill="url(#paint7_linear_2394_13361)"/>
<path d="M411.955 105.884C411.955 110.224 408.971 112.122 405.172 109.952C401.374 107.782 398.254 102.629 398.254 98.1537C398.254 93.8139 401.238 91.9153 405.037 94.0852C408.699 96.255 411.819 101.544 411.955 105.884Z" fill="#DDDDE2"/>
<path d="M393.236 64.1137C395.949 64.6561 402.868 65.8767 405.716 67.6397C406.123 67.9109 406.53 68.1822 407.073 68.4534C411.685 71.1658 416.026 75.0986 419.824 79.574C424.979 85.6768 429.184 93.0001 432.033 100.459C434.068 106.019 435.289 111.715 435.424 117.14C435.424 117.411 435.424 117.682 435.424 117.818C435.424 121.48 435.017 124.735 434.068 127.582C434.204 127.447 431.762 129.752 431.897 129.617C431.897 129.617 431.897 132.058 432.033 132.058C432.711 130.566 447.769 101.408 448.311 100.188C449.261 98.4248 449.668 96.1193 449.668 93.5426C449.532 83.7781 442.614 72.1151 434.204 67.5041C432.033 66.2835 429.998 65.6055 428.099 65.6055C426.743 65.6055 395.271 64.1137 393.508 63.978C393.643 63.8424 393.372 63.9781 393.236 64.1137Z" fill="url(#paint8_linear_2394_13361)"/>
<path d="M405.851 67.5039C389.709 58.5532 376.822 66.419 376.957 85.1341C377.093 103.849 390.523 126.362 406.665 135.312C422.808 144.263 435.695 136.397 435.559 117.682C435.288 98.9671 421.994 76.4547 405.851 67.5039ZM433.66 116.733C433.932 134.228 421.723 141.686 406.665 133.278C391.472 124.87 379.128 103.849 378.856 86.2191C378.585 68.7245 390.794 61.2655 405.851 69.6738C420.909 78.0821 433.389 99.1027 433.66 116.733Z" fill="#DDDDE2"/>
<path d="M168.323 333.042C167.374 335.212 167.102 337.518 167.781 339.416C168.866 342.942 172.664 344.163 176.327 342.129L203.864 326.939C217.158 319.616 230.317 311.479 243.34 302.664L254.87 294.934C257.583 293.171 259.754 290.458 260.974 287.339C261.788 285.305 261.517 281.915 262.195 281.236C262.06 274.727 256.905 271.201 250.936 273.642L248.766 274.456C239.677 278.117 230.588 282.864 221.906 288.831C218.244 291.272 214.581 293.984 211.054 296.832L171.986 328.296C170.358 329.516 169.137 331.279 168.323 333.042Z" fill="#C3C4D7"/>
<path d="M199.659 285.441C203.457 282.457 207.255 279.609 211.189 276.897C220.414 270.658 230.045 265.505 239.676 261.708L241.847 260.894C246.595 258.995 251.071 259.402 254.327 261.436L261.381 265.912C258.125 263.877 253.649 263.471 248.901 265.369L246.73 266.183C237.099 269.98 227.468 275.134 218.243 281.372C214.309 283.949 210.511 286.797 206.713 289.916L167.645 321.379L160.591 316.904L199.659 285.441Z" fill="#FBFAFF"/>
<path d="M153.808 325.99C155.3 322.599 157.606 319.345 160.591 317.039L167.645 321.514C164.66 323.956 162.354 327.075 160.862 330.465C159.098 334.534 158.691 339.009 159.777 342.671C160.591 345.112 161.947 347.01 163.846 348.231L156.792 343.756C154.893 342.535 153.537 340.772 152.723 338.195C151.637 334.534 152.044 330.058 153.808 325.99Z" fill="url(#paint9_linear_2394_13361)"/>
<path d="M160.863 330.466C162.355 327.075 164.661 323.82 167.645 321.515L206.714 290.052C210.512 287.068 214.31 284.22 218.244 281.508C227.468 275.27 237.1 270.116 246.731 266.319L248.902 265.505C258.669 261.572 266.944 267.268 267.215 277.982C267.215 281.237 266.537 284.763 265.18 287.882C263.145 292.764 259.618 297.239 255.277 300.087L243.747 307.818C230.588 316.768 217.159 324.905 203.593 332.5L176.056 347.689C169.002 351.622 162.084 349.452 159.913 342.671C158.692 339.01 159.099 334.534 160.863 330.466ZM167.781 339.416C168.866 342.942 172.665 344.163 176.327 342.129L203.865 326.94C217.159 319.616 230.317 311.479 243.34 302.664L254.87 294.934C257.583 293.171 259.754 290.459 260.975 287.339C261.789 285.305 261.517 281.915 262.196 281.237C262.06 274.727 256.905 271.201 250.936 273.642L248.766 274.456C239.677 278.117 230.588 282.864 221.907 288.831C218.244 291.272 214.581 293.985 211.054 296.833L171.986 328.296C170.358 329.516 169.273 331.279 168.459 333.042C167.374 335.212 167.238 337.518 167.781 339.416Z" fill="url(#paint10_linear_2394_13361)"/>
<path d="M231.402 297.104C231.402 304.563 237.642 387.968 293.26 387.968C348.878 387.968 355.932 300.088 355.932 297.104C353.354 297.104 231.402 297.104 231.402 297.104Z" fill="url(#paint11_linear_2394_13361)"/>
<path d="M276.167 282.322C286.07 287.883 301.806 287.747 311.437 281.915C321.068 276.22 320.797 266.998 310.894 261.573C300.992 256.013 285.256 256.148 275.625 261.98C266.129 267.676 266.264 276.898 276.167 282.322Z" fill="#C0BACA"/>
<path d="M231.943 292.222C232.35 290.73 232.893 288.832 233.3 287.476C233.843 285.984 234.657 284.085 235.335 282.593C236.556 280.017 238.455 276.897 240.218 274.592C241.168 273.236 243.474 270.252 247.272 266.862C251.071 263.471 254.191 261.573 256.09 260.352C257.311 259.674 258.938 258.725 260.295 258.047C261.245 257.504 262.601 256.962 263.686 256.419C266.535 255.199 268.841 254.385 271.012 253.707C271.283 253.571 274.132 252.758 278.337 251.944C281.05 251.401 283.899 250.995 285.526 250.859C286.612 250.723 288.104 250.588 289.189 250.588C290.274 250.588 291.767 250.452 292.852 250.452C293.937 250.452 295.429 250.452 296.514 250.452C298.82 250.452 301.534 250.723 303.704 250.995C303.704 250.995 307.231 251.401 311.029 252.215C312.25 252.486 313.742 252.893 314.963 253.164C316.048 253.436 317.405 253.978 318.49 254.249C319.847 254.656 321.475 255.334 322.831 255.877C323.916 256.284 325.273 256.962 326.222 257.369C327.579 258.047 329.342 258.996 330.699 259.674C332.598 260.759 335.04 262.386 336.803 263.743C338.567 265.099 340.737 266.997 342.23 268.489C343.45 269.845 345.214 271.608 346.299 273.1C346.977 273.914 347.791 274.999 348.334 275.948C349.148 277.304 350.233 279.067 351.047 280.559C351.725 281.915 352.675 283.678 353.217 285.035C353.896 286.933 354.71 289.51 355.252 291.544C357.83 302.258 352.268 313.378 338.296 321.787C314.285 336.162 274.946 336.569 250.257 322.736C235.47 314.735 229.366 303.207 231.943 292.222ZM276.166 282.322C286.069 287.882 301.805 287.747 311.436 281.915C321.068 276.219 320.796 266.997 310.894 261.573C300.991 256.148 285.255 256.148 275.624 261.98C266.128 267.676 266.264 276.897 276.166 282.322Z" fill="url(#paint12_linear_2394_13361)"/>
<path d="M279.151 386.07C283.492 387.29 288.104 388.104 293.259 388.104C335.311 388.104 349.555 337.79 354.031 312.023C345.756 305.784 354.438 308.225 349.555 305.377C347.52 304.157 341.009 307.005 341.009 307.005C336.125 306.191 333.276 312.158 332.869 316.905C331.377 331.823 325.68 351.623 317.269 366.541C309.266 380.916 296.65 387.154 279.151 386.07Z" fill="#EBEBEB"/>
<path d="M248.713 274.422C248.635 260.041 268.796 248.274 293.744 248.139C318.692 248.003 338.98 259.552 339.058 273.932C339.136 288.313 318.975 300.08 294.027 300.216C269.079 300.351 248.791 288.803 248.713 274.422Z" fill="#D8D9EB"/>
<path d="M333.684 278.931C332.327 279.745 330.293 280.83 328.8 281.508C325.138 283.271 325.138 283.271 321.204 284.763C319.983 285.17 318.491 285.712 317.27 285.983C315.099 286.526 312.251 287.339 309.945 287.746C308.724 288.018 307.232 288.289 306.011 288.424C304.925 288.56 303.298 288.831 302.212 288.831C301.127 288.967 299.499 289.102 298.414 289.102C297.329 289.102 295.701 289.238 294.616 289.238C293.531 289.238 291.903 289.238 290.818 289.238C289.597 289.238 288.104 289.102 286.884 288.967C284.578 288.696 281.593 288.424 279.287 288.018C278.066 287.882 276.438 287.475 275.217 287.204C274.132 286.933 272.64 286.526 271.555 286.255C270.198 285.848 268.57 285.305 267.214 284.898C265.722 284.356 263.687 283.542 262.195 283C260.16 282.186 257.583 280.83 255.683 279.881C254.056 278.931 252.021 277.711 250.393 276.626C249.308 275.948 247.951 274.863 247.002 274.049C245.509 272.828 243.746 271.201 242.389 269.98C245.102 272.693 248.494 275.134 252.563 277.439C276.167 290.594 313.743 290.187 336.397 276.626C339.653 274.727 342.366 272.557 344.672 270.252C343.587 271.337 342.094 272.693 340.874 273.642C340.331 274.049 339.517 274.727 338.974 275.134C337.618 276.354 335.447 277.846 333.684 278.931Z" fill="url(#paint13_linear_2394_13361)"/>
<path d="M287.019 289.103C255.683 289.103 223.126 258.047 223.126 236.89C223.126 229.296 223.669 216.955 227.331 204.478C233.978 182.101 358.508 193.222 361.085 209.089C361.628 213.022 361.764 215.734 362.035 216.683C362.849 221.43 367.868 248.147 348.605 266.726C329.343 285.17 310.758 289.103 287.019 289.103Z" fill="url(#paint14_linear_2394_13361)"/>
<path d="M226.518 207.597C226.925 205.969 227.468 203.935 228.01 202.443C228.553 200.816 229.502 198.646 230.181 197.154C231.537 194.442 233.572 190.916 235.471 188.339C236.556 186.983 238.998 183.593 243.203 179.931C247.273 176.269 250.8 174.099 252.835 172.879C254.191 172.065 255.955 171.116 257.311 170.438C258.397 169.895 259.889 169.217 260.974 168.675C264.094 167.318 266.536 166.505 268.977 165.691C269.249 165.555 272.369 164.606 276.981 163.792C279.965 163.25 283.085 162.843 284.849 162.572C286.07 162.436 287.562 162.301 288.783 162.301C290.004 162.301 291.496 162.165 292.717 162.165C293.938 162.165 295.43 162.165 296.651 162.165C299.092 162.165 302.077 162.572 304.519 162.843C304.519 162.843 308.453 163.25 312.522 164.199C313.879 164.471 315.507 164.877 316.863 165.284C318.084 165.555 319.576 166.098 320.661 166.505C322.154 166.912 323.917 167.725 325.274 168.268C326.359 168.675 327.851 169.488 328.936 169.895C330.428 170.573 332.328 171.658 333.684 172.472C335.719 173.693 338.432 175.456 340.331 176.947C342.23 178.439 344.672 180.473 346.3 182.101C347.656 183.457 349.555 185.491 350.641 187.119C351.319 188.068 352.269 189.288 352.947 190.238C353.896 191.73 355.117 193.628 355.931 195.256C356.745 196.612 357.695 198.646 358.237 200.138C359.051 202.172 359.865 205.02 360.543 207.19C363.392 218.853 357.288 231.059 342.095 240.145C316.049 255.741 273.047 256.148 246.188 241.094C230.316 232.143 223.669 219.667 226.518 207.597Z" fill="url(#paint15_linear_2394_13361)"/>
<path d="M224.077 230.38C223.941 234.72 224.077 237.297 224.755 239.874C227.197 248.146 233.844 255.741 245.103 261.979C264.23 272.557 290.954 275.812 314.557 271.744C321.883 270.116 324.731 269.438 328.258 237.975C328.801 229.16 325.681 228.482 322.968 228.889C300.042 235.941 271.013 234.042 251.207 223.057C238.32 215.869 231.944 206.24 232.216 196.612C232.216 196.476 232.216 196.205 232.216 195.934C231.809 196.205 231.538 196.34 231.131 196.747C231.131 196.747 225.162 208.275 224.077 230.38Z" fill="#2D2F40"/>
<path d="M283.763 242.993C289.189 243.264 293.666 249.232 293.666 256.148C293.666 257.369 293.53 258.589 293.259 259.674C290.41 258.589 287.155 257.911 283.763 257.775C280.372 257.64 277.116 257.911 274.268 258.725C273.996 257.64 273.861 256.419 273.861 255.199C273.861 248.147 278.337 242.722 283.763 242.993Z" fill="#00BBFF"/>
<path d="M244.966 229.431C248.628 232.279 250.527 239.738 249.171 246.112C248.9 247.197 248.628 248.146 248.221 249.096C246.458 246.79 244.423 244.62 242.117 242.722C239.811 240.959 237.64 239.738 235.47 239.06C235.47 237.975 235.606 236.755 235.877 235.67C237.369 229.431 241.303 226.583 244.966 229.431Z" fill="#00BBFF"/>
<path d="M374.516 245.027C373.431 246.383 372.752 247.875 372.21 249.231L364.342 275.134C360.544 287.61 357.424 299.951 354.846 311.886L352.676 322.464C351.862 326.532 353.897 328.838 357.695 327.889C361.358 327.075 365.563 323.82 368.547 319.887C369.632 318.395 370.582 316.768 371.26 315.276L372.074 313.242C375.737 304.427 378.45 295.883 380.078 287.882C380.756 284.491 381.299 281.236 381.705 277.982L385.504 242.721C385.775 239.602 383.469 238.517 379.942 240.28C378.043 241.229 376.008 242.992 374.516 245.027Z" fill="url(#paint16_linear_2394_13361)"/>
<path d="M336.939 316.632L339.109 306.054C341.687 293.848 344.807 281.507 348.741 268.759L356.609 242.856L364.477 250.044L356.609 275.947C352.81 288.695 349.555 301.172 346.977 313.242L344.807 323.82C344.129 327.346 344.671 330.058 346.299 331.55L338.431 324.362C336.803 322.871 336.261 320.158 336.939 316.632Z" fill="#D8D8E8"/>
<path d="M360.814 234.855C363.798 230.922 367.732 227.396 371.666 225.498C375.736 223.464 378.992 223.464 380.755 225.091L388.623 232.279C386.86 230.651 383.604 230.651 379.534 232.686C375.6 234.72 371.666 238.11 368.682 242.043C366.783 244.62 365.155 247.468 364.341 250.044L356.473 242.857C357.423 240.144 358.915 237.432 360.814 234.855Z" fill="url(#paint17_linear_2394_13361)"/>
<path d="M344.808 323.82L346.978 313.242C349.555 301.036 352.675 288.695 356.609 275.947L364.477 250.044C365.291 247.468 366.783 244.62 368.818 242.043C371.803 238.11 375.737 234.584 379.67 232.685C386.317 229.431 390.794 231.465 390.116 237.296L386.317 272.557C385.911 275.947 385.368 279.473 384.69 282.999C382.926 291.543 380.077 300.494 376.144 309.852L375.33 311.886C374.244 314.463 372.752 317.039 370.853 319.48C365.97 325.854 359.051 331.279 353.218 332.635C346.842 334.127 343.451 330.601 344.808 323.82ZM357.83 327.889C361.493 327.075 365.698 323.82 368.683 319.887C369.768 318.395 370.717 316.768 371.396 315.276L372.21 313.242C375.872 304.427 378.585 295.883 380.213 287.882C380.891 284.491 381.434 281.236 381.841 277.982L385.639 242.721C385.911 239.602 383.604 238.517 380.077 240.28C378.043 241.365 375.872 243.128 374.38 245.162C373.295 246.518 372.617 248.01 372.074 249.366L364.206 275.269C360.408 287.746 357.288 300.087 354.71 312.021L352.54 322.6C351.862 326.533 353.896 328.838 357.83 327.889Z" fill="url(#paint18_linear_2394_13361)"/>
<path d="M224.077 230.38C223.941 234.72 224.077 237.297 224.755 239.874C227.197 248.146 233.844 255.741 245.103 261.979C264.23 272.557 290.954 275.812 314.557 271.744C321.883 270.116 324.731 269.438 328.258 237.975C328.801 229.16 325.681 228.482 322.968 228.889C300.042 235.941 271.013 234.042 251.207 223.057C238.32 215.869 231.944 206.24 232.216 196.612C232.216 196.476 232.216 196.205 232.216 195.934C231.809 196.205 231.538 196.34 231.131 196.747C231.131 196.747 225.162 208.275 224.077 230.38Z" fill="#2D2F40"/>
<path d="M262.06 262.115C263.417 262.115 264.366 261.979 264.502 261.979L263.959 258.996C263.824 258.996 256.634 260.081 253.243 255.334L250.801 257.097C253.921 261.437 259.076 262.115 262.06 262.115Z" fill="#00BBFF"/>
<path d="M282.68 260.487H283.629C285.664 260.487 287.563 259.673 289.055 258.182C290.683 256.554 291.633 254.249 291.633 251.943V249.366C291.633 244.756 288.241 241.094 284.036 240.823H283.222C281.188 240.687 279.288 241.365 277.661 242.857C276.033 244.349 274.947 246.654 274.947 248.96L274.812 251.672C274.676 254.113 275.626 256.419 277.254 258.182C278.746 259.673 280.645 260.487 282.68 260.487ZM282.68 245.027H282.815H283.629C285.664 245.162 287.156 247.061 287.292 249.366V251.943C287.292 253.164 286.885 254.384 285.935 255.198C285.528 255.605 284.714 256.283 283.494 256.283H282.544C281.594 256.283 280.781 255.876 280.102 255.198C279.288 254.384 278.746 253.028 278.881 251.808L279.017 249.095C279.017 247.875 279.56 246.79 280.374 245.976C281.052 245.298 281.866 245.027 282.68 245.027Z" fill="#00BBFF"/>
<path d="M242.525 246.112C243.203 246.112 244.017 245.976 244.696 245.569C246.595 244.62 248.087 242.45 248.494 239.738L249.037 237.161C249.85 232.821 248.223 228.346 245.374 226.583L244.831 226.176C243.339 225.362 241.847 225.227 240.355 225.905C238.456 226.719 236.963 228.753 236.421 231.465L235.878 234.178C234.929 238.788 236.692 243.671 239.812 245.298L240.49 245.569C240.897 245.976 241.711 246.112 242.525 246.112ZM242.118 229.702C242.254 229.702 242.39 229.702 242.525 229.838L243.068 230.245C244.289 230.923 245.238 233.771 244.696 236.483L244.153 239.06C243.882 240.687 243.203 241.636 242.525 241.908C242.39 242.043 242.118 242.043 241.983 241.908L241.304 241.636C239.948 240.958 238.998 237.975 239.541 235.127L240.083 232.414C240.355 230.923 241.033 229.973 241.576 229.838C241.983 229.702 241.983 229.702 242.118 229.702Z" fill="#00BBFF"/>
<path d="M299.227 233.906C304.789 233.635 310.215 232.957 315.506 231.736C312.793 241.501 311.165 258.453 311.572 271.065C306.146 271.879 300.72 272.286 295.158 272.286C295.565 261.708 296.107 243.806 299.227 233.906Z" fill="#393C52"/>
<path d="M548.287 234.855L551 233.364L463.504 182.914L460.791 184.406L548.287 234.855Z" fill="#2E3344"/>
<path d="M548.151 300.087L550.864 298.595L551 233.363L548.287 234.855L548.151 300.087Z" fill="#404040"/>
<path d="M548.287 234.855L551 233.364V221.972L548.287 223.463V234.855Z" fill="#2AC1F7"/>
<path d="M548.287 223.464L551 221.972L463.504 171.387L460.791 173.014L548.287 223.464Z" fill="#73D8FF"/>
<path d="M460.791 173.014V184.405L548.287 234.855V223.463L460.791 173.014Z" fill="#45CEFF"/>
<path d="M460.655 249.638L460.791 184.406L548.287 234.856L548.151 300.088L460.655 249.638Z" fill="#545454"/>
<path d="M532.824 262.25L531.061 263.335C531.332 263.2 531.739 263.2 532.281 263.471L534.045 262.386C533.502 262.115 533.095 262.115 532.824 262.25Z" fill="#CBD2DE"/>
<path d="M539.471 271.743L541.235 270.658C541.506 270.523 541.777 270.116 541.777 269.573L540.014 270.658C539.878 271.201 539.743 271.608 539.471 271.743Z" fill="#CBD2DE"/>
<path d="M539.878 270.658L541.777 269.709V268.76L539.878 269.845V270.658Z" fill="#CBD2DE"/>
<path d="M538.251 266.997L540.15 265.912L533.91 262.386L532.147 263.471L538.251 266.997Z" fill="#CBD2DE"/>
<path d="M539.879 269.845L541.643 268.76C541.643 267.675 540.964 266.455 540.015 265.912L538.251 266.997C539.201 267.54 539.879 268.76 539.879 269.845Z" fill="#CBD2DE"/>
<path d="M532.147 263.471C531.197 262.928 530.519 263.335 530.519 264.42V265.234C530.519 266.319 531.197 267.539 532.147 268.082L538.251 271.608C539.201 272.15 539.879 271.743 539.879 270.658V269.845C539.879 268.76 539.201 267.539 538.251 266.997L532.147 263.471Z" fill="white"/>
<path d="M524.277 257.368L522.514 258.453C522.785 258.318 523.192 258.318 523.735 258.589L525.498 257.504C524.955 257.233 524.548 257.233 524.277 257.368Z" fill="#FF1F41"/>
<path d="M526.991 264.557L528.754 263.472C529.026 263.336 529.297 262.929 529.297 262.387L527.533 263.472C527.398 264.014 527.262 264.421 526.991 264.557Z" fill="#FF1F41"/>
<path d="M527.398 263.471L529.297 262.386V261.572L527.398 262.657V263.471Z" fill="#FF1F41"/>
<path d="M525.771 259.809L527.67 258.724L525.499 257.504L523.6 258.589L525.771 259.809Z" fill="#FF1F41"/>
<path d="M527.399 262.657L529.162 261.573C529.162 260.488 528.484 259.267 527.534 258.725L525.771 259.81C526.72 260.352 527.399 261.573 527.399 262.657Z" fill="#FF1F41"/>
<path d="M523.6 258.589C522.651 258.046 521.972 258.453 521.972 259.538V260.352C521.972 261.437 522.651 262.657 523.6 263.2L525.771 264.42C526.72 264.963 527.398 264.556 527.398 263.471V262.657C527.398 261.572 526.72 260.352 525.771 259.809L523.6 258.589Z" fill="#FF5F76"/>
<path d="M527.805 249.909L526.041 250.994C526.312 250.859 526.719 250.859 527.262 251.13L529.025 250.045C528.483 249.774 528.076 249.774 527.805 249.909Z" fill="#FF8400"/>
<path d="M539.471 262.251L541.235 261.166C541.506 261.03 541.777 260.624 541.777 260.081L540.014 261.166C540.014 261.708 539.743 262.115 539.471 262.251Z" fill="#FF8400"/>
<path d="M540.014 261.165L541.777 260.216V259.402L540.014 260.352V261.165Z" fill="#FF8400"/>
<path d="M538.387 257.504L540.15 256.555L529.027 250.045L527.128 251.13L538.387 257.504Z" fill="#FF8400"/>
<path d="M540.014 260.352L541.777 259.267C541.777 258.182 541.099 256.961 540.15 256.419L538.386 257.504C539.2 258.046 540.014 259.403 540.014 260.352Z" fill="#FF8400"/>
<path d="M527.128 251.13C526.178 250.587 525.5 250.994 525.5 252.079V252.893C525.5 253.978 526.178 255.198 527.128 255.741L538.251 262.115C539.201 262.657 539.879 262.25 539.879 261.166V260.352C539.879 259.267 539.201 258.046 538.251 257.504L527.128 251.13Z" fill="#FFB30F"/>
<path d="M532.824 243.4L531.061 244.485C531.332 244.349 531.739 244.349 532.281 244.62L534.045 243.535C533.502 243.264 533.095 243.129 532.824 243.4Z" fill="#FF8400"/>
<path d="M539.471 252.758L541.235 251.673C541.506 251.537 541.777 251.13 541.777 250.588L540.014 251.673C540.014 252.215 539.743 252.622 539.471 252.758Z" fill="#FF8400"/>
<path d="M540.014 251.808L541.777 250.723V249.909L540.014 250.858V251.808Z" fill="#FF8400"/>
<path d="M538.387 248.01L540.15 247.061L534.046 243.399L532.147 244.484L538.387 248.01Z" fill="#FF8400"/>
<path d="M540.014 250.859L541.777 249.774C541.777 248.689 541.099 247.468 540.15 246.926L538.386 248.011C539.2 248.553 540.014 249.909 540.014 250.859Z" fill="#FF8400"/>
<path d="M532.147 244.484C531.197 243.942 530.519 244.349 530.519 245.434V246.247C530.519 247.332 531.197 248.553 532.147 249.095L538.251 252.621C539.201 253.164 539.879 252.757 539.879 251.672V250.858C539.879 249.773 539.201 248.553 538.251 248.01L532.147 244.484Z" fill="#FFB30F"/>
<path d="M514.783 242.45L513.02 243.535C513.291 243.4 513.698 243.4 514.24 243.671L516.004 242.586C515.597 242.315 515.19 242.315 514.783 242.45Z" fill="#CBD2DE"/>
<path d="M521.565 251.943L523.328 250.858C523.6 250.723 523.871 250.316 523.871 249.773L522.108 250.858C521.972 251.401 521.836 251.672 521.565 251.943Z" fill="#CBD2DE"/>
<path d="M521.972 250.859L523.871 249.774V248.96L521.972 250.045V250.859Z" fill="#CBD2DE"/>
<path d="M520.344 247.197L522.107 246.112L516.003 242.586L514.24 243.671L520.344 247.197Z" fill="#CBD2DE"/>
<path d="M521.972 250.045L523.871 248.96C523.871 247.875 523.193 246.655 522.243 246.112L520.48 247.197C521.294 247.74 521.972 248.96 521.972 250.045Z" fill="#CBD2DE"/>
<path d="M514.24 243.671C513.291 243.128 512.613 243.535 512.613 244.62V245.434C512.613 246.519 513.291 247.739 514.24 248.282L520.345 251.808C521.294 252.35 521.973 251.944 521.973 250.859V250.045C521.973 248.96 521.294 247.739 520.345 247.197L514.24 243.671Z" fill="white"/>
<path d="M471.779 208.139L470.016 209.224C470.287 209.088 470.694 209.088 471.237 209.36L473 208.275C472.457 208.003 472.05 207.868 471.779 208.139Z" fill="#FF8400"/>
<path d="M478.426 217.497L480.19 216.412C480.461 216.276 480.732 215.87 480.732 215.327L478.969 216.412C478.969 216.955 478.698 217.361 478.426 217.497Z" fill="#FF8400"/>
<path d="M478.969 216.547L480.732 215.462V214.648L478.969 215.598V216.547Z" fill="#FF8400"/>
<path d="M477.206 212.75L479.105 211.8L472.865 208.139L471.102 209.224L477.206 212.75Z" fill="#FF8400"/>
<path d="M478.969 215.598L480.732 214.513C480.732 213.428 480.054 212.208 479.105 211.665L477.341 212.75C478.155 213.292 478.969 214.649 478.969 215.598Z" fill="#FF8400"/>
<path d="M471.102 209.224C470.152 208.681 469.474 209.088 469.474 210.173V210.987C469.474 212.072 470.152 213.292 471.102 213.835L477.206 217.361C478.156 217.903 478.834 217.496 478.834 216.411V215.598C478.834 214.513 478.156 213.292 477.206 212.75L471.102 209.224Z" fill="#FFB30F"/>
<path d="M514.917 232.957L513.018 234.042C513.289 233.907 513.696 233.907 514.238 234.178L516.002 233.093C515.595 232.822 515.188 232.822 514.917 232.957Z" fill="#FF8400"/>
<path d="M526.448 245.299L528.211 244.214C528.483 244.078 528.754 243.671 528.754 243.129L526.99 244.214C526.99 244.756 526.855 245.163 526.448 245.299Z" fill="#FF8400"/>
<path d="M526.99 244.213L528.754 243.128V242.314L526.99 243.399V244.213Z" fill="#FF8400"/>
<path d="M525.363 240.552L527.127 239.467L516.003 233.093L514.24 234.178L525.363 240.552Z" fill="#FF8400"/>
<path d="M526.99 243.4L528.754 242.315C528.754 241.23 528.076 240.009 527.126 239.467L525.363 240.552C526.312 241.094 526.99 242.315 526.99 243.4Z" fill="#FF8400"/>
<path d="M514.239 234.178C513.289 233.635 512.611 234.042 512.611 235.127V235.941C512.611 237.026 513.289 238.246 514.239 238.789L525.362 245.163C526.312 245.705 526.99 245.298 526.99 244.213V243.4C526.99 242.315 526.312 241.094 525.362 240.552L514.239 234.178Z" fill="#FFB30F"/>
<path d="M537.164 236.348L535.4 237.433C535.672 237.297 536.079 237.297 536.621 237.568L538.385 236.483C537.842 236.212 537.435 236.212 537.164 236.348Z" fill="#FF1F41"/>
<path d="M539.606 243.265L541.369 242.18C541.641 242.044 541.912 241.637 541.912 241.095L540.149 242.18C540.013 242.722 539.877 243.129 539.606 243.265Z" fill="#FF1F41"/>
<path d="M540.014 242.315L541.777 241.23V240.416L540.014 241.501V242.315Z" fill="#FF1F41"/>
<path d="M538.385 238.653L540.148 237.568L538.249 236.483L536.486 237.568L538.385 238.653Z" fill="#FF1F41"/>
<path d="M540.014 241.501L541.777 240.416C541.777 239.331 541.099 238.111 540.15 237.568L538.386 238.653C539.336 239.06 540.014 240.416 540.014 241.501Z" fill="#FF1F41"/>
<path d="M536.487 237.568C535.537 237.026 534.859 237.433 534.859 238.518V239.331C534.859 240.416 535.537 241.637 536.487 242.179L538.386 243.264C539.335 243.807 540.014 243.4 540.014 242.315V241.501C540.014 240.416 539.335 239.196 538.386 238.653L536.487 237.568Z" fill="#FF5F76"/>
<path d="M497.146 232.279L495.383 233.364C495.654 233.228 496.061 233.228 496.604 233.499L498.367 232.414C497.825 232.008 497.418 232.008 497.146 232.279Z" fill="#CBD2DE"/>
<path d="M508.542 244.349L510.305 243.264C510.576 243.128 510.848 242.721 510.848 242.179L509.084 243.264C508.949 243.806 508.813 244.213 508.542 244.349Z" fill="#CBD2DE"/>
<path d="M508.949 243.4L510.848 242.315V241.501L508.949 242.586V243.4Z" fill="#CBD2DE"/>
<path d="M507.322 239.738L509.221 238.653L498.233 232.279L496.469 233.364L507.322 239.738Z" fill="#CBD2DE"/>
<path d="M508.949 242.586L510.713 241.501C510.713 240.416 510.035 239.196 509.085 238.653L507.322 239.738C508.271 240.145 508.949 241.501 508.949 242.586Z" fill="#CBD2DE"/>
<path d="M496.469 233.364C495.52 232.822 494.841 233.229 494.841 234.314V235.127C494.841 236.212 495.52 237.433 496.469 237.975L507.321 244.214C508.271 244.756 508.949 244.349 508.949 243.264V242.451C508.949 241.366 508.271 240.145 507.321 239.603L496.469 233.364Z" fill="white"/>
<path d="M484.666 215.598L482.902 216.683C483.174 216.547 483.581 216.547 484.123 216.818L485.887 215.733C485.48 215.462 485.073 215.462 484.666 215.598Z" fill="#CBD2DE"/>
<path d="M508.542 234.991L510.305 233.906C510.576 233.771 510.848 233.364 510.848 232.821L509.084 233.906C509.084 234.449 508.813 234.72 508.542 234.991Z" fill="#CBD2DE"/>
<path d="M509.084 233.906L510.848 232.822V232.008L509.084 233.093V233.906Z" fill="#CBD2DE"/>
<path d="M507.457 230.244L509.221 229.159L485.888 215.733L484.125 216.683L507.457 230.244Z" fill="#CBD2DE"/>
<path d="M509.084 233.092L510.848 232.007C510.848 230.922 510.169 229.702 509.22 229.159L507.456 230.244C508.27 230.787 509.084 232.007 509.084 233.092Z" fill="#CBD2DE"/>
<path d="M484.124 216.683C483.174 216.14 482.496 216.547 482.496 217.632V218.446C482.496 219.531 483.174 220.751 484.124 221.294L507.456 234.72C508.406 235.262 509.084 234.855 509.084 233.77V232.957C509.084 231.872 508.406 230.651 507.456 230.109L484.124 216.683Z" fill="white"/>
<path d="M467.573 254.519L469.607 253.299L466.759 254.519L464.724 255.74L467.573 254.519Z" fill="#CBD2DE"/>
<path d="M480.597 275.54L482.631 274.32L483.445 270.522L481.411 271.743L480.597 275.54Z" fill="#CBD2DE"/>
<path d="M482.36 264.691L484.395 263.47C483.309 264.013 481.953 264.013 480.325 263.063L478.29 264.284C479.918 265.233 481.41 265.369 482.36 264.691Z" fill="#CBD2DE"/>
<path d="M482.36 264.691L484.395 263.47C483.309 264.013 481.953 264.013 480.325 263.063L478.29 264.284C479.918 265.233 481.41 265.369 482.36 264.691Z" fill="#CBD2DE"/>
<path d="M476.39 249.773L474.355 250.994C473.406 251.536 472.728 252.757 472.728 254.52C472.728 258.046 475.169 262.521 478.289 264.284L480.324 263.064C477.204 261.165 474.627 256.826 474.762 253.299C474.762 251.536 475.441 250.316 476.39 249.773Z" fill="#CBD2DE"/>
<path d="M478.289 264.284L480.324 263.064C477.204 261.165 474.627 256.826 474.762 253.299C474.762 251.536 475.441 250.316 476.39 249.773L474.355 250.994C473.406 251.536 472.728 252.757 472.728 254.52C472.728 258.046 475.169 262.521 478.289 264.284Z" fill="#CBD2DE"/>
<path d="M470.83 244.213L473 242.992L469.337 239.602L467.303 240.822L470.83 244.213Z" fill="#CBD2DE"/>
<path d="M475.305 243.941L477.34 242.721C475.712 242.314 474.084 242.45 472.863 242.992L470.828 244.213C472.185 243.67 473.677 243.535 475.305 243.941Z" fill="#CBD2DE"/>
<path d="M475.305 243.941L477.34 242.721C475.712 242.314 474.084 242.45 472.863 242.992L470.828 244.213C472.185 243.67 473.677 243.535 475.305 243.941Z" fill="#CBD2DE"/>
<path d="M489.414 274.862L491.449 273.642C492.398 272.828 493.348 271.743 493.891 270.387L491.856 271.607C491.313 272.963 490.499 274.048 489.414 274.862Z" fill="#CBD2DE"/>
<path d="M489.414 274.862L491.449 273.642C492.398 272.828 493.348 271.743 493.891 270.387L491.856 271.607C491.313 272.963 490.499 274.048 489.414 274.862Z" fill="#CBD2DE"/>
<path d="M491.856 271.608L493.891 270.387L491.178 265.912L489.143 266.997L491.856 271.608Z" fill="#CBD2DE"/>
<path d="M489.141 266.996L491.176 265.776C491.312 264.962 491.447 264.013 491.447 263.064C491.447 262.114 491.312 261.029 491.176 259.944L489.141 261.165C489.277 262.25 489.412 263.199 489.412 264.284C489.412 265.233 489.277 266.183 489.141 266.996Z" fill="#CBD2DE"/>
<path d="M489.141 266.996L491.176 265.776C491.312 264.962 491.447 264.013 491.447 263.064C491.447 262.114 491.312 261.029 491.176 259.944L489.141 261.165C489.277 262.25 489.412 263.199 489.412 264.284C489.412 265.233 489.277 266.183 489.141 266.996Z" fill="#CBD2DE"/>
<path d="M486.022 253.028L488.057 251.807C486.836 249.773 485.344 247.874 483.716 246.247L481.681 247.468C483.309 249.095 484.801 250.994 486.022 253.028Z" fill="#CBD2DE"/>
<path d="M486.022 253.028L488.057 251.807C486.836 249.773 485.344 247.874 483.716 246.247L481.681 247.468C483.309 249.095 484.801 250.994 486.022 253.028Z" fill="#CBD2DE"/>
<path d="M480.868 242.857L482.902 241.636C482.088 241.094 481.275 240.551 480.596 240.009C480.596 240.009 480.596 240.009 480.461 240.009C479.647 239.602 478.968 239.195 478.154 238.924L476.12 240.144C476.798 240.416 477.612 240.822 478.426 241.229C478.426 241.229 478.426 241.229 478.561 241.229C479.375 241.772 480.189 242.314 480.868 242.857Z" fill="#CBD2DE"/>
<path d="M480.868 242.857L482.902 241.636C482.088 241.094 481.275 240.551 480.596 240.009C480.596 240.009 480.596 240.009 480.461 240.009C479.647 239.602 478.968 239.195 478.154 238.924L476.12 240.144C476.798 240.416 477.612 240.822 478.426 241.229C478.426 241.229 478.426 241.229 478.561 241.229C479.375 241.772 480.189 242.314 480.868 242.857Z" fill="#CBD2DE"/>
<path d="M481.68 247.603L483.715 246.382L482.901 241.636L480.866 242.856L481.68 247.603Z" fill="#CBD2DE"/>
<path d="M489.684 253.842L491.719 252.621L488.056 251.943L486.021 253.028L489.684 253.842Z" fill="#CBD2DE"/>
<path d="M491.991 259.944L494.025 258.724C493.483 256.69 492.669 254.655 491.719 252.621L489.684 253.842C490.634 255.876 491.448 257.91 491.991 259.944Z" fill="#CBD2DE"/>
<path d="M491.991 259.944L494.025 258.724C493.483 256.69 492.669 254.655 491.719 252.621L489.684 253.842C490.634 255.876 491.448 257.91 491.991 259.944Z" fill="#CBD2DE"/>
<path d="M467.572 254.52L464.724 255.741C465.266 257.775 466.08 259.809 467.03 261.843L470.693 262.657C471.913 264.691 473.406 266.59 475.033 268.217L475.712 272.964C476.526 273.506 477.34 274.049 478.018 274.591C478.018 274.591 478.153 274.591 478.153 274.727C478.967 275.134 479.646 275.541 480.46 275.812L481.273 272.015C482.901 272.422 484.529 272.286 485.75 271.743L489.277 275.134C490.227 274.32 491.176 273.235 491.719 271.879L488.87 267.268C489.006 266.454 489.141 265.505 489.141 264.556C489.141 263.606 489.006 262.521 488.87 261.437L491.719 260.216C491.176 258.182 490.362 256.147 489.413 254.113L485.75 253.299C484.529 251.265 483.037 249.367 481.409 247.739L480.731 242.993C479.917 242.45 479.103 241.908 478.425 241.365C478.425 241.365 478.425 241.365 478.289 241.365C477.475 240.958 476.797 240.552 475.983 240.28L475.169 244.078C473.541 243.671 471.913 243.806 470.693 244.349L467.166 240.958C466.216 241.772 465.266 242.857 464.724 244.213L467.572 248.824C467.437 249.638 467.301 250.587 467.301 251.536C467.301 252.35 467.437 253.435 467.572 254.52ZM478.289 264.284C475.169 262.386 472.592 258.046 472.727 254.52C472.727 250.994 475.305 249.502 478.425 251.265C481.545 253.164 484.122 257.504 483.987 261.03C483.987 264.691 481.409 266.183 478.289 264.284Z" fill="white"/>
<path d="M494.569 259.944L496.604 258.724L494.84 259.537L492.805 260.758L494.569 259.944Z" fill="#CBD2DE"/>
<path d="M502.708 273.235L504.743 272.15L505.285 269.709L503.25 270.93L502.708 273.235Z" fill="#CBD2DE"/>
<path d="M503.114 264.963L504.742 264.014C504.335 264.285 503.657 264.285 502.979 263.878L501.351 264.827C502.029 265.234 502.707 265.234 503.114 264.963Z" fill="#CBD2DE"/>
<path d="M503.114 264.963L504.742 264.014C504.335 264.285 503.657 264.285 502.979 263.878L501.351 264.827C502.029 265.234 502.707 265.234 503.114 264.963Z" fill="#CBD2DE"/>
<path d="M501.35 258.046L499.722 258.995C499.315 259.266 499.044 259.809 499.044 260.487C499.044 261.979 500.129 263.877 501.485 264.691L503.113 263.742C501.757 262.928 500.672 261.029 500.672 259.538C500.536 258.86 500.807 258.317 501.35 258.046Z" fill="#CBD2DE"/>
<path d="M501.351 264.827L502.979 263.878C501.622 263.064 500.537 261.165 500.537 259.673C500.537 258.86 500.808 258.453 501.215 258.182L499.587 259.131C499.18 259.402 498.909 259.945 498.909 260.623C498.909 262.115 499.994 264.013 501.351 264.827Z" fill="#CBD2DE"/>
<path d="M496.602 253.435L498.637 252.35L496.331 250.045L494.296 251.265L496.602 253.435Z" fill="#CBD2DE"/>
<path d="M499.452 253.299L501.486 252.079C500.401 251.807 499.452 251.943 498.638 252.35L496.603 253.57C497.417 253.028 498.366 253.028 499.452 253.299Z" fill="#CBD2DE"/>
<path d="M499.452 253.299L501.486 252.079C500.401 251.807 499.452 251.943 498.638 252.35L496.603 253.57C497.417 253.028 498.366 253.028 499.452 253.299Z" fill="#CBD2DE"/>
<path d="M508.405 272.828L510.439 271.607C511.118 271.065 511.66 270.387 511.932 269.573L509.897 270.794C509.49 271.608 508.947 272.421 508.405 272.828Z" fill="#CBD2DE"/>
<path d="M508.405 272.828L510.439 271.607C511.118 271.065 511.66 270.387 511.932 269.573L509.897 270.794C509.49 271.608 508.947 272.421 508.405 272.828Z" fill="#CBD2DE"/>
<path d="M509.897 270.794L511.932 269.574L510.168 266.726L508.133 267.946L509.897 270.794Z" fill="#CBD2DE"/>
<path d="M508.133 267.946L510.168 266.725C510.304 266.183 510.304 265.64 510.439 264.962C510.439 264.284 510.439 263.606 510.304 263.063L508.269 264.284C508.405 264.962 508.405 265.64 508.405 266.183C508.269 266.861 508.269 267.403 508.133 267.946Z" fill="#CBD2DE"/>
<path d="M508.133 267.946L510.168 266.725C510.304 266.183 510.304 265.64 510.439 264.962C510.439 264.284 510.439 263.606 510.304 263.063L508.269 264.284C508.405 264.962 508.405 265.64 508.405 266.183C508.269 266.861 508.269 267.403 508.133 267.946Z" fill="#CBD2DE"/>
<path d="M506.235 259.131L508.27 257.911C507.456 256.555 506.506 255.47 505.556 254.385L503.522 255.605C504.471 256.555 505.421 257.775 506.235 259.131Z" fill="#CBD2DE"/>
<path d="M506.235 259.131L508.27 257.911C507.456 256.555 506.506 255.47 505.556 254.385L503.522 255.605C504.471 256.555 505.421 257.775 506.235 259.131Z" fill="#CBD2DE"/>
<path d="M502.979 252.621L505.014 251.401C504.471 250.994 504.064 250.723 503.521 250.316C502.979 250.045 502.572 249.773 502.029 249.638L499.995 250.858C500.401 250.994 500.944 251.265 501.487 251.536C501.894 251.943 502.436 252.214 502.979 252.621Z" fill="#CBD2DE"/>
<path d="M502.979 252.621L505.014 251.401C504.471 250.994 504.064 250.723 503.521 250.316C502.979 250.045 502.572 249.773 502.029 249.638L499.995 250.858C500.401 250.994 500.944 251.265 501.487 251.536C501.894 251.943 502.436 252.214 502.979 252.621Z" fill="#CBD2DE"/>
<path d="M503.385 255.605L505.42 254.384L505.013 251.4L502.978 252.621L503.385 255.605Z" fill="#CBD2DE"/>
<path d="M508.539 259.538L510.574 258.453L508.268 257.91L506.233 259.131L508.539 259.538Z" fill="#CBD2DE"/>
<path d="M509.897 263.471L511.932 262.25C511.525 260.894 511.118 259.674 510.439 258.453L508.405 259.674C509.083 260.894 509.626 262.115 509.897 263.471Z" fill="#CBD2DE"/>
<path d="M509.897 263.471L511.932 262.25C511.525 260.894 511.118 259.674 510.439 258.453L508.405 259.674C509.083 260.894 509.626 262.115 509.897 263.471Z" fill="#CBD2DE"/>
<path d="M494.569 259.945L492.805 260.758C493.212 262.115 493.619 263.335 494.297 264.556L496.604 265.098C497.417 266.454 498.367 267.539 499.317 268.624L499.724 271.608C500.266 272.015 500.673 272.286 501.216 272.693C501.216 272.693 501.216 272.693 501.351 272.693C501.894 272.964 502.301 273.235 502.708 273.371L503.251 270.93C504.336 271.201 505.285 271.065 506.099 270.659L508.405 272.828C509.084 272.286 509.626 271.608 509.898 270.794L508.134 267.946C508.27 267.404 508.27 266.861 508.405 266.183C508.405 265.505 508.405 264.827 508.27 264.285L510.033 263.471C509.626 262.115 509.219 260.894 508.541 259.674L506.235 259.131C505.421 257.775 504.471 256.69 503.522 255.605L503.115 252.621C502.572 252.215 502.165 251.943 501.623 251.536C501.08 251.265 500.673 250.994 500.131 250.858L499.588 253.3C498.503 253.028 497.553 253.164 496.739 253.571L494.433 251.401C493.755 251.943 493.212 252.621 492.941 253.435L494.704 256.283C494.569 256.826 494.569 257.368 494.433 258.046C494.433 258.589 494.433 259.267 494.569 259.945ZM501.351 264.827C499.995 264.013 498.91 262.115 498.91 260.623C498.91 259.131 499.995 258.453 501.351 259.267C502.708 260.08 503.793 261.979 503.793 263.471C503.793 264.963 502.708 265.505 501.351 264.827Z" fill="white"/>
<path d="M522.375 471.914C522.511 472.185 522.647 472.728 522.782 472.999C523.054 473.541 523.325 473.948 523.325 473.948C523.596 474.355 523.732 474.626 524.003 474.762C524.546 475.305 524.546 475.44 525.088 475.847C525.36 476.118 526.038 476.525 526.852 476.796C527.801 477.068 528.344 477.068 528.887 477.203C526.852 477.203 524.681 475.305 523.732 472.321C522.782 472.321 522.375 472.185 522.375 471.914Z" fill="#CA571D"/>
<path d="M528.752 477.203C529.295 477.203 529.837 477.203 531.194 476.932C531.872 476.797 532.957 476.525 534.178 475.983C534.449 475.847 534.585 475.847 534.856 475.712C534.992 475.712 535.128 475.576 535.128 475.576C535.399 475.44 535.67 475.305 536.077 475.034C537.298 474.355 537.976 473.813 538.248 473.542C538.383 473.27 538.926 472.864 539.333 472.05C539.469 471.779 539.74 471.101 539.876 470.151C540.011 469.609 540.147 467.981 539.469 465.812C539.74 466.354 538.248 467.575 535.399 468.795C531.329 470.694 526.039 472.186 523.597 472.186C524.547 475.305 526.717 477.203 528.752 477.203Z" fill="url(#paint19_linear_2394_13361)"/>
<path d="M507.998 424.991C512.745 440.587 517.629 456.319 522.377 471.915C522.512 472.186 522.919 472.322 523.598 472.322L508.947 425.262C508.405 425.262 507.998 425.127 507.998 424.991Z" fill="#DA6D37"/>
<path d="M539.469 465.947C533.5 450.758 527.395 435.569 521.427 420.244C521.562 420.651 520.477 421.6 518.171 422.55C515.051 424.041 510.846 425.262 508.947 425.262L523.597 472.321C526.039 472.321 531.329 470.829 535.399 468.931C538.248 467.575 539.74 466.49 539.469 465.947Z" fill="url(#paint20_linear_2394_13361)"/>
<path d="M505.827 423.228C506.641 423.906 507.319 424.448 508.133 425.126C508.269 425.262 508.54 425.262 508.947 425.262L506.912 423.499C506.37 423.499 505.963 423.363 505.827 423.228Z" fill="#BDBCD0"/>
<path d="M500.401 408.039L505.691 423.093C505.827 423.364 506.098 423.499 506.912 423.499L501.622 408.446C500.943 408.446 500.536 408.31 500.401 408.039Z" fill="#BDBCD0"/>
<path d="M521.426 420.38C521.562 419.431 521.833 418.482 521.969 417.532C521.833 418.075 520.477 419.16 518.035 420.245C514.237 422.008 509.217 423.499 506.776 423.499L508.946 425.262C510.845 425.262 515.05 424.042 518.17 422.55C520.205 421.736 521.29 420.923 521.426 420.38Z" fill="url(#paint21_linear_2394_13361)"/>
<path d="M521.968 417.396L516.678 402.343C516.814 402.885 515.457 403.97 512.744 405.191C508.946 406.954 503.927 408.446 501.485 408.446L506.775 423.499C509.081 423.499 514.101 422.007 518.035 420.244C520.748 419.024 522.24 417.939 521.968 417.396Z" fill="url(#paint22_linear_2394_13361)"/>
<path d="M463.639 336.975L475.305 330.194C470.15 333.178 466.895 339.552 466.895 348.774C466.895 367.082 479.782 389.459 495.653 398.545C503.657 403.156 510.982 403.563 516.137 400.58L504.471 407.36C499.18 410.344 491.99 409.937 483.987 405.326C467.98 396.104 455.093 373.863 455.228 355.555C455.228 346.468 458.484 339.959 463.639 336.975Z" fill="url(#paint23_linear_2394_13361)"/>
<path opacity="0.64" d="M487.514 403.292C471.507 394.07 458.62 371.829 458.756 353.521C458.756 335.212 471.778 327.753 487.785 336.975C503.792 346.197 516.68 368.439 516.544 386.747C516.408 405.191 503.385 412.514 487.514 403.292Z" fill="#6792D1"/>
<path opacity="0.64" d="M469.471 333.856C465.537 337.247 463.095 343.078 463.095 350.944C463.095 369.253 475.982 391.629 491.854 400.716C498.772 404.649 505.012 405.598 510.031 403.835C504.741 408.31 496.602 408.581 487.513 403.292C471.506 394.07 458.619 371.829 458.754 353.521C458.754 343.078 462.96 336.162 469.471 333.856Z" fill="#85A9D4"/>
<path d="M484.121 334.128C465.808 323.549 451.022 332.093 450.886 353.114C450.886 374.135 465.537 399.631 483.85 410.209C502.163 420.787 516.949 412.243 517.085 391.358C517.221 370.337 502.434 344.706 484.121 334.128ZM483.986 405.327C467.979 396.105 455.092 373.863 455.227 355.555C455.227 337.247 468.25 329.788 484.257 339.01C500.264 348.232 513.151 370.473 513.015 388.781C512.88 407.09 499.857 414.548 483.986 405.327Z" fill="#C6C5CF"/>
<path d="M472.32 325.041C478.289 321.515 486.7 322.058 495.924 327.347C514.237 337.925 529.023 363.421 528.888 384.442C528.888 394.884 525.225 402.207 519.256 405.598L507.59 412.379C513.559 408.988 517.222 401.529 517.222 391.222C517.222 370.202 502.571 344.706 484.258 334.128C475.033 328.839 466.759 328.296 460.654 331.822L472.32 325.041Z" fill="url(#paint24_linear_2394_13361)"/>
<path opacity="0.64" d="M469.051 380.976C459.505 364.778 458.884 347.455 467.663 342.285C476.442 337.114 491.296 346.053 500.842 362.251C510.387 378.449 511.008 395.772 502.229 400.942C493.451 406.113 478.596 397.173 469.051 380.976Z" fill="#6792D1"/>
<path d="M401.102 295.07L402.188 295.612C401.238 295.07 400.831 293.714 401.238 292.086L400.153 291.544C399.746 293.171 400.153 294.528 401.102 295.07Z" fill="#A88FF7"/>
<path d="M413.176 261.572L412.091 261.03C411.819 260.894 411.412 260.759 410.87 260.759L411.955 261.301C412.362 261.301 412.769 261.301 413.176 261.572Z" fill="#A88FF7"/>
<path d="M407.75 265.912L406.665 265.234L400.153 291.544L401.239 292.087L407.75 265.912Z" fill="#A88FF7"/>
<path d="M411.955 261.301L410.87 260.759C409.106 261.03 407.207 263.064 406.665 265.37L407.75 265.912C408.292 263.607 410.192 261.573 411.955 261.301Z" fill="#A88FF7"/>
<path d="M411.955 261.301C410.191 261.572 408.292 263.607 407.749 265.912L401.238 292.086C400.695 294.392 401.645 296.155 403.408 295.883C405.172 295.612 407.071 293.578 407.614 291.272L414.125 265.098C414.668 262.793 413.718 261.03 411.955 261.301Z" fill="#967DE8"/>
<path d="M391.065 334.263L392.15 334.806C391.201 334.263 390.794 332.907 391.201 331.28L390.116 330.737C389.709 332.5 390.116 333.857 391.065 334.263Z" fill="#A88FF7"/>
<path d="M403.139 300.766L402.053 300.223C401.782 300.088 401.375 299.952 400.833 299.952L401.918 300.495C402.325 300.495 402.732 300.495 403.139 300.766Z" fill="#A88FF7"/>
<path d="M397.713 305.106L396.763 304.563L390.252 330.738L391.202 331.28L397.713 305.106Z" fill="#A88FF7"/>
<path d="M401.918 300.495L400.833 299.952C399.069 300.223 397.17 302.258 396.627 304.563L397.713 305.106C398.255 302.8 400.154 300.766 401.918 300.495Z" fill="#A88FF7"/>
<path d="M401.917 300.494C400.154 300.765 398.255 302.8 397.712 305.105L391.201 331.279C390.658 333.585 391.608 335.348 393.371 335.077C395.135 334.805 397.034 332.771 397.577 330.466L404.088 304.291C404.631 301.986 403.681 300.359 401.917 300.494Z" fill="#967DE8"/>
</g>
<defs>
<linearGradient id="paint0_linear_2394_13361" x1="420.41" y1="216.667" x2="417.67" y2="201.121" gradientUnits="userSpaceOnUse">
<stop offset="0.093579" stop-color="#9C82F0"/>
<stop offset="0.2796" stop-color="#AF99F7"/>
<stop offset="0.4867" stop-color="#BEABFD"/>
<stop offset="0.6324" stop-color="#C4B2FF"/>
<stop offset="0.9722" stop-color="#AC96F6"/>
</linearGradient>
<radialGradient id="paint1_radial_2394_13361" cx="0" cy="0" r="1" gradientUnits="userSpaceOnUse" gradientTransform="translate(301.372 350.362) rotate(-151.389) scale(70.7713 82.9553)">
<stop offset="0.578" stop-color="#5FB8FF"/>
<stop offset="1" stop-color="#2462E0"/>
</radialGradient>
<radialGradient id="paint2_radial_2394_13361" cx="0" cy="0" r="1" gradientUnits="userSpaceOnUse" gradientTransform="translate(301.373 350.362) rotate(-151.389) scale(44.6504 52.3375)">
<stop offset="0.1971" stop-color="#173F8F"/>
<stop offset="0.4025" stop-color="#184195"/>
<stop offset="0.6685" stop-color="#1A48A5"/>
<stop offset="0.9431" stop-color="#1E53BD"/>
</radialGradient>
<linearGradient id="paint3_linear_2394_13361" x1="391.63" y1="126.648" x2="420.78" y2="76.1455" gradientUnits="userSpaceOnUse">
<stop stop-color="white"/>
<stop offset="0.2158" stop-color="#F6F6F8"/>
<stop offset="0.5741" stop-color="#DCDDE4"/>
<stop offset="1" stop-color="#B6B8C6"/>
</linearGradient>
<linearGradient id="paint4_linear_2394_13361" x1="461.816" y1="93.8469" x2="440.469" y2="56.8635" gradientUnits="userSpaceOnUse">
<stop offset="0.3558" stop-color="#D1D2D9"/>
<stop offset="0.3662" stop-color="#DADBE3"/>
<stop offset="0.3868" stop-color="#E6E7EE"/>
<stop offset="0.4157" stop-color="#ECEDF5"/>
<stop offset="0.496" stop-color="#EEEFF7"/>
<stop offset="0.6021" stop-color="#ECEDF5"/>
<stop offset="0.6403" stop-color="#E6E7EE"/>
<stop offset="0.6674" stop-color="#DADBE3"/>
<stop offset="0.6812" stop-color="#D1D2D9"/>
</linearGradient>
<linearGradient id="paint5_linear_2394_13361" x1="470.081" y1="86.1798" x2="451.236" y2="53.5309" gradientUnits="userSpaceOnUse">
<stop offset="0.3558" stop-color="#FF1F41"/>
<stop offset="0.362" stop-color="#FF2E4E"/>
<stop offset="0.3738" stop-color="#FF4460"/>
<stop offset="0.3877" stop-color="#FF556E"/>
<stop offset="0.4049" stop-color="#FF6078"/>
<stop offset="0.429" stop-color="#FF677D"/>
<stop offset="0.496" stop-color="#FF697F"/>
<stop offset="0.5957" stop-color="#FF677D"/>
<stop offset="0.6315" stop-color="#FF6078"/>
<stop offset="0.657" stop-color="#FF556E"/>
<stop offset="0.6776" stop-color="#FF4460"/>
<stop offset="0.6812" stop-color="#FF405D"/>
</linearGradient>
<linearGradient id="paint6_linear_2394_13361" x1="427.907" y1="104.098" x2="414.67" y2="81.1654" gradientUnits="userSpaceOnUse">
<stop offset="0.2606" stop-color="#B9BCCC"/>
<stop offset="0.6442" stop-color="#C0C3D1"/>
</linearGradient>
<linearGradient id="paint7_linear_2394_13361" x1="417.814" y1="109.542" x2="404.944" y2="87.2441" gradientUnits="userSpaceOnUse">
<stop offset="0.2606" stop-color="#C0C3D1"/>
<stop offset="0.6442" stop-color="#CED0D8"/>
</linearGradient>
<linearGradient id="paint8_linear_2394_13361" x1="448.624" y1="122.37" x2="409.533" y2="54.6447" gradientUnits="userSpaceOnUse">
<stop offset="0.2765" stop-color="#C0C3D4"/>
<stop offset="0.496" stop-color="#DADCE6"/>
<stop offset="0.631" stop-color="#E4E6ED"/>
</linearGradient>
<linearGradient id="paint9_linear_2394_13361" x1="155.233" y1="343.185" x2="167.905" y2="321.23" gradientUnits="userSpaceOnUse">
<stop offset="0.1417" stop-color="#C2C5D6"/>
<stop offset="0.5666" stop-color="#FBFAFF"/>
</linearGradient>
<linearGradient id="paint10_linear_2394_13361" x1="221.492" y1="322.232" x2="202.849" y2="289.933" gradientUnits="userSpaceOnUse">
<stop offset="0.0861909" stop-color="#C2C5D6"/>
<stop offset="0.3417" stop-color="#C6C8D9"/>
<stop offset="0.5741" stop-color="#D1D3E1"/>
<stop offset="0.7968" stop-color="#E3E4EE"/>
<stop offset="1" stop-color="#FBFAFF"/>
</linearGradient>
<linearGradient id="paint11_linear_2394_13361" x1="355.857" y1="342.584" x2="231.369" y2="342.584" gradientUnits="userSpaceOnUse">
<stop offset="0.371" stop-color="#C2C5D6"/>
<stop offset="0.9694" stop-color="#FBFAFF"/>
</linearGradient>
<linearGradient id="paint12_linear_2394_13361" x1="316.023" y1="334.937" x2="268.781" y2="253.089" gradientUnits="userSpaceOnUse">
<stop stop-color="#C2C5D6"/>
<stop offset="0.5597" stop-color="#FBFAFF"/>
</linearGradient>
<linearGradient id="paint13_linear_2394_13361" x1="303.196" y1="279.662" x2="206.954" y2="279.662" gradientUnits="userSpaceOnUse">
<stop offset="0.2355" stop-color="#A8A4B5"/>
<stop offset="1" stop-color="#DBD3E2"/>
</linearGradient>
<linearGradient id="paint14_linear_2394_13361" x1="352.094" y1="360.831" x2="252.543" y2="135.726" gradientUnits="userSpaceOnUse">
<stop offset="0.371" stop-color="#C2C5D6"/>
<stop offset="0.9694" stop-color="#FBFAFF"/>
</linearGradient>
<linearGradient id="paint15_linear_2394_13361" x1="318.118" y1="254.173" x2="266.665" y2="165.029" gradientUnits="userSpaceOnUse">
<stop stop-color="#C2C5D6"/>
<stop offset="0.5597" stop-color="#FBFAFF"/>
</linearGradient>
<linearGradient id="paint16_linear_2394_13361" x1="373.814" y1="296.709" x2="346.808" y2="219.182" gradientUnits="userSpaceOnUse">
<stop stop-color="#C2C5D6"/>
<stop offset="0.9756" stop-color="#EEECF9"/>
<stop offset="1" stop-color="#EFEDFA"/>
</linearGradient>
<linearGradient id="paint17_linear_2394_13361" x1="364.912" y1="250.322" x2="379.86" y2="224.426" gradientUnits="userSpaceOnUse">
<stop offset="0.1417" stop-color="#D8D8E8"/>
<stop offset="0.2994" stop-color="#E8E7F2"/>
<stop offset="0.5126" stop-color="#F6F5FC"/>
<stop offset="0.6916" stop-color="#FBFAFF"/>
</linearGradient>
<linearGradient id="paint18_linear_2394_13361" x1="372.717" y1="297.091" x2="345.711" y2="219.565" gradientUnits="userSpaceOnUse">
<stop stop-color="#C2C5D6"/>
<stop offset="0.9756" stop-color="#EEECF9"/>
<stop offset="1" stop-color="#EFEDFA"/>
</linearGradient>
<linearGradient id="paint19_linear_2394_13361" x1="540.782" y1="469.492" x2="524.695" y2="475.349" gradientUnits="userSpaceOnUse">
<stop offset="0.3614" stop-color="#E37A3E"/>
<stop offset="0.9919" stop-color="#C9561C"/>
</linearGradient>
<linearGradient id="paint20_linear_2394_13361" x1="531.352" y1="443.592" x2="515.27" y2="449.447" gradientUnits="userSpaceOnUse">
<stop offset="0.2308" stop-color="#F89E54"/>
<stop offset="0.3687" stop-color="#F69A51"/>
<stop offset="0.5135" stop-color="#EE8D49"/>
<stop offset="0.6128" stop-color="#E78041"/>
<stop offset="0.9919" stop-color="#D96C36"/>
</linearGradient>
<linearGradient id="paint21_linear_2394_13361" x1="522.638" y1="419.253" x2="507.378" y2="424.809" gradientUnits="userSpaceOnUse">
<stop offset="0.3614" stop-color="#D0CFD7"/>
<stop offset="0.9919" stop-color="#BBBACF"/>
</linearGradient>
<linearGradient id="paint22_linear_2394_13361" x1="519.727" y1="410.524" x2="504.231" y2="416.165" gradientUnits="userSpaceOnUse">
<stop offset="0.2308" stop-color="#EBEBEB"/>
<stop offset="0.3737" stop-color="#E7E7E8"/>
<stop offset="0.5239" stop-color="#DBDADF"/>
<stop offset="0.6128" stop-color="#D0CFD7"/>
<stop offset="0.9919" stop-color="#BBBACF"/>
</linearGradient>
<linearGradient id="paint23_linear_2394_13361" x1="500.125" y1="409.882" x2="459.425" y2="339.368" gradientUnits="userSpaceOnUse">
<stop stop-color="#BDBCCF"/>
<stop offset="0.00434789" stop-color="#C7C6D3"/>
<stop offset="0.0110631" stop-color="#CECDD6"/>
<stop offset="0.02973" stop-color="#D0CFD7"/>
<stop offset="0.1362" stop-color="#D0CFD7"/>
<stop offset="0.2308" stop-color="#EBEBEB"/>
<stop offset="0.3236" stop-color="#E9E9EA"/>
<stop offset="0.357" stop-color="#E3E2E5"/>
<stop offset="0.3807" stop-color="#D7D7DC"/>
<stop offset="0.3905" stop-color="#D0CFD7"/>
<stop offset="0.9346" stop-color="#D0CFD7"/>
<stop offset="0.9919" stop-color="#BBBACF"/>
</linearGradient>
<linearGradient id="paint24_linear_2394_13361" x1="524.909" y1="402.462" x2="478.247" y2="321.621" gradientUnits="userSpaceOnUse">
<stop offset="0.00810811" stop-color="#BBBACF"/>
<stop offset="0.0653658" stop-color="#D0CFD7"/>
<stop offset="0.6095" stop-color="#D0CFD7"/>
<stop offset="0.6193" stop-color="#D7D7DC"/>
<stop offset="0.643" stop-color="#E3E2E5"/>
<stop offset="0.6764" stop-color="#E9E9EA"/>
<stop offset="0.7692" stop-color="#EBEBEB"/>
<stop offset="0.8638" stop-color="#D0CFD7"/>
<stop offset="0.9703" stop-color="#D0CFD7"/>
<stop offset="0.9889" stop-color="#CECDD6"/>
<stop offset="0.9957" stop-color="#C7C6D3"/>
<stop offset="1" stop-color="#BDBCCF"/>
</linearGradient>
<clipPath id="clip0_2394_13361">
<rect width="720" height="570" fill="white"/>
</clipPath>
</defs>
</svg>
