<svg id="Layer_1" data-name="Layer 1" xmlns="http://www.w3.org/2000/svg" viewBox="0 0 500 500"><defs><style>.cls-1{fill:#232020;}.cls-2{fill:#fff;}.cls-3{fill:#ececec;}.cls-4{fill:#e1e1e1;}.cls-5{fill:#e36867;}.cls-6{fill:#1a2e35;}.cls-7{fill:#ffbf9d;}.cls-8{fill:#ff9a6c;}.cls-9{fill:#59c2ba;}.cls-10{fill:#f5f5f5;}.cls-11{fill:#fafafa;}.cls-12{opacity:0.3;}</style></defs><path class="cls-1" d="M420.83,458.7l-142-.08a30.94,30.94,0,0,1-30.92-30.94l.07-356a30.93,30.93,0,0,1,31-30.93l142,.09a30.94,30.94,0,0,1,30.92,30.94l-.07,356A31,31,0,0,1,420.83,458.7Z"/><path class="cls-2" d="M420.79,53.39l-27.53,0a6.84,6.84,0,0,0-6.69,7v5a6.85,6.85,0,0,1-6.69,7l-53.67,0a6.85,6.85,0,0,1-6.68-7v-5a6.86,6.86,0,0,0-6.69-7h-9.68l-24.1,0A21.68,21.68,0,0,0,257.38,75l-.07,347.51A21.66,21.66,0,0,0,279,444.15l141.74.09a21.68,21.68,0,0,0,21.68-21.66l.06-347.52A21.67,21.67,0,0,0,420.79,53.39Z"/><path class="cls-3" d="M442.43,126.43V74.66a21.66,21.66,0,0,0-21.64-21.27l-27.53,0a6.84,6.84,0,0,0-6.69,7v5a6.85,6.85,0,0,1-6.69,7l-53.67,0a6.85,6.85,0,0,1-6.68-7v-5a6.86,6.86,0,0,0-6.69-7h-9.68l-24.1,0A21.68,21.68,0,0,0,257.38,75v51.61H442.43Z"/><ellipse class="cls-4" cx="295.12" cy="174.27" rx="22.43" ry="22.38"/><path class="cls-5" d="M284.64,179.87l5.87-.5,14.35,2.42,1.69,10.79-.24,1.25a22.53,22.53,0,0,1-21.26.49l-.41-14.45"/><path class="cls-5" d="M301.79,181.62a7.66,7.66,0,0,1,7.44,3.27,40,40,0,0,1,2.66,4.23c-2.33,2.54-4.23,4.47-7.47,5.6Z"/><path class="cls-5" d="M284.64,179.87s-3.88.48-5.39,3.78-1.84,4.35-1.84,4.35c2,2.42,4.55,5.27,7.68,6.35,0,0,.72-8.34.81-10.7C286,181.07,286.11,179.8,284.64,179.87Z"/><path class="cls-6" d="M288.2,158.67a10.58,10.58,0,0,1,8.22-4.08,11.23,11.23,0,0,1,4,.72,5.88,5.88,0,0,1,3.36,2.21,9.87,9.87,0,0,1,1.93,4.51,27.75,27.75,0,0,1,.25,5.07,9.23,9.23,0,0,1-1.59,4.76l-4.31.75a27.27,27.27,0,0,1-7.11-.38,9.13,9.13,0,0,1-5.82-3.82C285.38,165.59,286.1,161.23,288.2,158.67Z"/><path class="cls-6" d="M284,171.16a3.17,3.17,0,0,1,1.46-2.42,2.31,2.31,0,0,1,2.72.23l.68.81a2.78,2.78,0,0,1,1.6,2.8,3.06,3.06,0,0,1-2.12,2.49,3.37,3.37,0,0,1-3.21-.77A3.75,3.75,0,0,1,284,171.16Z"/><path class="cls-5" d="M284.87,174.06a1.39,1.39,0,0,1-.23-.85,3.9,3.9,0,0,1,1-1.94,5.9,5.9,0,0,1,1.72-1.38c.51-.27.86-.37.85-.41a2.43,2.43,0,0,0-.91.27,5.21,5.21,0,0,0-1.82,1.38,5,5,0,0,0-.7,1.06,2.27,2.27,0,0,0-.28,1,1.25,1.25,0,0,0,.19.68C284.78,174,284.86,174.07,284.87,174.06Z"/><path class="cls-7" d="M300,180.85l0-4s3.51-.38,4.48-4.88a47.31,47.31,0,0,0,.55-9c0-2.73-2.35-6.45-5.73-6.46l-1.5-.18L292,158.64a1.6,1.6,0,0,0-1.52,1.54l-.17,19.21,2.63,3.69a3.88,3.88,0,0,0,7-2.23Z"/><path class="cls-8" d="M297.71,170.92a.92.92,0,0,1,.33-.59,1,1,0,0,1,1.19-.07,1.33,1.33,0,0,1,.5,1.23h0a1.22,1.22,0,0,1-.86.5h-.16a1,1,0,0,1-.72-.29A.93.93,0,0,1,297.71,170.92Z"/><path class="cls-6" d="M302.94,166.13a.59.59,0,0,1-.59.56.56.56,0,0,1-.58-.56.59.59,0,0,1,.6-.56A.56.56,0,0,1,302.94,166.13Z"/><path class="cls-6" d="M303.89,164.68c-.07.07-.5-.28-1.12-.31s-1.11.25-1.17.17,0-.16.26-.3a1.57,1.57,0,0,1,.94-.23,1.49,1.49,0,0,1,.89.34C303.87,164.51,303.93,164.65,303.89,164.68Z"/><path class="cls-6" d="M300,169.42a4.42,4.42,0,0,1,1-.12c.16,0,.32,0,.35-.14a.91.91,0,0,0-.08-.48c-.13-.4-.27-.81-.41-1.25a21.7,21.7,0,0,1-.89-3.24,21.18,21.18,0,0,1,1.15,3.16c.13.44.26.86.39,1.25a.92.92,0,0,1,0,.64.42.42,0,0,1-.27.22,1.47,1.47,0,0,1-.28,0A3.69,3.69,0,0,1,300,169.42Z"/><path class="cls-8" d="M300,176.85a11.61,11.61,0,0,1-6-1.95s1.45,3.23,6,3.06Z"/><path class="cls-6" d="M298.08,169.75c.1,0,.07.68.62,1.2s1.29.48,1.29.57-.17.13-.48.12a1.74,1.74,0,0,1-1.07-.44,1.5,1.5,0,0,1-.48-1C298,169.91,298,169.75,298.08,169.75Z"/><path class="cls-6" d="M303.77,162.32c-.11.15-.59,0-1.15,0s-1,.13-1.16,0,0-.22.23-.36a1.65,1.65,0,0,1,.92-.27,1.61,1.61,0,0,1,.93.25C303.75,162.11,303.82,162.25,303.77,162.32Z"/><path class="cls-6" d="M296.06,166.09a.59.59,0,0,0,.55.6.56.56,0,0,0,.61-.52.58.58,0,0,0-.55-.6A.56.56,0,0,0,296.06,166.09Z"/><path class="cls-6" d="M295.3,164.46c.07.07.52-.25,1.14-.23s1.09.33,1.16.26,0-.18-.24-.33a1.69,1.69,0,0,0-.92-.3,1.58,1.58,0,0,0-.91.28C295.33,164.29,295.26,164.42,295.3,164.46Z"/><path class="cls-6" d="M294.94,163.11c.12.15.61,0,1.19,0s1.07.11,1.19,0,0-.22-.24-.36a1.8,1.8,0,0,0-1-.25,1.89,1.89,0,0,0-1,.27C295,162.89,294.88,163,294.94,163.11Z"/><path class="cls-7" d="M291.29,167.8c0-.33-.33-1.15-.66-1.22-.88-.19-2.5-.21-2.63,2.06-.2,3.09,2.95,2.64,3,2.55S291.23,169,291.29,167.8Z"/><path class="cls-8" d="M290.18,170s-.06,0-.15.07a.51.51,0,0,1-.4,0,1.33,1.33,0,0,1-.55-1.23,1.82,1.82,0,0,1,.2-.76.64.64,0,0,1,.43-.39.27.27,0,0,1,.31.17c0,.09,0,.15,0,.15s.07,0,.05-.17a.36.36,0,0,0-.11-.21.4.4,0,0,0-.29-.09.75.75,0,0,0-.59.44,1.83,1.83,0,0,0-.24.85,1.4,1.4,0,0,0,.7,1.39.57.57,0,0,0,.5-.06C290.17,170.08,290.19,170,290.18,170Z"/><path class="cls-6" d="M290.51,166.59l.78.81c3.4-3.25,10-11.37,9.67-10.89a9.85,9.85,0,0,0-4.85-.53c-2.53.43-7.32,1.7-7.25,4.67A15.38,15.38,0,0,0,290.51,166.59Z"/><path class="cls-5" d="M286,165.9l.05-.17a3.94,3.94,0,0,1,.21-.49,4.57,4.57,0,0,1,1.3-1.46,8.62,8.62,0,0,1,2.6-1.25,35.16,35.16,0,0,0,3.36-1.09,15.13,15.13,0,0,0,3.06-1.71,16.35,16.35,0,0,0,2.16-1.88,18.75,18.75,0,0,0,1.25-1.48c.12-.18.23-.32.31-.43l.11-.14s0,.06-.09.16-.15.26-.28.44a12.92,12.92,0,0,1-1.22,1.52,15,15,0,0,1-5.24,3.67,31.67,31.67,0,0,1-3.37,1.08,9,9,0,0,0-2.59,1.2,4.75,4.75,0,0,0-1.3,1.4C286.09,165.66,286,165.91,286,165.9Z"/><path class="cls-5" d="M286.91,166.39a1.63,1.63,0,0,1,.12-.67,3.16,3.16,0,0,1,1.16-1.46,7,7,0,0,1,2.59-1,15.42,15.42,0,0,0,3.21-1,13.73,13.73,0,0,0,2.86-1.76,13.81,13.81,0,0,0,3.06-3.43l.26-.43.1-.15s0,.06-.07.16l-.24.45a11.42,11.42,0,0,1-1.06,1.54,12.49,12.49,0,0,1-2,2,13.16,13.16,0,0,1-2.89,1.8,14.49,14.49,0,0,1-3.24,1,6.93,6.93,0,0,0-2.55,1,3.19,3.19,0,0,0-1.18,1.39A3.43,3.43,0,0,0,286.91,166.39Z"/><path class="cls-6" d="M285.09,194.32a43.71,43.71,0,0,1,0-5.91,39.75,39.75,0,0,1,0,5.91Z"/><path class="cls-6" d="M306.32,193.91a6.39,6.39,0,0,1,0-1,11.62,11.62,0,0,0-.09-2.5,12.1,12.1,0,0,0-.72-2.41,6,6,0,0,1-.36-1,5,5,0,0,1,.49.93,10,10,0,0,1,.79,2.43,9.14,9.14,0,0,1,0,2.55A4.12,4.12,0,0,1,306.32,193.91Z"/><path class="cls-3" d="M414.25,202.69H337.81a6.88,6.88,0,0,1-6.87-6.88v-32.1l-8.43-7.48h91.74a6.88,6.88,0,0,1,6.88,6.88v32.7A6.88,6.88,0,0,1,414.25,202.69Z"/><path class="cls-4" d="M409,207.89a65.15,65.15,0,0,1-8.16.26,64.92,64.92,0,0,1-8.15-.26,62.72,62.72,0,0,1,8.15-.26A62.94,62.94,0,0,1,409,207.89Z"/><path class="cls-9" d="M412.39,208.53a.25.25,0,0,1-.18-.08l-1.58-1.65a.25.25,0,0,1,0-.35.24.24,0,0,1,.35,0l1.4,1.47,3.07-3.12a.24.24,0,0,1,.35,0,.25.25,0,0,1,0,.35l-3.25,3.3A.25.25,0,0,1,412.39,208.53Z"/><path class="cls-9" d="M414.64,208.48h-.29a.26.26,0,0,1-.25-.26.28.28,0,0,1,.26-.24h.18l3.17-3.22a.25.25,0,0,1,.36,0,.25.25,0,0,1,0,.35l-3.25,3.3A.25.25,0,0,1,414.64,208.48Z"/><path class="cls-4" d="M409,333.56a65.15,65.15,0,0,1-8.16.26,64.92,64.92,0,0,1-8.15-.26,62.72,62.72,0,0,1,8.15-.26A62.94,62.94,0,0,1,409,333.56Z"/><path class="cls-9" d="M412.39,334.2h0a.25.25,0,0,1-.18-.08l-1.58-1.65a.25.25,0,0,1,0-.35.24.24,0,0,1,.35,0l1.4,1.46,3.07-3.12a.24.24,0,0,1,.35,0,.25.25,0,0,1,0,.35l-3.25,3.3A.25.25,0,0,1,412.39,334.2Z"/><path class="cls-9" d="M414.64,334.15h-.29a.26.26,0,0,1-.25-.26c0-.13.11-.27.26-.24h.18l3.17-3.22a.25.25,0,0,1,.36,0,.25.25,0,0,1,0,.35l-3.25,3.3A.25.25,0,0,1,414.64,334.15Z"/><path class="cls-2" d="M413.28,165.43c0,.14-16.69.26-37.28.26s-37.27-.12-37.27-.26,16.68-.26,37.27-.26S413.28,165.28,413.28,165.43Z"/><path class="cls-2" d="M413.28,170.9c0,.15-16.69.26-37.28.26s-37.27-.11-37.27-.26,16.68-.26,37.27-.26S413.28,170.76,413.28,170.9Z"/><path class="cls-2" d="M413.28,176.38c0,.14-16.69.26-37.28.26s-37.27-.12-37.27-.26,16.68-.26,37.27-.26S413.28,176.23,413.28,176.38Z"/><ellipse class="cls-4" cx="295.12" cy="313.84" rx="22.43" ry="22.38"/><path class="cls-5" d="M284.64,319.44l5.87-.5,14.35,2.41,1.69,10.8-.24,1.25a22.53,22.53,0,0,1-21.26.49l-.41-14.45"/><path class="cls-5" d="M301.79,321.18a7.68,7.68,0,0,1,7.44,3.27,40.61,40.61,0,0,1,2.66,4.24c-2.33,2.54-4.23,4.47-7.47,5.59Z"/><path class="cls-5" d="M284.64,319.44s-3.88.47-5.39,3.78-1.84,4.35-1.84,4.35c2,2.41,4.55,5.27,7.68,6.34,0,0,.72-8.33.81-10.69C286,320.64,286.11,319.36,284.64,319.44Z"/><path class="cls-6" d="M288.2,298.24a10.62,10.62,0,0,1,8.22-4.09,11.46,11.46,0,0,1,4,.72,5.85,5.85,0,0,1,3.36,2.22,9.88,9.88,0,0,1,1.93,4.5,27.8,27.8,0,0,1,.25,5.07,9.24,9.24,0,0,1-1.59,4.77l-4.31.75a27.27,27.27,0,0,1-7.11-.38,9.17,9.17,0,0,1-5.82-3.82C285.38,305.16,286.1,300.79,288.2,298.24Z"/><path class="cls-6" d="M284,310.73a3.16,3.16,0,0,1,1.46-2.42,2.31,2.31,0,0,1,2.72.23l.68.81a2.77,2.77,0,0,1,1.6,2.8,3.06,3.06,0,0,1-2.12,2.49,3.38,3.38,0,0,1-3.21-.78A3.73,3.73,0,0,1,284,310.73Z"/><path class="cls-5" d="M284.87,313.63a1.44,1.44,0,0,1-.23-.86,3.91,3.91,0,0,1,1-1.93,5.74,5.74,0,0,1,1.72-1.38c.51-.28.86-.37.85-.41a2.43,2.43,0,0,0-.91.27,5.21,5.21,0,0,0-1.82,1.38,4.73,4.73,0,0,0-.7,1.06,2.27,2.27,0,0,0-.28,1,1.28,1.28,0,0,0,.19.68C284.78,313.59,284.86,313.64,284.87,313.63Z"/><path class="cls-7" d="M300,320.78s0-4,0-4,3.51-.39,4.48-4.89a47.31,47.31,0,0,0,.55-9c0-2.73-2.35-6.45-5.73-6.46l-1.5-.17-5.75,2.27a1.61,1.61,0,0,0-1.52,1.54l-.17,19.21L293,323a3.88,3.88,0,0,0,7-2.23Z"/><path class="cls-8" d="M297.71,310.49a1,1,0,0,1,.33-.6,1,1,0,0,1,1.19-.06,1.32,1.32,0,0,1,.5,1.23h0a1.25,1.25,0,0,1-.86.49h-.16a1.1,1.1,0,0,1-.72-.29A.93.93,0,0,1,297.71,310.49Z"/><path class="cls-6" d="M302.94,306.08a.58.58,0,0,1-.59.55.56.56,0,0,1-.58-.55.59.59,0,0,1,.6-.56A.56.56,0,0,1,302.94,306.08Z"/><path class="cls-6" d="M303.89,304.63c-.07.07-.5-.28-1.12-.31s-1.11.25-1.17.17,0-.17.26-.3a1.57,1.57,0,0,1,1.83.11C303.87,304.45,303.93,304.59,303.89,304.63Z"/><path class="cls-6" d="M300,309.37a4.06,4.06,0,0,1,1-.13c.16,0,.32,0,.35-.14a.92.92,0,0,0-.08-.48l-.41-1.24a21.7,21.7,0,0,1-.89-3.24,20.66,20.66,0,0,1,1.15,3.16c.13.44.26.85.39,1.25a.9.9,0,0,1,0,.63.37.37,0,0,1-.27.22.94.94,0,0,1-.28,0A4.65,4.65,0,0,1,300,309.37Z"/><path class="cls-8" d="M300,316.8a11.61,11.61,0,0,1-6-1.95s1.45,3.23,6,3Z"/><path class="cls-6" d="M298.08,309.7c.1,0,.07.68.62,1.19s1.29.48,1.29.58-.17.12-.48.11a1.63,1.63,0,0,1-1.07-.44,1.48,1.48,0,0,1-.48-1C298,309.86,298,309.69,298.08,309.7Z"/><path class="cls-6" d="M303.77,302.27c-.11.14-.59,0-1.15,0s-1,.14-1.16,0,0-.22.23-.36a1.57,1.57,0,0,1,.92-.27,1.69,1.69,0,0,1,.93.24C303.75,302.05,303.82,302.2,303.77,302.27Z"/><path class="cls-6" d="M296.06,306a.59.59,0,0,0,.55.6.54.54,0,0,0,.61-.51.58.58,0,0,0-.55-.6A.56.56,0,0,0,296.06,306Z"/><path class="cls-6" d="M295.3,304.4c.07.08.52-.24,1.14-.23s1.09.34,1.16.26,0-.17-.24-.32a1.62,1.62,0,0,0-.92-.3,1.51,1.51,0,0,0-.91.28C295.33,304.23,295.26,304.37,295.3,304.4Z"/><path class="cls-6" d="M294.94,303.06c.12.14.61,0,1.19,0s1.07.11,1.19,0,0-.21-.24-.35a1.72,1.72,0,0,0-1-.25,1.79,1.79,0,0,0-1,.27C295,302.84,294.88,303,294.94,303.06Z"/><path class="cls-7" d="M291.29,307.37c0-.34-.33-1.16-.66-1.23A2,2,0,0,0,288,308.2c-.2,3.09,2.95,2.65,3,2.56S291.23,308.54,291.29,307.37Z"/><path class="cls-8" d="M290.18,309.58s-.06,0-.15.07a.56.56,0,0,1-.4,0,1.34,1.34,0,0,1-.55-1.23,1.86,1.86,0,0,1,.2-.77.63.63,0,0,1,.43-.38.27.27,0,0,1,.31.16c0,.09,0,.15,0,.16s.07-.05.05-.18a.34.34,0,0,0-.11-.2.46.46,0,0,0-.29-.1.76.76,0,0,0-.59.45,1.8,1.8,0,0,0-.24.85,1.39,1.39,0,0,0,.7,1.38.57.57,0,0,0,.5,0C290.17,309.65,290.19,309.58,290.18,309.58Z"/><path class="cls-6" d="M290.51,306.15l.78.82c3.4-3.25,10-11.38,9.67-10.89a9.85,9.85,0,0,0-4.85-.53c-2.53.43-7.32,1.69-7.25,4.67A15.37,15.37,0,0,0,290.51,306.15Z"/><path class="cls-5" d="M286,305.47s0-.06.05-.18.11-.28.21-.49a4.67,4.67,0,0,1,1.3-1.45,8.62,8.62,0,0,1,2.6-1.25c1-.34,2.21-.6,3.36-1.09a15.13,15.13,0,0,0,3.06-1.71,16.36,16.36,0,0,0,2.16-1.89,17.08,17.08,0,0,0,1.25-1.48l.31-.42.11-.15s0,.06-.09.17-.15.25-.28.44a13.81,13.81,0,0,1-1.22,1.52,15,15,0,0,1-5.24,3.67c-1.16.49-2.34.75-3.37,1.08a8.78,8.78,0,0,0-2.59,1.2,4.73,4.73,0,0,0-1.3,1.39C286.09,305.23,286,305.48,286,305.47Z"/><path class="cls-5" d="M286.91,306a1.66,1.66,0,0,1,.12-.68,3.09,3.09,0,0,1,1.16-1.45,7.05,7.05,0,0,1,2.59-1,15.37,15.37,0,0,0,3.21-1,13.34,13.34,0,0,0,2.86-1.77,13.57,13.57,0,0,0,3.06-3.42l.26-.44c.06-.1.1-.15.1-.14s0,.05-.07.16l-.24.45a12.09,12.09,0,0,1-1.06,1.54,13.27,13.27,0,0,1-4.85,3.76,15.08,15.08,0,0,1-3.24,1,6.93,6.93,0,0,0-2.55,1,3.17,3.17,0,0,0-1.18,1.38A3.61,3.61,0,0,0,286.91,306Z"/><path class="cls-6" d="M285.09,333.89a43.71,43.71,0,0,1,0-5.91,39.75,39.75,0,0,1,0,5.91Z"/><path class="cls-6" d="M306.32,333.48a6.39,6.39,0,0,1,0-1.05,11.71,11.71,0,0,0-.09-2.51,12.53,12.53,0,0,0-.72-2.41,5.31,5.31,0,0,1-.36-1,5.33,5.33,0,0,1,.49.94,9.89,9.89,0,0,1,.79,2.43,9.14,9.14,0,0,1,0,2.55A4.12,4.12,0,0,1,306.32,333.48Z"/><path class="cls-3" d="M414.25,327H337.81a6.87,6.87,0,0,1-6.87-6.87V303.28l-8.43-7.48h91.74a6.88,6.88,0,0,1,6.88,6.87v17.45A6.87,6.87,0,0,1,414.25,327Z"/><path class="cls-2" d="M413.28,305c0,.15-16.69.26-37.28.26s-37.27-.11-37.27-.26,16.68-.26,37.27-.26S413.28,304.85,413.28,305Z"/><path class="cls-2" d="M413.28,310.47c0,.14-16.69.26-37.28.26s-37.27-.12-37.27-.26,16.68-.26,37.27-.26S413.28,310.32,413.28,310.47Z"/><path class="cls-2" d="M413.28,315.94c0,.15-16.69.27-37.28.27s-37.27-.12-37.27-.27,16.68-.26,37.27-.26S413.28,315.8,413.28,315.94Z"/><path class="cls-2" d="M413.28,181.85c0,.15-16.69.27-37.28.27s-37.27-.12-37.27-.27,16.68-.26,37.27-.26S413.28,181.71,413.28,181.85Z"/><path class="cls-2" d="M413.28,187.33c0,.14-16.69.26-37.28.26s-37.27-.12-37.27-.26,16.68-.26,37.27-.26S413.28,187.19,413.28,187.33Z"/><path class="cls-2" d="M413.28,193.91c0,.15-16.69.26-37.28.26s-37.27-.11-37.27-.26,16.68-.26,37.27-.26S413.28,193.77,413.28,193.91Z"/><path class="cls-6" d="M339.13,98.75A4,4,0,0,1,346,96.29l-1.08,1a2.31,2.31,0,0,0-1.82-.85,2.32,2.32,0,0,0,0,4.64,2.29,2.29,0,0,0,1.82-.86l1.08,1a4,4,0,0,1-6.91-2.45Z"/><path class="cls-6" d="M352.74,99.18v3.19h-1.61V99.43c0-.9-.42-1.31-1.13-1.31s-1.34.47-1.34,1.5v2.75h-1.61V94.69h1.61v2.69a2.48,2.48,0,0,1,1.77-.66A2.18,2.18,0,0,1,352.74,99.18Z"/><path class="cls-6" d="M359.12,99.19v3.18h-1.51v-.69a1.84,1.84,0,0,1-1.7.77c-1.3,0-2.08-.72-2.08-1.68s.7-1.67,2.39-1.67h1.29c0-.69-.42-1.1-1.29-1.1a2.66,2.66,0,0,0-1.6.52L354,97.39a4.31,4.31,0,0,1,2.4-.67C358.14,96.72,359.12,97.51,359.12,99.19Zm-1.61,1.42V100H356.4c-.75,0-1,.28-1,.65s.34.68.91.68A1.19,1.19,0,0,0,357.51,100.61Z"/><path class="cls-6" d="M364.17,102.1a2.3,2.3,0,0,1-1.32.35,1.83,1.83,0,0,1-2.08-2V98.17h-.85V96.93h.85V95.57h1.62v1.36h1.38v1.24h-1.38v2.26a.65.65,0,0,0,.69.74,1,1,0,0,0,.65-.21Z"/><path class="cls-6" d="M392.71,109.9c0,.15-17,.26-38.07.26s-38.06-.11-38.06-.26,17-.26,38.06-.26S392.71,109.76,392.71,109.9Z"/><circle class="cls-6" cx="426.44" cy="96.98" r="1.77"/><path class="cls-6" d="M428.21,102.14a1.78,1.78,0,1,1-1.77-1.77A1.77,1.77,0,0,1,428.21,102.14Z"/><path class="cls-6" d="M428.21,107.31a1.78,1.78,0,1,1-1.77-1.78A1.77,1.77,0,0,1,428.21,107.31Z"/><path class="cls-6" d="M282.49,103a.53.53,0,0,1-.29-.1l-4.7-3.44a.54.54,0,0,1-.2-.41.49.49,0,0,1,.21-.4l4.69-3.38a.5.5,0,1,1,.59.81l-4.14,3,4.14,3a.51.51,0,0,1,.11.7A.52.52,0,0,1,282.49,103Z"/><ellipse class="cls-4" cx="404.89" cy="248.74" rx="22.43" ry="22.38"/><path class="cls-6" d="M411,262h-11.8a1.52,1.52,0,0,1-1.52-1.53h0a1.52,1.52,0,0,1,1.52-1.52H411a1.52,1.52,0,0,1,1.52,1.52h0A1.52,1.52,0,0,1,411,262Z"/><rect class="cls-6" x="404.76" y="234.19" width="1.04" height="5.24"/><circle class="cls-9" cx="389.99" cy="252.1" r="3.04"/><circle class="cls-9" cx="420.72" cy="251.89" r="3.04"/><path class="cls-9" d="M405.73,238.33s12.38-.15,14.34,10.57-8.51,10.93-11.52,11.13c-1.36.09-4.29.1-6.86.06-5.71-.1-9.74-1.21-11.11-6.5a10,10,0,0,1-.31-1.9C389.9,245.89,393.83,238,405.73,238.33Z"/><path class="cls-6" d="M396.75,254.66l18,.28a3.41,3.41,0,0,0,3.46-3.36h0a3.41,3.41,0,0,0-3.36-3.46l-18-.29a3.43,3.43,0,0,0-3.47,3.37h0A3.41,3.41,0,0,0,396.75,254.66Z"/><path class="cls-2" d="M411,251.21a1.09,1.09,0,0,0,1.28.86,1.1,1.1,0,0,0,.87-1.28,1.12,1.12,0,0,0-1.29-.87A1.1,1.1,0,0,0,411,251.21Z"/><path class="cls-2" d="M398.44,251a1.1,1.1,0,1,0,.86-1.29A1.1,1.1,0,0,0,398.44,251Z"/><path class="cls-9" d="M407,234.08a1.71,1.71,0,1,1-1.71-1.71A1.71,1.71,0,0,1,407,234.08Z"/><path class="cls-2" d="M407.86,250.7s.07.09.1.27a1.63,1.63,0,0,1-.06.76,2.34,2.34,0,0,1-.6,1,2.09,2.09,0,0,1-2.67.25,2.33,2.33,0,0,1-.77-.85,1.86,1.86,0,0,1-.2-.74c0-.18,0-.28.06-.28s.1.38.43.84a2.4,2.4,0,0,0,.71.66,2,2,0,0,0,1.11.26,1.84,1.84,0,0,0,1-.46,2.37,2.37,0,0,0,.59-.77C407.82,251.1,407.78,250.71,407.86,250.7Z"/><path class="cls-6" d="M420,248.55a1.79,1.79,0,0,1,.1.27c0,.08.06.19.1.32s.07.26.1.42a8.13,8.13,0,0,1,.15,1.14,9.27,9.27,0,0,1,0,1.39,9.16,9.16,0,0,1-.23,1.39,8,8,0,0,1-.36,1.08,4,4,0,0,1-.17.4c-.05.12-.11.22-.15.3l-.14.24a1.19,1.19,0,0,1,.11-.26c0-.08.08-.18.13-.3s.11-.25.16-.4a8,8,0,0,0,.33-1.09,10.12,10.12,0,0,0,.23-1.36,10.89,10.89,0,0,0,0-1.39,9.74,9.74,0,0,0-.14-1.12,3.57,3.57,0,0,0-.09-.43c0-.13-.05-.23-.07-.32S420,248.56,420,248.55Z"/><path class="cls-6" d="M390.71,248.62a2.16,2.16,0,0,0-.09.27,2.86,2.86,0,0,0-.1.31c0,.13-.07.27-.1.43a9.58,9.58,0,0,0-.16,1.13,9.45,9.45,0,0,0,0,1.4,9,9,0,0,0,.23,1.38,7.73,7.73,0,0,0,.36,1.09c.05.15.12.28.17.4a2.09,2.09,0,0,0,.15.3l.14.24a1,1,0,0,0-.11-.26c0-.08-.08-.18-.13-.3s-.11-.25-.16-.41a8.26,8.26,0,0,1-.33-1.08,10.28,10.28,0,0,1-.23-1.37,10.76,10.76,0,0,1,0-1.38,9.94,9.94,0,0,1,.14-1.13,3.38,3.38,0,0,1,.09-.42c0-.13.05-.24.07-.32A1,1,0,0,0,390.71,248.62Z"/><path class="cls-9" d="M393.39,268s3.68-3.59,11.37-3.59S416.39,268,416.39,268A22.26,22.26,0,0,1,393.39,268Z"/><path class="cls-3" d="M282.15,271.56h76.44a6.86,6.86,0,0,0,6.87-6.87V242.51l8.43-7.48H282.15a6.88,6.88,0,0,0-6.88,6.87v22.79A6.87,6.87,0,0,0,282.15,271.56Z"/><path class="cls-2" d="M355.2,245.87c0,.15-15.74.26-35.16.26s-35.17-.11-35.17-.26,15.75-.26,35.17-.26S355.2,245.73,355.2,245.87Z"/><path class="cls-2" d="M355.2,251.81c0,.14-15.74.26-35.16.26s-35.17-.12-35.17-.26,15.75-.26,35.17-.26S355.2,251.67,355.2,251.81Z"/><path class="cls-2" d="M355.2,257.75c0,.14-15.74.26-35.16.26s-35.17-.12-35.17-.26,15.75-.26,35.17-.26S355.2,257.6,355.2,257.75Z"/><path class="cls-2" d="M355.2,263.69c0,.14-15.74.26-35.16.26s-35.17-.12-35.17-.26,15.75-.26,35.17-.26S355.2,263.54,355.2,263.69Z"/><ellipse class="cls-4" cx="404.89" cy="373.02" rx="22.43" ry="22.38"/><path class="cls-6" d="M411,386.24h-11.8a1.52,1.52,0,0,1-1.52-1.52h0a1.52,1.52,0,0,1,1.52-1.52H411a1.52,1.52,0,0,1,1.52,1.52h0A1.52,1.52,0,0,1,411,386.24Z"/><rect class="cls-6" x="404.76" y="358.47" width="1.04" height="5.24"/><circle class="cls-9" cx="389.99" cy="376.37" r="3.04"/><circle class="cls-9" cx="420.72" cy="376.17" r="3.04"/><path class="cls-9" d="M405.73,362.61s12.38-.15,14.34,10.57-8.51,10.93-11.52,11.13c-1.36.09-4.29.1-6.86.06-5.71-.1-9.74-1.21-11.11-6.5a10,10,0,0,1-.31-1.9C389.9,370.17,393.83,362.32,405.73,362.61Z"/><path class="cls-6" d="M396.75,378.94l18,.28a3.41,3.41,0,0,0,3.46-3.36h0a3.42,3.42,0,0,0-3.36-3.47l-18-.28a3.42,3.42,0,0,0-3.47,3.36h0A3.42,3.42,0,0,0,396.75,378.94Z"/><path class="cls-2" d="M411,375.49a1.09,1.09,0,0,0,1.28.86,1.1,1.1,0,1,0-1.28-.86Z"/><path class="cls-2" d="M398.44,375.29a1.1,1.1,0,1,0,.86-1.29A1.1,1.1,0,0,0,398.44,375.29Z"/><path class="cls-9" d="M407,358.36a1.71,1.71,0,1,1-1.71-1.71A1.72,1.72,0,0,1,407,358.36Z"/><path class="cls-2" d="M407.86,375s.07.09.1.27a1.63,1.63,0,0,1-.06.76,2.34,2.34,0,0,1-.6,1,2.07,2.07,0,0,1-2.67.24,2.19,2.19,0,0,1-.77-.85,1.79,1.79,0,0,1-.2-.73c0-.18,0-.28.06-.28s.1.38.43.84a2.25,2.25,0,0,0,.71.65,1.89,1.89,0,0,0,1.11.27,1.84,1.84,0,0,0,1-.46,2.37,2.37,0,0,0,.59-.77C407.82,375.37,407.78,375,407.86,375Z"/><path class="cls-6" d="M420,372.83a1.36,1.36,0,0,1,.1.27c0,.08.06.19.1.31s.07.27.1.43a8,8,0,0,1,.15,1.13,9.39,9.39,0,0,1,0,1.4,9,9,0,0,1-.23,1.38,7.73,7.73,0,0,1-.36,1.09c-.05.15-.12.28-.17.4s-.11.22-.15.3l-.14.24a1.19,1.19,0,0,1,.11-.26c0-.08.08-.18.13-.3s.11-.25.16-.4a8.45,8.45,0,0,0,.33-1.09,10.28,10.28,0,0,0,.23-1.37,10.76,10.76,0,0,0,0-1.38,9.94,9.94,0,0,0-.14-1.13,3.38,3.38,0,0,0-.09-.42c0-.13-.05-.24-.07-.32S420,372.83,420,372.83Z"/><path class="cls-6" d="M390.71,372.9a2.32,2.32,0,0,0-.09.26c0,.09-.07.2-.1.32s-.07.27-.1.43a9.58,9.58,0,0,0-.16,1.13,9.47,9.47,0,0,0,0,1.4,9.23,9.23,0,0,0,.23,1.38,7.73,7.73,0,0,0,.36,1.09c.05.15.12.28.17.4a1.54,1.54,0,0,0,.15.29l.14.25a.86.86,0,0,0-.11-.26c0-.08-.08-.18-.13-.3s-.11-.26-.16-.41a8.26,8.26,0,0,1-.33-1.08,10.56,10.56,0,0,1-.23-1.37,10.76,10.76,0,0,1,0-1.38,9.94,9.94,0,0,1,.14-1.13,4,4,0,0,1,.09-.43c0-.12.05-.23.07-.32A.91.91,0,0,0,390.71,372.9Z"/><path class="cls-9" d="M393.39,392.24s3.68-3.59,11.37-3.59,11.63,3.59,11.63,3.59A22.29,22.29,0,0,1,393.39,392.24Z"/><path class="cls-3" d="M282.15,395.84h76.44a6.87,6.87,0,0,0,6.87-6.87V366.79l8.43-7.48H282.15a6.87,6.87,0,0,0-6.88,6.87V389A6.88,6.88,0,0,0,282.15,395.84Z"/><path class="cls-3" d="M282.15,430.52h76.44a6.86,6.86,0,0,0,6.87-6.87V416.3l8.43-7.48H282.15a6.88,6.88,0,0,0-6.88,6.87v8A6.87,6.87,0,0,0,282.15,430.52Z"/><path class="cls-2" d="M355.2,370.15c0,.14-15.74.26-35.16.26s-35.17-.12-35.17-.26,15.75-.26,35.17-.26S355.2,370,355.2,370.15Z"/><path class="cls-2" d="M355.2,376.09c0,.14-15.74.26-35.16.26s-35.17-.12-35.17-.26,15.75-.26,35.17-.26S355.2,375.94,355.2,376.09Z"/><path class="cls-2" d="M355.2,382c0,.14-15.74.26-35.16.26s-35.17-.12-35.17-.26,15.75-.26,35.17-.26S355.2,381.88,355.2,382Z"/><path class="cls-2" d="M355.2,388c0,.15-15.74.26-35.16.26s-35.17-.11-35.17-.26,15.75-.26,35.17-.26S355.2,387.82,355.2,388Z"/><path class="cls-2" d="M355.42,420c0,.14-15.58.26-34.79.26s-34.8-.12-34.8-.26,15.58-.26,34.8-.26S355.42,419.84,355.42,420Z"/><path class="cls-3" d="M87.13,400.15,76.5,392.84s-6.14,8.92-15.52,2.7a10.43,10.43,0,0,1-4.55-11.22,11.56,11.56,0,0,1,6.68-8.09c3.84-1.73,9.65-1.71,15.94,4.48l16.49-24L85,349.52l-9.65,14S58,357.22,46.84,373.46C36.15,389,47.6,402.2,53.57,406.3,58.13,409.44,74.43,419,87.13,400.15Z"/><rect class="cls-3" x="90.59" y="337.14" width="12.94" height="12.09" transform="translate(-17.5 680.92) rotate(-145.47)"/><path class="cls-3" d="M132.44,429.54l5.64-1.49a5,5,0,0,1,3.65-6.12,4.71,4.71,0,0,1,5.19,1.75,5.24,5.24,0,0,1,.81,4.68c-.54,1.83-2.26,3.81-6.24,4.15l3.35,12.72,5.58-1.47-2-7.45a11.27,11.27,0,0,0,5-12.72c-2.17-8.25-10.08-8.21-13.25-7.38C137.8,416.85,129.7,419.61,132.44,429.54Z"/><rect class="cls-3" x="146.12" y="447.02" width="5.86" height="5.47" transform="translate(-109.78 52.89) rotate(-14.78)"/><path class="cls-10" d="M226.17,73.22a37.76,37.76,0,0,1,9.15-4l1.88-9,15.29-.27,2.2,9A37.18,37.18,0,0,1,264,72.56l7.73-5.07,11,10.63L277.91,86a37.31,37.31,0,0,1,4,9.14L290.93,97l.27,15.3-9,2.2a37.23,37.23,0,0,1-3.64,9.27l5.06,7.73-10.62,11-7.9-4.79a37.24,37.24,0,0,1-9.15,4l-1.88,9.05-15.29.27-2.2-9a37.57,37.57,0,0,1-9.28-3.65l-7.73,5.06-11-10.62,4.79-7.9a37.31,37.31,0,0,1-4-9.14l-9-1.89-.27-15.29,9-2.2a37.33,37.33,0,0,1,3.65-9.28l-5.07-7.73,10.62-11,7.9,4.79Zm8.16,20.37a16.4,16.4,0,1,0,23.19-.41A16.4,16.4,0,0,0,234.33,93.59Z"/><path class="cls-3" d="M162.14,41.35a21.47,21.47,0,0,1,5.26-2.29l1.09-5.21,8.81-.16,1.26,5.17a22,22,0,0,1,5.35,2.1l4.45-2.91,6.34,6.11-2.76,4.55A21.93,21.93,0,0,1,194.23,54l5.21,1.09.15,8.8-5.17,1.27a21.26,21.26,0,0,1-2.1,5.35l2.92,4.45-6.12,6.33-4.55-2.76a21.54,21.54,0,0,1-5.27,2.29L178.22,86l-8.81.15L168.14,81a22.13,22.13,0,0,1-5.34-2.1l-4.45,2.91L152,75.7l2.76-4.55a21.54,21.54,0,0,1-2.29-5.27l-5.21-1.09-.16-8.8,5.17-1.27a21.61,21.61,0,0,1,2.11-5.34l-2.92-4.46,6.12-6.33,4.55,2.76Zm4.69,11.73a9.45,9.45,0,1,0,13.36-.24A9.45,9.45,0,0,0,166.83,53.08Z"/><path class="cls-3" d="M443.25,204.86a21.28,21.28,0,0,1,5.26-2.28l1.09-5.22,8.8-.15,1.27,5.17a21,21,0,0,1,5.34,2.1l4.46-2.92,6.33,6.12L473,212.23a21.54,21.54,0,0,1,2.29,5.27l5.21,1.08.16,8.81-5.17,1.27a22.13,22.13,0,0,1-2.1,5.34l2.91,4.45-6.11,6.34L465.68,242a21.54,21.54,0,0,1-5.27,2.29l-1.09,5.21-8.8.16-1.27-5.17a21.68,21.68,0,0,1-5.35-2.11l-4.45,2.92-6.33-6.12,2.76-4.55a21.47,21.47,0,0,1-2.29-5.26l-5.22-1.09-.15-8.81,5.17-1.26a22,22,0,0,1,2.1-5.35l-2.91-4.45,6.11-6.34,4.56,2.76Zm4.69,11.74a9.45,9.45,0,1,0,13.36-.24A9.46,9.46,0,0,0,447.94,216.6Z"/><path class="cls-6" d="M467,465.46c0,.15-94.83.26-211.77.26s-211.79-.11-211.79-.26,94.8-.26,211.79-.26S467,465.32,467,465.46Z"/><path class="cls-5" d="M99.62,411.54a10.31,10.31,0,0,1,6.47,4.81,18.38,18.38,0,0,1,2.39,7.87c.51,5.32-1.34,11.19-3.64,16-5.19-2.89-7.6-9.35-8.62-12.7-1.61-5.29-1.31-15.84,3.4-16"/><path class="cls-5" d="M111.74,447.75a8.79,8.79,0,0,1,1.05-8.76,11.62,11.62,0,0,1,7.86-4.41,4.91,4.91,0,0,1,4,.88,3.76,3.76,0,0,1,.84,3.71,7.59,7.59,0,0,1-2.18,3.3c-3.29,3.18-7.06,5.66-11.62,5.28"/><path class="cls-6" d="M109.5,464.87a5.66,5.66,0,0,1-.07-1.1c0-.78-.05-1.79-.08-3a30.59,30.59,0,0,1,1-9.85,18.82,18.82,0,0,1,5.13-8.43,13.11,13.11,0,0,1,2.44-1.77,7.69,7.69,0,0,1,.74-.36c.17-.07.26-.11.27-.09A17.41,17.41,0,0,0,110.75,451a32.88,32.88,0,0,0-1.13,9.73c0,1.27,0,2.29,0,3A7.51,7.51,0,0,1,109.5,464.87Z"/><path class="cls-6" d="M100.1,419.6a2.53,2.53,0,0,1,.15.45l.36,1.33c.31,1.15.74,2.82,1.24,4.89,1,4.13,2.34,9.87,3.66,16.23s2.38,12.16,3.09,16.36c.35,2.1.62,3.8.8,5,.08.56.14,1,.19,1.36a2.46,2.46,0,0,1,0,.48,3.23,3.23,0,0,1-.12-.47c-.07-.34-.15-.79-.26-1.34-.23-1.22-.54-2.9-.92-5-.78-4.19-1.89-10-3.2-16.33s-2.6-12.1-3.54-16.25c-.47-2-.85-3.71-1.12-4.92-.12-.55-.22-1-.3-1.34A2.4,2.4,0,0,1,100.1,419.6Z"/><path class="cls-5" d="M104.84,452.51a20.57,20.57,0,0,0-14.1-12.41c-1.61-.39-3.61-.44-4.59.9s-.29,3.24.62,4.63a17.55,17.55,0,0,0,18,7.33"/><path class="cls-6" d="M92.49,444.88a5.92,5.92,0,0,1,1,.21,12.11,12.11,0,0,1,1.17.34,14.62,14.62,0,0,1,1.51.56,17,17,0,0,1,1.77.82A19.12,19.12,0,0,1,99.9,448a21.12,21.12,0,0,1,6.94,7.49,19.45,19.45,0,0,1,1,2,15.93,15.93,0,0,1,.66,1.84,14.64,14.64,0,0,1,.41,1.56,10.85,10.85,0,0,1,.22,1.2,6,6,0,0,1,.1,1c-.09,0-.25-1.46-1-3.7a16.1,16.1,0,0,0-.7-1.8,17.27,17.27,0,0,0-1-2,21.53,21.53,0,0,0-6.83-7.37,18.77,18.77,0,0,0-1.89-1.15,17.32,17.32,0,0,0-1.73-.86C93.92,445.29,92.47,445,92.49,444.88Z"/><path class="cls-11" d="M124.28,151.85l-3.71-11.55A40.13,40.13,0,1,0,111,151l0,0Z"/><path class="cls-6" d="M124.28,151.85l-.84,0-2.54-.14-10-.55a.1.1,0,0,1-.1-.11.14.14,0,0,1,0-.07l0,0,.15.16A40,40,0,0,1,92.93,159a38.88,38.88,0,0,1-6.21.54,45,45,0,0,1-6.65-.53,40.08,40.08,0,0,1-25.7-15.33,40.51,40.51,0,0,1-7.3-15.6,39.74,39.74,0,0,1,.16-18.27c.2-.77.4-1.53.59-2.3s.54-1.5.8-2.25a22.44,22.44,0,0,1,.88-2.23c.34-.72.69-1.44,1-2.17a17.46,17.46,0,0,1,1.18-2.11L53,96.71l1.46-1.95.73-1c.26-.32.55-.61.82-.92A40,40,0,0,1,71.93,81.69a40.91,40.91,0,0,1,18.41-2.52A40,40,0,0,1,107,84.64a40.38,40.38,0,0,1,18.31,24.1,43.21,43.21,0,0,1,1.23,6.61,50.74,50.74,0,0,1,.12,6.25,39.91,39.91,0,0,1-5.94,18.76v-.09c1.17,3.77,2.08,6.67,2.7,8.64.29,1,.52,1.7.68,2.21l.22.73s-.1-.27-.27-.77l-.73-2.21c-.65-2-1.59-4.82-2.81-8.53a.13.13,0,0,1,0-.09,39.85,39.85,0,0,0,5.79-18.66,52.24,52.24,0,0,0-.14-6.21,43.94,43.94,0,0,0-1.25-6.54A40,40,0,0,0,90.3,79.66a40.57,40.57,0,0,0-18.18,2.51,39.4,39.4,0,0,0-15.73,11c-.27.3-.55.58-.8.9l-.73,1L53.42,97l-1.25,2A17,17,0,0,0,51,101.14c-.34.72-.69,1.43-1,2.14a21.86,21.86,0,0,0-.87,2.2c-.26.74-.56,1.47-.78,2.22s-.39,1.51-.58,2.27a39.17,39.17,0,0,0-.18,18,39.82,39.82,0,0,0,32.57,30.65,44.27,44.27,0,0,0,6.59.55,39.35,39.35,0,0,0,6.15-.51,40.17,40.17,0,0,0,18-7.79.11.11,0,0,1,.15,0,.1.1,0,0,1,0,.14v0l-.08-.18,9.88.68,2.56.19Z"/><path class="cls-6" d="M75.12,119.3a4.07,4.07,0,1,1-4.07-4.08A4.07,4.07,0,0,1,75.12,119.3Z"/><path class="cls-6" d="M91.42,119.3a4.08,4.08,0,1,1-4.07-4.08A4.07,4.07,0,0,1,91.42,119.3Z"/><path class="cls-6" d="M107.68,117.26a4.07,4.07,0,1,1-5.57-1.49A4.08,4.08,0,0,1,107.68,117.26Z"/><path class="cls-9" d="M109.29,299.19l-42.16-4.4L49.34,254.3l-13.86,3.61s10.24,42.79,21.69,49.42,50.62,7.83,50.62,7.83Z"/><circle class="cls-6" cx="117.73" cy="307.33" r="18.68" transform="translate(-190.19 191.17) rotate(-48.37)"/><path class="cls-6" d="M117.73,326A18.71,18.71,0,1,1,131,320.55,18.57,18.57,0,0,1,117.73,326Zm0-37.36a18.68,18.68,0,1,0,13.19,5.47A18.51,18.51,0,0,0,117.73,288.67Z"/><circle class="cls-6" cx="60.13" cy="296.92" r="14.01" transform="translate(-67.64 22.24) rotate(-13.5)"/><circle class="cls-6" cx="41.39" cy="249.49" r="11.45" transform="translate(-164.29 102.34) rotate(-45)"/><path class="cls-6" d="M48.84,241.83H61.16a0,0,0,0,1,0,0v5.27a0,0,0,0,1,0,0H48.84a2.45,2.45,0,0,1-2.45-2.45v-.36a2.45,2.45,0,0,1,2.45-2.45Z" transform="translate(252.59 396.54) rotate(139.82)"/><path class="cls-6" d="M39.7,231h12a.35.35,0,0,1,.35.35v4.56a.35.35,0,0,1-.35.35h-12a2.45,2.45,0,0,1-2.45-2.45v-.36A2.45,2.45,0,0,1,39.7,231Z" transform="translate(278.27 189) rotate(90)"/><path class="cls-6" d="M32.35,231.51h12a.35.35,0,0,1,.35.35v4.56a.35.35,0,0,1-.35.35h-12a2.45,2.45,0,0,1-2.45-2.45V234a2.45,2.45,0,0,1,2.45-2.45Z" transform="translate(257.64 146.64) rotate(77.39)"/><path class="cls-6" d="M24.9,234.63h12a.35.35,0,0,1,.35.35v4.56a.35.35,0,0,1-.35.35h-12a2.45,2.45,0,0,1-2.45-2.45v-.36a2.45,2.45,0,0,1,2.45-2.45Z" transform="translate(220.39 92.8) rotate(60)"/><rect class="cls-9" x="273.62" y="312.12" width="13.7" height="92.95" transform="translate(678.91 578.82) rotate(156.96)"/><circle class="cls-6" cx="256.14" cy="309.28" r="18.68" transform="translate(-145.41 304.77) rotate(-49.73)"/><path class="cls-6" d="M256.16,328a18.9,18.9,0,0,1-5.54-.84,18.59,18.59,0,1,1,5.54.84Zm-.05-37.38A18.66,18.66,0,1,0,274,314.77h0a18.67,18.67,0,0,0-12.33-23.32A18.79,18.79,0,0,0,256.11,290.61Z"/><circle class="cls-6" cx="280.47" cy="361.35" r="14.01" transform="translate(-142.79 534.82) rotate(-74.47)"/><circle class="cls-6" cx="301.58" cy="404.95" r="11.45"/><path class="cls-6" d="M286.5,411h12.32a0,0,0,0,1,0,0v5.27a0,0,0,0,1,0,0H286.5a2.45,2.45,0,0,1-2.45-2.45v-.36A2.45,2.45,0,0,1,286.5,411Z" transform="translate(-213.44 447.23) rotate(-58.64)"/><path class="cls-6" d="M298.6,418.38h12a.35.35,0,0,1,.35.35v4.56a.35.35,0,0,1-.35.35h-12a2.45,2.45,0,0,1-2.45-2.45v-.36A2.45,2.45,0,0,1,298.6,418.38Z" transform="translate(0.29 842.22) rotate(-108.46)"/><path class="cls-6" d="M305.41,415.57h12a.35.35,0,0,1,.35.35v4.56a.35.35,0,0,1-.35.35h-12a2.45,2.45,0,0,1-2.45-2.45V418a2.45,2.45,0,0,1,2.45-2.45Z" transform="translate(112.28 899.85) rotate(-121.07)"/><path class="cls-6" d="M311.49,410.25h12a.35.35,0,0,1,.35.35v4.56a.35.35,0,0,1-.35.35h-12a2.45,2.45,0,0,1-2.45-2.45v-.36A2.45,2.45,0,0,1,311.49,410.25Z" transform="translate(279.45 931.75) rotate(-138.46)"/><path class="cls-9" d="M112.14,287.9S113.49,419,187.08,421.59s76.68-132.76,76.68-133.69c0,0-8.69-19.56-75.81-18.8S112.14,287.9,112.14,287.9Z"/><rect class="cls-6" x="146.14" y="249.03" width="76.9" height="15.77" rx="7.35" transform="translate(369.18 513.84) rotate(180)"/><rect class="cls-6" x="181.92" y="121.04" width="5.37" height="27.15" transform="translate(369.21 269.24) rotate(180)"/><circle class="cls-9" cx="263.08" cy="213.65" r="15.78" transform="translate(-42.28 66.65) rotate(-13.37)"/><circle class="cls-9" cx="103.78" cy="212.61" r="15.78" transform="translate(-44.46 28.22) rotate(-12.78)"/><path class="cls-9" d="M181.47,142.31s-64.16-.77-74.31,54.8,44.1,56.61,59.71,57.66c7.07.48,22.21.53,35.57.3,29.58-.52,50.47-6.24,57.59-33.68a52.22,52.22,0,0,0,1.59-9.83C263.5,181.49,243.15,140.83,181.47,142.31Z"/><path class="cls-6" d="M228,227l-93.21,1.45a17.69,17.69,0,0,1-18-17.41h0a17.7,17.7,0,0,1,17.41-18l93.22-1.45a17.68,17.68,0,0,1,18,17.41h0A17.69,17.69,0,0,1,228,227Z"/><path class="cls-2" d="M154.15,209.06a5.68,5.68,0,1,1-4.48-6.66A5.68,5.68,0,0,1,154.15,209.06Z"/><path class="cls-2" d="M219.27,208a5.68,5.68,0,1,1-4.48-6.66A5.68,5.68,0,0,1,219.27,208Z"/><path class="cls-6" d="M209.9,340a25.37,25.37,0,1,1-23.46-27.15A25.38,25.38,0,0,1,209.9,340Z"/><path class="cls-2" d="M203,339.47a18.49,18.49,0,1,1-17.09-19.79A18.48,18.48,0,0,1,203,339.47Z"/><path class="cls-9" d="M194.12,342.83a18.8,18.8,0,0,1-.18-3.05c0-1.91-.08-4.63-.08-8l.2.36-9.51-5.55h.53l-9.6,5.39.29-.48h0V333l0,1.43c0,.95,0,1.88,0,2.8,0,1.84-.07,3.62-.1,5.34l-.26-.46,9.39,5.74h-.41c2.93-1.57,5.34-2.83,7-3.7a18.86,18.86,0,0,1,2.77-1.3,14.3,14.3,0,0,1-2.41,1.59c-1.62,1-4,2.41-7,4.15l-.2.11-.22-.12L174.77,343l-.26-.15v-.31c0-1.72,0-3.51.06-5.34,0-.93,0-1.86,0-2.81l0-1.42v-1.44h0l.29-.49,9.63-5.34.27-.15.26.16,9.4,5.74.21.13v.24c-.11,3.46-.22,6.24-.33,8.14A14.75,14.75,0,0,1,194.12,342.83Z"/><circle class="cls-9" cx="184.61" cy="120.5" r="8.85" transform="translate(-31.14 165.83) rotate(-45)"/><path class="cls-2" d="M170.47,206.44c.42.05.21,2,1.45,4.67a11.69,11.69,0,0,0,3,4,9.77,9.77,0,0,0,5.33,2.37,9.9,9.9,0,0,0,5.68-1.36,11.84,11.84,0,0,0,3.68-3.35c1.69-2.37,1.85-4.36,2.27-4.33.17,0,.34.5.34,1.44a9,9,0,0,1-1,3.84,11.8,11.8,0,0,1-4,4.43,10.79,10.79,0,0,1-13.91-1.27,11.74,11.74,0,0,1-3.11-5.08,8.7,8.7,0,0,1-.32-4C170.05,206.88,170.31,206.42,170.47,206.44Z"/><path class="cls-6" d="M255.9,232.36c-.1-.06,1-1.8,2.16-5a53.6,53.6,0,0,0,2.6-12.74,93.84,93.84,0,0,0,.3-13c-.08-1.67-.15-3-.23-4a7.05,7.05,0,0,1-.05-1.46,9.08,9.08,0,0,1,.25,1.44c.14.93.27,2.28.4,4a80.15,80.15,0,0,1-.15,13.12,49.61,49.61,0,0,1-2.77,12.82,25.86,25.86,0,0,1-1.7,3.61A9.77,9.77,0,0,1,255.9,232.36Z"/><path class="cls-6" d="M107.3,195.29a7.36,7.36,0,0,1-.31,1.43c-.13.45-.27,1-.4,1.66s-.33,1.39-.45,2.21a48.7,48.7,0,0,0-.71,5.83,52.9,52.9,0,0,0,.11,7.18,52.22,52.22,0,0,0,1.16,7.09,48.26,48.26,0,0,0,1.72,5.61c.27.79.58,1.48.83,2.1s.49,1.14.69,1.56a7.9,7.9,0,0,1,.56,1.35,7.46,7.46,0,0,1-.75-1.26c-.23-.41-.49-.92-.76-1.53s-.62-1.3-.91-2.09a44.3,44.3,0,0,1-1.85-5.63,49.94,49.94,0,0,1-1.21-7.15,47.86,47.86,0,0,1-.06-7.26,41.92,41.92,0,0,1,.82-5.87c.14-.83.36-1.56.52-2.21s.34-1.2.49-1.64A8.92,8.92,0,0,1,107.3,195.29Z"/><path class="cls-6" d="M111.84,287.78l.38.11,1.12.38,4.26,1.5,3.08,1.1c1.13.38,2.38.74,3.71,1.15,2.67.8,5.68,1.82,9.1,2.63l5.33,1.37c1.86.46,3.82.81,5.84,1.25,4,.92,8.38,1.55,13,2.29a230.43,230.43,0,0,0,30.08,2.15,232.26,232.26,0,0,0,30.08-2.14c4.57-.74,8.94-1.37,13-2.29,2-.44,4-.79,5.84-1.26l5.33-1.36c3.42-.81,6.43-1.83,9.1-2.63,1.33-.41,2.58-.77,3.71-1.15l3.08-1.09,4.26-1.51,1.12-.38a2.31,2.31,0,0,1,.38-.11,1.38,1.38,0,0,1-.36.16l-1.1.43-4.23,1.6-3.07,1.14c-1.13.39-2.37.76-3.7,1.19-2.67.82-5.67,1.87-9.09,2.7l-5.34,1.4c-1.85.48-3.82.84-5.84,1.29-4,.94-8.4,1.59-13,2.34a225.85,225.85,0,0,1-30.14,2.19A227.69,227.69,0,0,1,157.55,300c-4.58-.76-9-1.4-13-2.35-2-.45-4-.81-5.84-1.28L133.39,295c-3.42-.83-6.42-1.88-9.09-2.7-1.33-.43-2.57-.8-3.7-1.19L117.53,290l-4.23-1.6-1.1-.43A2,2,0,0,1,111.84,287.78Z"/><g class="cls-12"><path d="M112.14,287.9s8.69-18,75.81-18.8,75.81,18.8,75.81,18.8S196.06,321.29,112.14,287.9Z"/></g><path class="cls-2" d="M173.35,146.47l-.23,0-.68.06c-.59.06-1.47.08-2.6.21a71.11,71.11,0,0,0-9.47,1.57A70.06,70.06,0,0,0,146.94,153a68.77,68.77,0,0,0-33.68,34.23,70.56,70.56,0,0,0-3.34,9c-.34,1.08-.53,1.94-.7,2.52-.08.26-.14.47-.19.65a1,1,0,0,1-.08.22.67.67,0,0,1,0-.23c0-.18.08-.4.14-.67.14-.58.29-1.45.61-2.55a64.43,64.43,0,0,1,3.19-9.09A67.76,67.76,0,0,1,160.29,148a65.75,65.75,0,0,1,9.53-1.41c1.14-.1,2-.09,2.62-.12h.68A.6.6,0,0,1,173.35,146.47Z"/><path class="cls-2" d="M110.57,223.45a7.71,7.71,0,0,1-.91-2A28.53,28.53,0,0,1,108,211a7,7,0,0,1,.26-2.18c.16,0-.07,3.35.58,7.39S110.73,223.39,110.57,223.45Z"/><path class="cls-2" d="M93.75,218.28s-.23-.16-.54-.54A9.29,9.29,0,0,1,92.07,216a11.41,11.41,0,0,1,1.72-12.9,9.57,9.57,0,0,1,1.54-1.39c.41-.29.65-.41.67-.38s-.85.68-1.93,2a11.76,11.76,0,0,0-1.66,12.51C93.11,217.4,93.82,218.22,93.75,218.28Z"/><path class="cls-2" d="M185.19,114.33a13.32,13.32,0,0,0-2.35,0,6.13,6.13,0,0,0-5.24,8.16,13.12,13.12,0,0,0,1,2.11s-.21-.12-.48-.44a5.4,5.4,0,0,1-.9-1.55,6.28,6.28,0,0,1,5.56-8.65,5.46,5.46,0,0,1,1.78.17A1.56,1.56,0,0,1,185.19,114.33Z"/><path class="cls-2" d="M272.34,206.15c-.11.12-1.66-1.37-4-2.49s-4.47-1.45-4.45-1.61a9.2,9.2,0,0,1,4.67,1.14A9.32,9.32,0,0,1,272.34,206.15Z"/><path class="cls-2" d="M135.22,381.22s-.05-.06-.13-.19-.19-.35-.32-.59l-1.22-2.29-.86-1.67c-.29-.63-.6-1.3-.94-2-.68-1.45-1.44-3.11-2.19-5-.38-.94-.78-1.91-1.2-2.93l-1.19-3.22c-.86-2.21-1.59-4.64-2.45-7.16-1.56-5.09-3.1-10.75-4.45-16.75s-2.33-11.79-3.13-17.05-1.32-10.05-1.64-14.06c-.19-2-.31-3.83-.41-5.42s-.19-3-.22-4.1-.07-2-.09-2.6v-.67a1,1,0,0,1,0-.23.89.89,0,0,1,0,.23l.06.67c0,.64.1,1.5.18,2.59s.17,2.49.31,4.08.27,3.41.49,5.41c.36,4,1,8.76,1.74,14s1.85,11,3.17,17,2.86,11.63,4.4,16.72c.85,2.52,1.56,5,2.4,7.16.4,1.11.78,2.18,1.16,3.22l1.16,2.93c.72,1.88,1.46,3.54,2.12,5l.9,2,.81,1.69,1.13,2.33.28.61A.77.77,0,0,1,135.22,381.22Z"/><path class="cls-2" d="M96.05,299.7a53.48,53.48,0,0,1-7.31-.26,52.74,52.74,0,0,1-7.27-.78,49.89,49.89,0,0,1,7.31.26A49.27,49.27,0,0,1,96.05,299.7Z"/><path class="cls-2" d="M58.43,278.35a55.83,55.83,0,0,1-3.81-6.48,56.77,56.77,0,0,1-3.35-6.73,53.79,53.79,0,0,1,3.81,6.48A55,55,0,0,1,58.43,278.35Z"/><path class="cls-2" d="M170.68,412.75a5,5,0,0,1-1.17-.14,25.6,25.6,0,0,1-3.13-.76,32,32,0,0,1-4.46-1.71,33.84,33.84,0,0,1-9.54-6.71,31.81,31.81,0,0,1-3.12-3.62,24.35,24.35,0,0,1-1.77-2.68,4.74,4.74,0,0,1-.53-1.06c.08-.05.92,1.41,2.59,3.52a38.49,38.49,0,0,0,3.16,3.5,41.89,41.89,0,0,0,4.45,3.68,40.77,40.77,0,0,0,5,2.94,37.17,37.17,0,0,0,4.36,1.79C169.05,412.36,170.7,412.65,170.68,412.75Z"/><path class="cls-2" d="M186,366.49a3.51,3.51,0,0,1-.7.07,18.35,18.35,0,0,1-2,.06,26.77,26.77,0,0,1-7.33-1.19,28.78,28.78,0,0,1-9.74-5.13,26.88,26.88,0,0,1-10.38-23.9,30.1,30.1,0,0,1,1.05-5.82,29.67,29.67,0,0,1,1.85-4.8,26.42,26.42,0,0,1,4.14-6.17,17.79,17.79,0,0,1,1.42-1.44,4.92,4.92,0,0,1,.53-.46s-.66.71-1.8,2a28.42,28.42,0,0,0-4,6.2,32.73,32.73,0,0,0-1.77,4.76,31.07,31.07,0,0,0-1,5.74,26.72,26.72,0,0,0,10.2,23.49,29.49,29.49,0,0,0,9.55,5.15,28.48,28.48,0,0,0,7.23,1.34C185.05,366.49,186,366.43,186,366.49Z"/><path class="cls-2" d="M65,287.74c0,.08-.77-.29-2-.58a11.16,11.16,0,0,0-9.46,2.27c-1,.83-1.48,1.49-1.55,1.44a4.58,4.58,0,0,1,1.3-1.71,10.35,10.35,0,0,1,9.8-2.35A4.8,4.8,0,0,1,65,287.74Z"/><path class="cls-2" d="M212.61,188.31c0,.14-12.27.26-27.42.26s-27.42-.12-27.42-.26,12.28-.26,27.42-.26S212.61,188.17,212.61,188.31Z"/><path class="cls-2" d="M165.82,250.84a1.59,1.59,0,0,1-.46.07L164,251c-.58.05-1.29.09-2.12.11s-1.77.06-2.81,0a71.28,71.28,0,0,1-7.32-.44,81,81,0,0,1-8.85-1.52,82.41,82.41,0,0,1-8.6-2.59,71.11,71.11,0,0,1-6.74-2.87c-1-.44-1.77-.9-2.5-1.28s-1.36-.74-1.85-1.05l-1.15-.7a1.62,1.62,0,0,1-.38-.27s.16.05.43.18l1.19.61c.52.28,1.14.61,1.89,1s1.57.8,2.53,1.21c1.88.88,4.17,1.82,6.75,2.75a78.88,78.88,0,0,0,17.34,4.08c2.72.32,5.19.5,7.26.55,1,.06,2,0,2.81,0s1.53,0,2.11,0l1.34,0A1.43,1.43,0,0,1,165.82,250.84Z"/><path class="cls-2" d="M245.65,295.91l-.24.1-.72.27-2.78,1c-1.21.44-2.7,1-4.44,1.46s-3.72,1.17-5.95,1.73l-3.48.92c-1.21.32-2.49.57-3.8.88-2.62.64-5.46,1.14-8.45,1.7a177.38,177.38,0,0,1-39.33,2.41c-3-.19-5.9-.34-8.58-.65-1.35-.14-2.64-.24-3.89-.41l-3.56-.48c-2.28-.28-4.32-.69-6.11-1s-3.34-.62-4.59-.9l-2.88-.65-.75-.18-.25-.07a1.09,1.09,0,0,1,.27,0l.75.13,2.9.55c1.26.25,2.8.54,4.6.81s3.83.66,6.11.91l3.56.46c1.24.15,2.54.24,3.88.37,2.67.29,5.55.42,8.57.6,6,.25,12.7.26,19.68-.15s13.57-1.27,19.54-2.26c3-.54,5.81-1,8.44-1.64,1.31-.3,2.58-.55,3.8-.85l3.48-.89c2.23-.53,4.2-1.15,5.95-1.65s3.25-1,4.46-1.37l2.81-.89.74-.23A1,1,0,0,1,245.65,295.91Z"/></svg>