<svg id="Layer_1" data-name="Layer 1" xmlns="http://www.w3.org/2000/svg" viewBox="0 0 900 900"><defs><style>.cls-1{fill:#f5f5f5;}.cls-2{fill:#00b3f0;}.cls-3{fill:#366d8b;}.cls-4,.cls-5{fill:#fff;}.cls-4{opacity:0.95;}.cls-6,.cls-7{fill:#007cff;}.cls-6{opacity:0.15;}.cls-7{opacity:0.5;}.cls-8{fill:#ffc3bd;}.cls-11,.cls-9{fill:#1a2e35;}.cls-10{opacity:0.2;}.cls-11{opacity:0.7;}.cls-12{fill:#ff847f;}.cls-13{fill:#ff8b7b;}.cls-14{fill:#59c2ba;}.cls-15{opacity:0.6;}.cls-16{fill:#ff5551;}.cls-17,.cls-18{fill:none;stroke:#fff;stroke-linecap:round;stroke-linejoin:round;}.cls-17{stroke-width:3px;}.cls-18{stroke-width:2px;}</style></defs><ellipse id="_Path_" data-name="&lt;Path&gt;" class="cls-1" cx="460.17" cy="791.28" rx="397.46" ry="23.21"/><rect class="cls-2" x="594.95" y="200.57" width="2.13" height="13.49"/><path class="cls-2" d="M597.08,189.61H595A29.66,29.66,0,0,0,565.32,160v-2.13A31.79,31.79,0,0,1,597.08,189.61Z"/><rect class="cls-3" x="258.07" y="165.3" width="331.55" height="625.69" rx="11.86"/><rect class="cls-4" x="118.71" y="321.74" width="606.97" height="312.83" rx="7.29" transform="translate(900.34 55.95) rotate(90)"/><circle class="cls-3" cx="422.2" cy="741.55" r="16.9"/><path class="cls-3" d="M409.28,173a14,14,0,1,0,27.92,0Z"/><path class="cls-2" d="M514.51,233.54H332a28.17,28.17,0,0,0-28.08,28.09v18.72A28.17,28.17,0,0,0,332,308.44H514.51l28.08,16.64V261.63A28.16,28.16,0,0,0,514.51,233.54Z"/><rect class="cls-5" x="337.05" y="260.36" width="172.38" height="4.68"/><rect class="cls-5" x="370.22" y="276.94" width="139.21" height="4.68"/><path class="cls-6" d="M332,358.25H514.51a28.16,28.16,0,0,1,28.08,28.08v18.73a28.16,28.16,0,0,1-28.08,28.08H332l-28.08,16.64V386.33A28.17,28.17,0,0,1,332,358.25Z"/><rect class="cls-7" x="337.05" y="385.06" width="172.38" height="4.68"/><rect class="cls-7" x="337.05" y="401.65" width="79.95" height="4.68"/><rect class="cls-7" x="429.48" y="401.65" width="32.5" height="4.68"/><path class="cls-2" d="M514.51,483H332A28.17,28.17,0,0,0,303.88,511v18.72A28.16,28.16,0,0,0,332,557.84H514.51l28.08,16.65V511A28.16,28.16,0,0,0,514.51,483Z"/><rect class="cls-5" x="337.05" y="509.77" width="172.38" height="4.68"/><rect class="cls-5" x="370.22" y="526.35" width="139.21" height="4.68"/><path class="cls-6" d="M332,607.66h71A28.16,28.16,0,0,1,431,635.74v18.72A28.17,28.17,0,0,1,403,682.55H332l-28.08,16.64V635.74A28.16,28.16,0,0,1,332,607.66Z"/><path class="cls-7" d="M346.2,645.1a8.3,8.3,0,1,1-8.3-8.29A8.31,8.31,0,0,1,346.2,645.1Z"/><circle class="cls-7" cx="362.78" cy="638.47" r="8.29"/><path class="cls-7" d="M396,655.05a8.29,8.29,0,1,1-8.29-8.29A8.3,8.3,0,0,1,396,655.05Z"/><path class="cls-8" d="M653.54,625.15c2.26,4.49,4.27,9,6.37,13.52s4.05,9.09,6,13.69,3.85,9.2,5.66,13.9,3.63,9.38,5.29,14.29l-7.35-6.91a42.73,42.73,0,0,0,13.28,2.29,108.2,108.2,0,0,0,15.71-.72c5.4-.57,10.86-1.46,16.35-2.49s11.08-2.29,16.38-3.54L736.08,681a142.49,142.49,0,0,1-16.5,7.74,153.72,153.72,0,0,1-17.41,5.78,106.36,106.36,0,0,1-18.79,3.28,60,60,0,0,1-21.09-1.72l-4.8-1.33-2.55-5.59c-3.94-8.62-8.19-17.49-12.38-26.32-2.09-4.43-4.2-8.86-6.24-13.33s-4.14-8.92-6.08-13.38Z"/><path class="cls-8" d="M724.64,672.84,732.7,665l12.78,13.85s-4.64,8.09-16.14,3.38Z"/><polygon class="cls-8" points="744.82 659.75 751.87 671.27 745.48 678.81 732.7 664.96 744.82 659.75"/><path class="cls-9" d="M617.34,606.72c16.47-6.32,29.12,3.12,49.83,29.29L642.91,661S585.37,619,617.34,606.72Z"/><path class="cls-10" d="M648.14,633.79c-7.76-5-14.51-3.6-20.2,1.06,2.15,8,7.67,17.11,13,24.59,1.26,1,2,1.51,2,1.51L656.45,647C655.42,640.92,652.42,636.54,648.14,633.79Z"/><polygon class="cls-8" points="742.24 780.63 761.87 778.35 760.25 738.08 740.62 740.35 742.24 780.63"/><path class="cls-9" d="M762.05,769.88l-22.12.31a1.5,1.5,0,0,0-1.42,1.35l-2.5,17.4a2.94,2.94,0,0,0,2.77,3.44c6.87-.23,10-.76,18.7-.88,5.34-.08,21.46.31,28.83.2,7.21-.11,7.88-8.22,4.82-8.91-13.71-3.1-21.6-7.49-26.17-11.75A4.15,4.15,0,0,0,762.05,769.88Z"/><path class="cls-2" d="M766.74,764.75a2.14,2.14,0,0,1,1.89.23,1.44,1.44,0,0,1,.8,1.13c.25,2.14-4.19,5.73-4.7,6.14a.34.34,0,0,1-.41,0,.42.42,0,0,1-.21-.39c.15-2.21.66-6.06,2.41-7ZM765,771c1.73-1.49,3.86-3.74,3.72-4.86a.6.6,0,0,0-.36-.49,1.38,1.38,0,0,0-1.4-.11C766,766.08,765.25,768.09,765,771Z"/><path class="cls-2" d="M766.53,770.32c1.69-.68,3.74-1.07,4.76-.42a1.49,1.49,0,0,1,.63,1.64,1.9,1.9,0,0,1-1,1.38c-2,1.13-6.4-.55-6.58-.63a.4.4,0,0,1-.26-.3.38.38,0,0,1,.11-.37A8.08,8.08,0,0,1,766.53,770.32Zm3.82,2,.22-.1a1.2,1.2,0,0,0,.61-.87c.08-.5-.09-.68-.25-.78-1-.62-4,.19-5.62,1.23C766.72,772.26,769.09,772.82,770.35,772.32Z"/><polygon class="cls-10" points="740.61 740.37 760.25 738.09 761.08 758.85 741.35 758.94 740.61 740.37"/><path class="cls-2" d="M644.34,717s50.95-47.4,84-48.11c24.16-.52,41.43,79.34,41.43,79.34l-28.63.55s-5-28.24-23.8-36c-27.09,40.68-137.56,121-127,33.93C606.59,740.48,644.34,717,644.34,717Z"/><path class="cls-10" d="M644.34,717s50.95-47.4,84-48.11c24.16-.52,41.43,79.34,41.43,79.34l-28.63.55s-5-28.24-23.8-36c-27.09,40.68-137.56,121-127,33.93C606.59,740.48,644.34,717,644.34,717Z"/><polygon class="cls-9" points="769.68 752.2 735.95 755.43 736.05 743.13 771.75 738.89 769.68 752.2"/><path class="cls-9" d="M577.43,749.66s-21.92-42.78-24.56-111.73c-.62-16.24,14-31.55,30.7-32.42,14.07-.73,28.94-.92,40.94-.87s21.28,8,22.66,19.63c3,25.6,3.55,64.43,19.25,110.72Z"/><path class="cls-10" d="M563.11,638.29c12-13.65,16.21-9.3,18-7.66,16.74,15.16-7.83,62.31-12.75,69.27a342.09,342.09,0,0,1-6.23-53.43A27.09,27.09,0,0,1,563.11,638.29Z"/><path class="cls-8" d="M599.89,564.55c-1.35,12.55-4.67,31.85-13.23,40.81,6.73,6.32,17.67,12.56,33.24,15.16,8-3.33,9.11-10.72,5.21-15.87-13.73-2.4-13.58-6.29-8.38-15Z"/><path class="cls-10" d="M606.75,574.77l10,14.82a26.77,26.77,0,0,0-3.05,6.58c-4.88-2-10.3-9.52-9.19-15A19.24,19.24,0,0,1,606.75,574.77Z"/><path class="cls-9" d="M635.89,541.38c8.05,8.55,25,8.59,17.72-1.55S629.62,534.71,635.89,541.38Z"/><path class="cls-8" d="M603.24,540.46c-4.49,16.31-7.94,25.58-2.84,36.91a21.82,21.82,0,0,0,38.65,3.06c8.26-13,14.22-37.45,1.08-49.9C627.19,518.26,607.73,524.15,603.24,540.46Z"/><path class="cls-8" d="M599.6,555.66c2-.36,12.18-3.44,17.12-8.19,5.57-5.34,5.61-10.51,4.07-12.88s-13.24-6.89-18.7-5.84c-8.65,1.65-6.51,17-6.4,21.11A6.87,6.87,0,0,0,599.6,555.66Z"/><path class="cls-11" d="M599.6,555.66c2-.36,12.18-3.44,17.12-8.19,5.57-5.34,5.61-10.51,4.07-12.88s-13.24-6.89-18.7-5.84c-8.65,1.65-6.51,17-6.4,21.11A6.87,6.87,0,0,0,599.6,555.66Z"/><path class="cls-8" d="M591,556.8a15.32,15.32,0,0,0,8,7.81c4.71,1.92,7.4-2.13,6.37-6.85-.92-4.25-4.48-10.38-9.34-10.29S589.05,552.45,591,556.8Z"/><path class="cls-9" d="M606.4,533.63c20.89,4.47,35.75,16.24,45.65,9.16,7-5,2.4-14.13-5.62-20.73-6.84-5.63-16.31-7.38-19.27-12-1.4,5.07,3.24,8.21,3.24,8.21s-18.89-2.91-24.12-7.83c-1.25,2.94,3.6,8.59,3.6,8.59s-5.34,5.06-20.61-.66C590.28,523.28,594.51,531.08,606.4,533.63Z"/><path class="cls-9" d="M647.92,544.45l-.82,0,.07-1.06c4,.26,7.31-1.62,8.71-5.06s.81-8.76-3.78-12.71a28.65,28.65,0,0,0-5.87-3.53c-4.87-2.44-10.39-5.21-13.05-13.26l1-.34c2.53,7.64,7.61,10.18,12.52,12.65a29.59,29.59,0,0,1,6.08,3.67c5,4.3,5.64,10.09,4.08,13.93A9.23,9.23,0,0,1,647.92,544.45Z"/><path class="cls-9" d="M626.93,556.38c-.45,1.3-.13,2.62.7,3s1.87-.44,2.31-1.74.13-2.62-.7-3S627.37,555.09,626.93,556.38Z"/><path class="cls-9" d="M642.39,561c-.44,1.3-.12,2.62.71,3s1.86-.44,2.31-1.74.13-2.62-.7-3S642.84,559.75,642.39,561Z"/><path class="cls-12" d="M636.71,559.48s.34,8.64,2.29,13.52c-3,1.24-6.48-1.27-6.48-1.27Z"/><path class="cls-9" d="M624.14,574.85a12.11,12.11,0,0,1-5.74-7.13.39.39,0,0,1,.29-.48.41.41,0,0,1,.48.32,11.56,11.56,0,0,0,6.85,7.3.43.43,0,0,1,.25.53.39.39,0,0,1-.51.23A13.5,13.5,0,0,1,624.14,574.85Z"/><path class="cls-9" d="M622.72,547.9a.8.8,0,0,1-.3-.28.83.83,0,0,1,.22-1.13,7.61,7.61,0,0,1,7.17-.71.86.86,0,0,1,.41,1.09.75.75,0,0,1-1,.39h0a6.07,6.07,0,0,0-5.67.63A.77.77,0,0,1,622.72,547.9Z"/><path class="cls-9" d="M647.65,557.22a.85.85,0,0,1-.53-.56,6.74,6.74,0,0,0-3.89-4.49.86.86,0,0,1-.54-1,.75.75,0,0,1,1-.53,8.44,8.44,0,0,1,5,5.62.79.79,0,0,1-.52,1A.72.72,0,0,1,647.65,557.22Z"/><polygon class="cls-8" points="810.37 790.19 822.05 773.19 790.58 745.79 778.89 762.79 810.37 790.19"/><path class="cls-9" d="M814,765.16l-13.73,17.09a1.6,1.6,0,0,0,0,2L811,797.54a2.71,2.71,0,0,0,4.23.05c4.32-5.58,7.2-9.86,12.77-16.78,3.42-4.26,14.19-16.73,18.92-22.61s-.68-11.57-3.16-9.6c-11.12,8.8-21,14.18-27,15A4.23,4.23,0,0,0,814,765.16Z"/><path class="cls-2" d="M813.07,758.16a2.12,2.12,0,0,1,1.32-1.39,1.47,1.47,0,0,1,1.38,0c1.86,1.08,2.09,6.79,2.11,7.43a.38.38,0,0,1-.23.35.44.44,0,0,1-.44-.07c-1.68-1.44-4.47-4.15-4.19-6.13A1.55,1.55,0,0,1,813.07,758.16Zm4,5.18c-.16-2.28-.69-5.33-1.67-5.89a.58.58,0,0,0-.61,0,1.39,1.39,0,0,0-.94,1C813.67,759.57,814.86,761.35,817,763.34Z"/><path class="cls-2" d="M817.41,761.65c.47-1.76,1.38-3.64,2.51-4.07a1.5,1.5,0,0,1,1.69.47,1.89,1.89,0,0,1,.53,1.6c-.28,2.26-4.26,4.8-4.43,4.91a.43.43,0,0,1-.4,0,.39.39,0,0,1-.23-.31A8,8,0,0,1,817.41,761.65Zm3.89-1.87c0-.08,0-.16.05-.23a1.22,1.22,0,0,0-.34-1c-.34-.37-.59-.34-.77-.27-1.09.42-2.24,3.33-2.37,5.24C819.08,762.66,821,761.09,821.3,759.78Z"/><polygon class="cls-10" points="778.9 762.8 790.59 745.79 806.81 759.93 793.41 775.45 778.9 762.8"/><path class="cls-2" d="M609.43,743.43s89.58-91,129.89-52.08c25.12,24.27,62,57.71,62,57.71l-21.46,20.8s-54.16-28.8-68.25-44.71c-74,82.73-140.16,88.4-134.2,24.51A250.28,250.28,0,0,1,609.43,743.43Z"/><polygon class="cls-9" points="807.71 749.25 784.23 778.77 774.26 772.07 798.26 740.72 807.71 749.25"/><path class="cls-8" d="M577.72,632.14l1.77,37.32c.33,6.19.72,12.36,1.2,18.4.24,3,.56,6,.91,8.85.16,1.42.36,2.82.58,4.09s.47,2.46.64,3.17a1.86,1.86,0,0,1,.07.34c0-.17-.16-.24-.28-.45a4.89,4.89,0,0,0-1.1-1.07,3.16,3.16,0,0,0-1.12-.54c-.21-.07-.35,0-.23,0,.37.27,2.7.22,5-.32a86,86,0,0,0,15.77-5.61c5.46-2.39,10.93-5.16,16.38-8s10.94-5.92,16.26-8.9l7.67,10.19a208.51,208.51,0,0,1-31.18,23.93c-2.86,1.75-5.82,3.42-8.94,5a69.18,69.18,0,0,1-10.1,4.26,44.54,44.54,0,0,1-6,1.53,27.83,27.83,0,0,1-7.66.35,20.14,20.14,0,0,1-4.84-1,19.38,19.38,0,0,1-5.25-2.82,18.77,18.77,0,0,1-4.23-4.6,22,22,0,0,1-1.41-2.53l-.77-1.87a54,54,0,0,1-1.82-6c-.46-1.82-.82-3.53-1.16-5.22-.66-3.39-1.17-6.69-1.63-10-.94-6.52-1.62-12.95-2.2-19.36-1.14-12.85-1.81-25.52-2-38.42Z"/><path class="cls-9" d="M571.43,608.09c-9.66,1.1-24.1,10.2-24.62,52.86l41.42-3.27S607.69,604,571.43,608.09Z"/><path class="cls-2" d="M668.34,657.85l-15.36,1a4.54,4.54,0,0,0-3.82,3.45L642,696.08a2.32,2.32,0,0,0,2.44,3l15.37-1a4.53,4.53,0,0,0,3.81-3.45l7.2-33.77A2.32,2.32,0,0,0,668.34,657.85Z"/><path class="cls-8" d="M634.77,678.63l12.73-4.41-3.14,19.94s-14.18,3.12-15.36-4.5l2.06-6.8A6.45,6.45,0,0,1,634.77,678.63Z"/><polygon class="cls-8" points="662.05 675.89 656.53 693.64 644.36 694.16 647.5 674.22 662.05 675.89"/><path class="cls-9" d="M221.09,257.71c-10-23.23,44.57-47.54,60-11.38,26.18,11.38-7.28,59.76.29,68s13.26-1.75,13.26-1.75,7.64,20.37-11.84,36.7c-17.48,14.65-70,18.63-70.13-10.24C212.48,301.54,234.23,288.25,221.09,257.71Z"/><polygon class="cls-13" points="271.26 745.41 256.59 753.95 221.35 713.66 239.64 697.18 271.26 745.41"/><path class="cls-9" d="M254.91,750.26l15.14-11.62a1.29,1.29,0,0,1,1.72,0l10.14,9.88a2.65,2.65,0,0,1-.47,3.9c-5.34,4-8.1,5.62-14.76,10.73-4.09,3.14-12.26,10-17.92,14.38s-9.88-.66-7.89-2.94c9-10.23,10.92-16.35,12.37-21.87A4.71,4.71,0,0,1,254.91,750.26Z"/><path class="cls-14" d="M251.51,756.34a6.69,6.69,0,0,1-3.85,1.73,2,2,0,0,1-1.67-1,1.22,1.22,0,0,1-.05-1.21c1-2.11,8.31-3.67,9.14-3.84a.38.38,0,0,1,.4.18.4.4,0,0,1-.07.45A30.57,30.57,0,0,1,251.51,756.34Zm-4.36-.76a1.54,1.54,0,0,0-.51.56.48.48,0,0,0,0,.49,1.27,1.27,0,0,0,1.08.67c1.34.06,3.65-1.52,6.28-4.28C251.56,753.61,248.43,754.6,247.15,755.58Z"/><path class="cls-14" d="M255.35,752.69a.35.35,0,0,1-.15.07c-2.11.56-7.33.28-8.15-1.34-.2-.39-.26-1,.56-1.77a3.11,3.11,0,0,1,2.16-.84c2.68,0,5.54,3.18,5.66,3.31a.38.38,0,0,1,.07.37A.43.43,0,0,1,255.35,752.69Zm-7-2.65-.19.16c-.54.5-.41.75-.37.83.49,1,4.25,1.46,6.59,1.13-.9-.87-2.88-2.56-4.64-2.57A2.13,2.13,0,0,0,248.31,750Z"/><path class="cls-13" d="M217.91,342c-1,4.4-2.07,8.39-3.29,12.51s-2.49,8.14-4,12.14a212.9,212.9,0,0,1-10,23.66l-3,5.74c-1.08,1.89-2.14,3.78-3.28,5.64l-1.77,2.78c-.61.94-1.08,1.78-1.92,2.88-.41.54-.82,1.07-1.36,1.7a15.29,15.29,0,0,1-2.34,2.21,9.28,9.28,0,0,1-3.51,1.65,8,8,0,0,1-1.81.2,7.21,7.21,0,0,1-2.19-.31,7.85,7.85,0,0,1-3.51-2.13,8.41,8.41,0,0,1-2-3.48,10.71,10.71,0,0,1-.38-1.88,19.79,19.79,0,0,1,.06-4.44c.15-1.23.34-2.37.55-3.49.4-2.22.95-4.32,1.51-6.4a112.53,112.53,0,0,1,4.11-12.14l8.09,1.81-.54,12.2c-.1,2-.14,4-.16,5.87,0,.94,0,1.86.08,2.69a6.14,6.14,0,0,0,.27,1.74s0-.05,0-.37a4.86,4.86,0,0,0-1.27-2.12,6.57,6.57,0,0,0-2.86-1.74,7.16,7.16,0,0,0-1.81-.26,6.91,6.91,0,0,0-1.43.16,5.66,5.66,0,0,0-2.15.93c-.43.31-.27.15-.19,0l.47-.8,2.75-4.92c.92-1.72,1.77-3.5,2.67-5.23l2.52-5.34c3.19-7.23,6.09-14.67,8.6-22.26,1.27-3.8,2.45-7.63,3.62-11.45s2.2-7.79,3.14-11.42Z"/><path class="cls-13" d="M210.9,320.68c-6,1-15.38,38.74-15.38,38.74L209.23,370s13.77-27.3,14.35-39.57C224,321.49,215.38,320,210.9,320.68Z"/><path class="cls-13" d="M189.39,382.58l-2.31-18.8-10.76,15.79s1.38,6.5,8,7.57Z"/><polygon class="cls-13" points="264.61 777.28 248.21 777.85 245.07 720.6 267.83 720.92 264.61 777.28"/><path class="cls-9" d="M247.09,772.62l18.39-.13a1.17,1.17,0,0,1,1.23,1.1l1.11,14.53a2.87,2.87,0,0,1-2.82,2.93c-6.4-.06-9.47-.42-17.56-.36-5,0-12.28.6-19.15.65-6.72,0-6.78-6.74-3.87-7.37,13-2.85,15.3-6.67,19.87-10.33A4.51,4.51,0,0,1,247.09,772.62Z"/><path class="cls-14" d="M209.89,320.56s-8.15,2.06-8.27,99.07l65.76,5.81c3.28-27,6-43.65,27.75-97.81a186.61,186.61,0,0,0-27.32-6.18c-11-1.51-20-2.67-29.86-2.64C224.93,318.85,209.89,320.56,209.89,320.56Z"/><path class="cls-10" d="M282.18,340,285.67,352c-2.74,7.4-5,13.93-6.93,19.82C276.74,360.74,279.52,346.32,282.18,340Z"/><polygon class="cls-13" points="187.07 363.78 176.32 379.57 189.38 378.81 196.37 364.39 187.07 363.78"/><path class="cls-9" d="M193.89,400.08l12.4-.18a2.86,2.86,0,0,0,2.79-3.25l-3.84-27.57a2.84,2.84,0,0,0-2.87-2.46L190,366.8a2.84,2.84,0,0,0-2.79,3.24L191,397.62A2.85,2.85,0,0,0,193.89,400.08Z"/><path class="cls-13" d="M270.36,287.34c-3.46,9.51-8.22,27.06-2.55,34.11,0,0-12.25,11.1-32.61,19.79-6.85-16,2.75-22.43,2.75-22.43,11.13-1.63,12.16-9.65,11.51-17.33Z"/><path class="cls-9" d="M225.31,276.44c-1.72,28.47-18.85,36.63-14.82,51.19,5.67,20.52,28.84,4.44,28.84,4.44s-12.6,4.09-13.4-5.86c-.66-8.14,28.44-6.92,20.36-26.21C241.12,287.64,225.31,276.44,225.31,276.44Z"/><path class="cls-10" d="M264.39,294.54l-14.92,6.93a29.78,29.78,0,0,1,.05,5.42c3.12.27,11.19-2.09,14.24-7.1A7.56,7.56,0,0,0,264.39,294.54Z"/><path class="cls-13" d="M272.94,260.56c1.5,16.17,2.48,23-4.33,32.46-10.25,14.25-30.44,12.56-36.74-2.84-5.67-13.85-7.17-38,7.52-46.77A22.14,22.14,0,0,1,272.94,260.56Z"/><path class="cls-9" d="M269.37,244.37c-12.74-8.76-23.34,8-.71,24.39S283.84,254.31,269.37,244.37Z"/><path class="cls-9" d="M262.59,239.66c5.26,4.74-26.1,22.2-43.14,16.43s-3.38-18.82,2.84-20.42c-5.33,5.15,4,13,8.52,8.08S252,230.16,262.59,239.66Z"/><path class="cls-14" d="M201.62,419.63s-34.71,147-31.67,184.06c3.55,43.38,51,113.29,51,113.29l21.79-19.76s-21.64-57.29-37.64-94.6c5.13-37.3,50.43-142.72,50.43-178.22Z"/><path class="cls-15" d="M201.62,419.63s-34.71,147-31.67,184.06c3.55,43.38,51,113.29,51,113.29l21.79-19.76s-21.64-57.29-37.64-94.6c5.13-37.3,50.43-142.72,50.43-178.22Z"/><polygon class="cls-14" points="246.75 700.16 221 719.36 214.39 714.34 242.64 692.05 246.75 700.16"/><path class="cls-10" d="M227.29,484.27c-19.11,26.48-20,75.18-18.86,102.54,6.57-25.14,20.33-62.68,31.28-96.49C239.46,477.32,236.24,471.87,227.29,484.27Z"/><path class="cls-14" d="M214,419.75s12.7,126.92,17,169.76c5,50.86,12.44,132.43,12.44,132.43l24.49-1s5.37-69.15,1.38-114.72c.73-60.49,9.65-142.71-1.83-180.76Z"/><path class="cls-15" d="M214,419.75s12.7,126.92,17,169.76c5,50.86,12.44,132.43,12.44,132.43l24.49-1s5.37-69.15,1.38-114.72c.73-60.49,9.65-142.71-1.83-180.76Z"/><polygon class="cls-14" points="269.68 725.39 241.6 724.6 239.64 715.77 271.4 714.88 269.68 725.39"/><path class="cls-9" d="M247.81,269.48c.2,1.31-.32,2.47-1.18,2.61s-1.7-.82-1.91-2.13.33-2.47,1.18-2.6S247.61,268.18,247.81,269.48Z"/><path class="cls-9" d="M233.07,271.77c.2,1.3-.33,2.47-1.18,2.6s-1.71-.82-1.91-2.12.33-2.47,1.18-2.6S232.87,270.47,233.07,271.77Z"/><path class="cls-9" d="M231.55,269.66l-3.28-.42S230.26,271.44,231.55,269.66Z"/><path class="cls-16" d="M237.91,273.05s-1.35,6-3.36,9.05c2,1.34,4.78.15,4.78.15Z"/><path class="cls-9" d="M247.82,285.82a12.19,12.19,0,0,1-2.16.53.39.39,0,1,1-.12-.77,10.43,10.43,0,0,0,7.8-5.34.37.37,0,0,1,.51-.19.38.38,0,0,1,.19.51A10.77,10.77,0,0,1,247.82,285.82Z"/><path class="cls-13" d="M277.43,271.61a11.9,11.9,0,0,1-4,8.13c-3.15,2.71-6.49.32-7.09-3.58-.54-3.5.45-9.15,4.32-10.36S277.65,267.77,277.43,271.61Z"/><path class="cls-9" d="M254.52,261.41a.77.77,0,0,1-.6-.13,6.16,6.16,0,0,0-5.52-.91.78.78,0,0,1-.59-1.44,7.72,7.72,0,0,1,7,1.08.77.77,0,0,1,.19,1.08A.78.78,0,0,1,254.52,261.41Z"/><path class="cls-9" d="M226.68,266.1a.71.71,0,0,1-.57,0,.78.78,0,0,1-.38-1,7.66,7.66,0,0,1,5.48-4.46.77.77,0,0,1,.23,1.53,6.12,6.12,0,0,0-4.3,3.59A.78.78,0,0,1,226.68,266.1Z"/><path class="cls-13" d="M299.55,347.31c.31,3,.47,5.57.56,8.33s.15,5.44.13,8.16c-.09,5.45-.43,10.9-1.06,16.37a111.51,111.51,0,0,1-3.08,16.42,77.53,77.53,0,0,1-2.65,8.16c-.51,1.36-1.09,2.7-1.69,4,0,0-.3.65-.51,1a7.5,7.5,0,0,1-.75,1.19,11.68,11.68,0,0,1-1.77,2,13.73,13.73,0,0,1-3.59,2.26,20.16,20.16,0,0,1-5.81,1.48,35.17,35.17,0,0,1-4.83.2,69.07,69.07,0,0,1-8.64-.76,145.38,145.38,0,0,1-15.93-3.43c-5.15-1.41-10.22-3-15.24-4.63s-9.94-3.51-14.87-5.58l2.55-7.88c5,1.08,10,2.24,15.09,3.21s10.06,2,15.08,2.78,10,1.5,14.83,1.8a56.34,56.34,0,0,0,6.94.13,22,22,0,0,0,3-.34,6.33,6.33,0,0,0,1.7-.53c0-.05-.06,0-.31.18a2.59,2.59,0,0,0-.49.5l-.24.36c-.06.1-.18.41-.08.15.39-1.06.77-2.13,1.11-3.24.68-2.21,1.26-4.48,1.77-6.8a121.49,121.49,0,0,0,2.06-14.35c.44-4.88.59-9.84.58-14.8,0-2.48,0-5-.1-7.45s-.21-5-.37-7.25Z"/><path class="cls-13" d="M295.07,327.62c7.07,4.62,4.67,44.82,4.67,44.82l-16.65,3.33s-.15-20.4-1.93-33.78C280,333,290,324.33,295.07,327.62Z"/><path class="cls-14" d="M238.07,774.51a2.15,2.15,0,0,1-.34-1.88,1.47,1.47,0,0,1,.84-1.1c2-.87,6.72,2.3,7.26,2.67a.36.36,0,0,1,.14.39.44.44,0,0,1-.31.31c-2.16.51-6,1.17-7.43-.22A1.29,1.29,0,0,1,238.07,774.51Zm6.53-.16c-1.95-1.21-4.72-2.57-5.75-2.11a.6.6,0,0,0-.36.49,1.41,1.41,0,0,0,.3,1.38C239.57,774.86,241.71,774.94,244.6,774.35Z"/><path class="cls-14" d="M243.45,773.05c-1.14-1.41-2.13-3.25-1.82-4.42a1.49,1.49,0,0,1,1.38-1.09,1.92,1.92,0,0,1,1.61.5c1.66,1.56,1.37,6.28,1.36,6.48a.43.43,0,0,1-.22.34.39.39,0,0,1-.38,0A8,8,0,0,1,243.45,773.05Zm.78-4.25-.17-.17a1.16,1.16,0,0,0-1-.32c-.5.06-.62.28-.67.47-.3,1.12,1.38,3.76,2.85,5C245.25,772.29,245.08,769.86,244.23,768.8Z"/><path class="cls-5" d="M269,421.65l.71,6.07c.16.48-.46.9-1.22.83l-67.68-6c-.6-.05-1-.39-1-.77l.38-6c0-.41.59-.71,1.24-.66l66.6,5.89A1.12,1.12,0,0,1,269,421.65Z"/><path class="cls-14" d="M258.83,428.35l1.79.16c.35,0,.65-.13.66-.36l.42-7.77c0-.23-.27-.44-.62-.47l-1.79-.16c-.35,0-.65.13-.66.36l-.42,7.77C258.2,428.11,258.48,428.32,258.83,428.35Z"/><path class="cls-15" d="M258.83,428.35l1.79.16c.35,0,.65-.13.66-.36l.42-7.77c0-.23-.27-.44-.62-.47l-1.79-.16c-.35,0-.65.13-.66.36l-.42,7.77C258.2,428.11,258.48,428.32,258.83,428.35Z"/><path class="cls-14" d="M205.72,423.65l1.78.16c.35,0,.66-.13.67-.36l.41-7.77c0-.23-.26-.44-.62-.47l-1.78-.16c-.36,0-.66.13-.67.36l-.42,7.77C205.08,423.41,205.36,423.62,205.72,423.65Z"/><path class="cls-15" d="M205.72,423.65l1.78.16c.35,0,.66-.13.67-.36l.41-7.77c0-.23-.26-.44-.62-.47l-1.78-.16c-.36,0-.66.13-.67.36l-.42,7.77C205.08,423.41,205.36,423.62,205.72,423.65Z"/><path class="cls-14" d="M232.27,426l1.79.16c.35,0,.65-.13.67-.36l.41-7.77c0-.23-.27-.44-.62-.47l-1.78-.16c-.36,0-.66.13-.67.36l-.42,7.77C231.64,425.76,231.92,426,232.27,426Z"/><path class="cls-15" d="M232.27,426l1.79.16c.35,0,.65-.13.67-.36l.41-7.77c0-.23-.27-.44-.62-.47l-1.78-.16c-.36,0-.66.13-.67.36l-.42,7.77C231.64,425.76,231.92,426,232.27,426Z"/><path class="cls-13" d="M224.94,395.38l-10.18-13.67-4.27,16.35s7.62,6.67,14.1,4.07Z"/><polygon class="cls-13" points="201.56 378.7 198.72 392.53 212.56 399.6 214.76 381.7 201.56 378.7"/><path class="cls-9" d="M246.29,267.38,243,267S245,269.16,246.29,267.38Z"/><circle class="cls-3" cx="672.59" cy="343.91" r="48.31"/><circle class="cls-2" cx="790.98" cy="267.35" r="10.36"/><circle class="cls-2" cx="132.51" cy="322.26" r="15"/><circle class="cls-2" cx="337.05" cy="112.59" r="10.36"/><circle class="cls-3" cx="101.92" cy="471.58" r="47.77"/><circle class="cls-2" cx="696.8" cy="149.79" r="64.28"/><circle class="cls-2" cx="121.99" cy="186.92" r="79.62"/><polygon class="cls-17" points="86.8 185.61 157.19 155.29 145.53 218.54 119.89 198.92 144.95 169 108.62 192.7 86.8 185.61"/><polyline class="cls-17" points="108.62 192.7 115.61 213.29 126.4 203.9 119.89 198.92 115.81 212.59"/><polygon class="cls-17" points="696.8 122.95 674.9 176.63 696.8 165.3 718.69 176.63 696.8 122.95"/><path class="cls-18" d="M94.92,462.26H78.59A4.78,4.78,0,0,0,73.82,467V485.7a4.78,4.78,0,0,0,4.77,4.78h23.07l6.92,6.7V474.57"/><path class="cls-18" d="M125.25,474.21H102.19l-6.93,6.69V450.77A4.78,4.78,0,0,1,100,446h25.21a4.78,4.78,0,0,1,4.78,4.78v18.66A4.78,4.78,0,0,1,125.25,474.21Z"/><line class="cls-18" x1="103.42" y1="454.91" x2="121.87" y2="454.91"/><line class="cls-18" x1="103.42" y1="460.36" x2="121.87" y2="460.36"/><line class="cls-18" x1="103.42" y1="465.81" x2="121.87" y2="465.81"/><line class="cls-18" x1="81.98" y1="470.64" x2="95.26" y2="470.64"/><line class="cls-18" x1="81.98" y1="476.09" x2="95.26" y2="476.09"/><line class="cls-18" x1="81.98" y1="481.54" x2="95.26" y2="481.54"/><path class="cls-17" d="M688.07,362.75H664.4a7,7,0,0,1-7-7V334.13a2.8,2.8,0,0,0-1-2.13l-6-5.2a1,1,0,0,1,.64-1.72h37a7,7,0,0,1,7,7v23.66A7,7,0,0,1,688.07,362.75Z"/><line class="cls-17" x1="664.11" y1="334.13" x2="689.01" y2="334.13"/><line class="cls-17" x1="664.11" y1="340.9" x2="689.01" y2="340.9"/><line class="cls-17" x1="664.11" y1="347.67" x2="689.01" y2="347.67"/><line class="cls-17" x1="664.11" y1="354.45" x2="689.01" y2="354.45"/></svg>