<?xml version="1.0" encoding="UTF-8"?> <svg xmlns="http://www.w3.org/2000/svg" xmlns:xlink="http://www.w3.org/1999/xlink" width="649px" height="483px" viewBox="0 0 649 483" version="1.1"><title>girl_lockchat</title><defs><rect id="path-1" x="-2.13162821e-14" y="7.10542736e-15" width="62.55" height="62.55" rx="31.275"></rect></defs><g id="Page-1" stroke="none" stroke-width="1" fill="none" fill-rule="evenodd"><g id="girl_lockchat"><polygon id="Path" fill="#EBEBEB" fill-rule="nonzero" points="648.561 424.678 0 424.678 0 425.002 648.561 425.002"></polygon><polygon id="Path" fill="#EBEBEB" fill-rule="nonzero" points="583.575 445.549 540.614 445.549 540.614 445.873 583.575 445.873"></polygon><polygon id="Path" fill="#EBEBEB" fill-rule="nonzero" points="429.632 449.076 418.36 449.076 418.36 449.401 429.632 449.401"></polygon><polygon id="Path" fill="#EBEBEB" fill-rule="nonzero" points="539.318 433.511 514.426 433.511 514.426 433.835 539.318 433.835"></polygon><polygon id="Path" fill="#EBEBEB" fill-rule="nonzero" points="124.07 435.69 68.0469 435.69 68.0469 436.015 124.07 436.015"></polygon><polygon id="Path" fill="#EBEBEB" fill-rule="nonzero" points="143.838 435.69 135.627 435.69 135.627 436.015 143.838 436.015"></polygon><polygon id="Path" fill="#EBEBEB" fill-rule="nonzero" points="292.047 441.164 170.532 441.164 170.532 441.489 292.047 441.489"></polygon><path d="M307.418,366.826 L56.9571,366.826 C54.995,366.826 53.1144,366.041 51.7282,364.652 C50.342,363.264 49.5635,361.382 49.5635,359.42 L49.5635,7.34171 C49.5806,5.39087 50.3666,3.52555 51.751,2.15091 C53.1354,0.776273 55.0062,0 56.9571,0 L307.418,0 C309.383,0 311.267,0.780333 312.656,2.16933 C314.045,3.55833 314.825,5.44222 314.825,7.40657 L314.825,359.42 C314.825,361.384 314.045,363.268 312.656,364.657 C311.267,366.046 309.383,366.826 307.418,366.826 L307.418,366.826 Z M56.9571,0.259425 C55.081,0.259425 53.2829,1.01054 51.9575,2.33836 C50.6321,3.66617 49.8878,5.46562 49.8878,7.34171 L49.8878,359.42 C49.8878,361.296 50.6321,363.095 51.9575,364.423 C53.2829,365.751 55.081,366.498 56.9571,366.502 L307.418,366.502 C309.296,366.498 311.095,365.751 312.423,364.424 C313.75,363.096 314.497,361.297 314.501,359.42 L314.501,7.34171 C314.497,5.46443 313.75,3.66501 312.423,2.33757 C311.095,1.01012 309.296,0.259425 307.418,0.259425 L56.9571,0.259425 Z" id="Shape" fill="#F5F5F5" fill-rule="nonzero" opacity="0.5"></path><path d="M587.999,366.826 L337.525,366.826 C335.561,366.826 333.68,366.041 332.291,364.653 C330.903,363.265 330.122,361.383 330.118,359.42 L330.118,7.34171 C330.139,5.38969 330.928,3.52438 332.314,2.1501 C333.7,0.77582 335.573,0 337.525,0 L587.999,0 C589.948,0.00675087 591.815,0.781191 593.197,2.15546 C594.578,3.52974 595.363,5.39311 595.38,7.34171 L595.38,359.42 C595.38,361.379 594.603,363.259 593.22,364.648 C591.836,366.036 589.959,366.819 587.999,366.826 L587.999,366.826 Z M337.525,0.259425 C335.647,0.259425 333.848,1.01012 332.521,2.33757 C331.193,3.66501 330.446,5.46443 330.442,7.34171 L330.442,359.42 C330.446,361.297 331.193,363.096 332.521,364.424 C333.848,365.751 335.647,366.498 337.525,366.502 L587.999,366.502 C589.876,366.498 591.676,365.751 593.003,364.424 C594.331,363.096 595.078,361.297 595.081,359.42 L595.081,7.34171 C595.078,5.46443 594.331,3.66501 593.003,2.33757 C591.676,1.01012 589.876,0.259425 587.999,0.259425 L337.525,0.259425 Z" id="Shape" fill="#F5F5F5" fill-rule="nonzero" opacity="0.5"></path><polygon id="Path" fill="#E0E0E0" fill-rule="nonzero" points="395.609 389.552 421.759 389.552 421.759 370.588 395.609 370.588"></polygon><polygon id="Path" fill="#E0E0E0" fill-rule="nonzero" points="434.575 389.552 457.78 389.552 457.78 378.033 434.575 378.033"></polygon><polygon id="Path" fill="#E0E0E0" fill-rule="nonzero" points="413.548 393.677 414.236 395.947 423.549 395.947 424.249 393.677 436.546 393.677 436.546 418.854 395.726 418.854 395.726 393.677"></polygon><polygon id="Path" fill="#806FB1" fill-rule="nonzero" points="247.932 68.2806 94.0547 68.2806 94.0547 227.282 247.932 227.282"></polygon><polygon id="Path" fill="#806FB1" fill-rule="nonzero" points="253.315 68.2806 99.4375 68.2806 99.4375 227.282 253.315 227.282"></polygon><polygon id="Path" fill="#8677B5" fill-rule="nonzero" points="249.243 72.0549 103.316 72.0549 103.316 223.598 249.243 223.598"></polygon><polygon id="Path" fill="#8677B5" fill-rule="nonzero" points="245.598 72.0549 103.316 72.0549 103.316 223.598 245.598 223.598"></polygon><polygon id="Path" fill="#8677B5" fill-rule="nonzero" points="175.93 72.0549 173.037 72.0549 173.037 223.598 175.93 223.598"></polygon><polygon id="Path" fill="#8B7CB8" fill-rule="nonzero" points="192.506 72.0549 233.054 223.585 236.945 223.585 196.397 72.0549"></polygon><polygon id="Path" fill="#806FB1" fill-rule="nonzero" points="177.161 69.7203 174.684 69.7203 174.684 226.503 177.161 226.503"></polygon><polygon id="Path" fill="#8B7CB8" fill-rule="nonzero" points="207.215 72.0549 245.597 215.465 245.597 136.639 228.319 72.0549"></polygon><polygon id="Path" fill="#8B7CB8" fill-rule="nonzero" points="103.316 85.8046 103.316 100.345 136.302 223.585 140.194 223.585"></polygon><polygon id="Path" fill="#8B7CB8" fill-rule="nonzero" points="103.316 115.171 103.316 193.998 111.229 223.585 132.32 223.585"></polygon><polygon id="Path" fill="#7867AD" fill-rule="nonzero" points="518.265 77.3475 425.093 77.3475 425.093 190.716 518.265 190.716"></polygon><polygon id="Path" fill="#806FB1" fill-rule="nonzero" points="496.94 162.633 447.986 114.51 500.948 105.767"></polygon><polygon id="Path" fill="#7967AD" fill-rule="nonzero" points="449.168 151.232 446.742 114.328 483.606 123.382 486.278 151.608"></polygon><path d="M507.911,109.819 C513.721,104.008 513.721,94.5882 507.911,88.778 C502.1,82.9678 492.68,82.9678 486.87,88.778 C481.06,94.5882 481.06,104.008 486.87,109.819 C492.68,115.629 502.1,115.629 507.911,109.819 Z" id="Path" fill="#8677B5" fill-rule="nonzero"></path><path d="M453.993007,164.384 C453.995,162.954 453.574,161.556 452.781,160.366 C451.988,159.175 450.86,158.247 449.539,157.699 C448.218,157.15 446.764,157.006 445.362,157.285 C443.959,157.563 442.67,158.251 441.659,159.263 C440.648,160.274 439.96,161.562 439.681,162.965 C439.403,164.368 439.547,165.822 440.095,167.142 C440.644,168.463 441.572,169.591 442.762,170.384 C443.952,171.177 445.351,171.599 446.781,171.596016 C448.693,171.593 450.525,170.832 451.877,169.48 C453.229,168.129 453.989,166.296 453.993007,164.384 L453.993007,164.384 Z" id="Path" fill="#E0E0E0" fill-rule="nonzero"></path><polygon id="Path" fill="#F5F5F5" fill-rule="nonzero" points="448.48 177.07 469.312 164.384 451.801 149.947"></polygon><polygon id="Path" fill="#806FB1" fill-rule="nonzero" points="473.099 182.298 477.198 182.298 477.198 91.7715 473.099 91.7715"></polygon><polygon id="Path" fill="#EBEBEB" fill-rule="nonzero" points="433.835 178.289 439.141 178.289 439.141 91.7714 433.835 91.7714"></polygon><polygon id="Path" fill="#8777B6" fill-rule="nonzero" points="481.815 178.704 508.899 178.704 508.899 151.62 481.815 151.62"></polygon><path d="M201.529,367.941 L184.381,318.52 C184.381,318.52 208.144,336.148 208.014531,316.614 C207.884,297.079 197.17,312.255 193.473,305.03 C189.777,297.805 204.019,297.883 199.012,286.935 C194.005,275.988 179.802,292.811 177.285,283.109 C174.769,273.406 170.8,268.477 160.423,269.346 C160.423,269.346 154.832,282.11 161.72,291.333 C168.608,300.555 144.715,293.149 147.179,302.423 C149.644,311.697 157.556,319.792 161.071,313.267 C164.587,306.742 169.01,319.247 163.03,322.477 C157.05,325.706 170.813,339.663 173.887,332.335 C175.999,327.466 178.607,322.828 181.67,318.494 L197.482,371.378 L201.529,367.941 Z" id="Path" fill="#EBEBEB" fill-rule="nonzero"></path><path d="M190.067,368.266 L209.394,336.655 C209.394,336.655 190.275,345.268 193.336,331.765 C196.397,318.262 201.495,330.377 205.153,325.941 C208.811,321.505 198.927,319.455 204.05,312.58 C209.174,305.706 216.464,319.546 219.616,313.216 C222.768,306.886 226.322,304.071 233.365,306.238 C233.365,306.238 235.311,315.914 229.163,321.258 C223.014,326.602 240.629,325.15 237.555,331.142 C234.481,337.135 227.749,341.597 226.309,336.551 C224.869,331.505 219.901,339.496 223.559,342.622 C227.217,345.748 215.543,353.336 214.557,347.81 C213.83,344.123 212.726,340.519 211.262,337.057 L192.337,371.262 L190.067,368.266 Z" id="Path" fill="#E6E6E6" fill-rule="nonzero"></path><path d="M206.186,368.68 L215.033,317.768 C215.033,317.768 194.655,338.743 191.684,319.662 C188.714,300.581 201.556,313.682 204.02,306.042 C206.485,298.402 192.592,300.763 195.731,289.283 C198.87,277.804 215.409,291.955 216.317,282.097 C217.225,272.239 220.338,266.791 230.585,266 C230.585,266 238.07,277.544 232.842,287.636 C227.615,297.728 249.705,286.715 248.797,296.145 C247.889,305.575 241.442,314.733 236.993,308.922 C232.544,303.111 230.196,316.03 236.539,318.209 C242.882,320.388 231.649,336.213 227.524,329.559 C224.692,325.15 221.41,321.046 217.731,317.314 L210.739,371.378 L206.186,368.68 Z" id="Path" fill="#8065A8" fill-rule="nonzero"></path><path d="M195.173,425.922018 L225.552,425.922018 C226.577,425.924 227.564,425.535 228.311,424.833 C229.059,424.131 229.51,423.171 229.573,422.148 L232.79,369.796 C232.823,369.249 232.745,368.7 232.559,368.184 C232.372,367.669 232.083,367.196 231.707,366.797 C231.332,366.397 230.879,366.078 230.376,365.86 C229.872,365.642 229.33,365.529 228.782,365.528 L191.943,365.528 C191.395,365.529 190.853,365.642 190.35,365.86 C189.846,366.078 189.393,366.397 189.018,366.797 C188.642,367.196 188.353,367.669 188.167,368.184 C187.98,368.7 187.902,369.249 187.935,369.796 L191.152,422.213 C191.231,423.224 191.689,424.169 192.435,424.857 C193.18,425.545 194.159,425.925 195.173,425.922018 L195.173,425.922018 Z" id="Path" fill="#806FB1" fill-rule="nonzero"></path><path d="M188.364,371.378 L232.79,371.378 C233.778,371.378 234.731,371.015 235.468,370.357 C236.205,369.699 236.674,368.793 236.785,367.811 L236.785,367.811 C236.853,367.247 236.8,366.674 236.631,366.131 C236.461,365.588 236.178,365.087 235.8,364.662 C235.423,364.237 234.959,363.896 234.44,363.663 C233.921,363.43 233.359,363.31 232.79,363.31 L188.364,363.31 C187.797,363.31 187.237,363.43 186.72,363.661 C186.204,363.893 185.741,364.231 185.364,364.653 C184.987,365.076 184.703,365.573 184.532,366.113 C184.36,366.653 184.305,367.223 184.368,367.785 L184.368,367.785 C184.474,368.772 184.94,369.684 185.678,370.347 C186.415,371.01 187.372,371.378 188.364,371.378 L188.364,371.378 Z" id="Path" fill="#8777B6" fill-rule="nonzero"></path><path d="M317.5,483 C460.266,483 576,474.717 576,464.5 C576,454.283 460.266,446 317.5,446 C174.734,446 59,454.283 59,464.5 C59,474.717 174.734,483 317.5,483 Z" id="Path" fill="#806FB1" fill-rule="nonzero"></path><path d="M462.205696,83.8328 L462.205696,448.934 C462.205696,449.689 462.054,450.437 461.762,451.134 C461.47,451.831 461.043,452.463 460.504,452.993 C459.966,453.523 459.327,453.94 458.626,454.221 C457.924,454.502 457.174,454.64 456.419,454.62872 L260.242,454.62872 C259.558,454.639 258.878,454.512 258.244,454.255 C257.61,453.998 257.034,453.616 256.55,453.132 C256.066,452.648 255.684,452.072 255.427,451.438 C255.17,450.803 255.043,450.124 255.054,449.44 L255.054,83.3659 C255.029,82.76 255.125,82.1553 255.335,81.5865 C255.545,81.0176 255.865,80.4959 256.277,80.0512 C256.689,79.6064 257.185,79.2475 257.737,78.995 C258.288,78.7424 258.884,78.6012 259.49,78.5795 L306.121,78.5795 C306.841,78.5937 307.54,78.8221 308.129,79.2357 C308.719,79.6493 309.171,80.2293 309.429,80.9014 L311.569,86.0898 C311.832,86.7591 312.288,87.3349 312.88,87.7438 C313.471,88.1528 314.171,88.3762 314.89,88.3857 L402.588,88.3857 C403.301,88.3802 403.997,88.1627 404.586,87.7608 C405.175,87.3588 405.631,86.7907 405.896,86.1288 L408.036,80.8495 C408.293,80.1759 408.745,79.5942 409.334,79.1784 C409.923,78.7626 410.623,78.5315 411.344,78.5146 L457.184,78.5146 C458.553,78.5587 459.85,79.1426 460.79,80.139 C461.731,81.1353 462.239,82.4632 462.205696,83.8328 Z" id="Path" fill="#263238" fill-rule="nonzero"></path><polygon id="Path" fill="#407BFF" fill-rule="nonzero" points="462.217 102.939 255.079 102.939 255.079 428.737 462.217 428.737"></polygon><polygon id="Path" fill="#FFFFFF" fill-rule="nonzero" opacity="0.7" points="462.217 102.939 255.079 102.939 255.079 428.737 462.217 428.737"></polygon><polygon id="Path" fill="#FFFFFF" fill-rule="nonzero" opacity="0.6" points="279.543 94.2877 282.229 94.2877 282.229 90.7206 279.543 90.7206"></polygon><polygon id="Path" fill="#FFFFFF" fill-rule="nonzero" opacity="0.6" points="275.171 94.2876 277.856 94.2876 277.856 89.5272 275.171 89.5272"></polygon><polygon id="Path" fill="#FFFFFF" fill-rule="nonzero" opacity="0.6" points="270.8 94.2877 273.485 94.2877 273.485 88.3339 270.8 88.3339"></polygon><polygon id="Path" fill="#FFFFFF" fill-rule="nonzero" opacity="0.6" points="266.43 94.2876 269.115 94.2876 269.115 87.1405 266.43 87.1405"></polygon><polygon id="Path" fill="#FFFFFF" fill-rule="nonzero" opacity="0.6" points="438.207 89.4104 436.625 89.4104 436.625 92.9775 438.207 92.9775"></polygon><polygon id="Path" fill="#FFFFFF" fill-rule="nonzero" opacity="0.6" points="439.297 94.2877 451.957 94.2877 451.957 88.1005 439.297 88.1005"></polygon><path d="M348.394,135.29 L416.558,135.29 C416.761,135.309 416.966,135.285 417.16,135.221 C417.354,135.156 417.532,135.052 417.682,134.914 C417.833,134.777 417.954,134.61 418.036,134.423 C418.119,134.236 418.162,134.034 418.162,133.83 C418.162,133.626 418.119,133.424 418.036,133.238 C417.954,133.051 417.833,132.884 417.682,132.746 C417.532,132.609 417.354,132.504 417.16,132.44 C416.966,132.375 416.761,132.352 416.558,132.371 L348.394,132.371 C348.031,132.405 347.694,132.574 347.448,132.844 C347.202,133.114 347.066,133.465 347.066,133.83 C347.066,134.195 347.202,134.547 347.448,134.817 C347.694,135.087 348.031,135.255 348.394,135.29 Z" id="Path" fill="#263238" fill-rule="nonzero"></path><path d="M432.071,140.698 L348.018,140.698 C347.867,140.682 347.715,140.697 347.571,140.743 C347.427,140.79 347.294,140.866 347.182,140.967 C347.069,141.068 346.979,141.191 346.917,141.329 C346.855,141.468 346.823,141.617 346.823,141.769 C346.823,141.92 346.855,142.069 346.917,142.208 C346.979,142.346 347.069,142.469 347.182,142.57 C347.294,142.671 347.427,142.747 347.571,142.794 C347.715,142.84 347.867,142.855 348.018,142.839 L432.071,142.839 C432.335,142.81 432.578,142.684 432.755,142.487 C432.932,142.289 433.03,142.034 433.03,141.769 C433.03,141.503 432.932,141.248 432.755,141.05 C432.578,140.853 432.335,140.727 432.071,140.698 L432.071,140.698 Z" id="Path" fill="#263238" fill-rule="nonzero"></path><path d="M407.413,146.834 L348.018,146.834 C347.867,146.817 347.715,146.833 347.571,146.879 C347.427,146.925 347.294,147.001 347.182,147.102 C347.069,147.203 346.979,147.327 346.917,147.465 C346.855,147.603 346.823,147.753 346.823,147.904 C346.823,148.055 346.855,148.205 346.917,148.343 C346.979,148.481 347.069,148.605 347.182,148.706 C347.294,148.807 347.427,148.883 347.571,148.929 C347.715,148.976 347.867,148.991 348.018,148.974 L407.413,148.974 C407.677,148.945 407.92,148.82 408.097,148.622 C408.274,148.425 408.372,148.169 408.372,147.904 C408.372,147.639 408.274,147.383 408.097,147.186 C407.92,146.988 407.677,146.863 407.413,146.834 Z" id="Path" fill="#263238" fill-rule="nonzero"></path><polygon id="Path" fill="#407BFF" fill-rule="nonzero" points="459.74 186.526 257.545 186.526 257.545 388.722 459.74 388.722"></polygon><polygon id="Path" fill="#407BFF" fill-rule="nonzero" points="453.228 410.591 447.534 405.675 441.826 410.591 441.826 397.075 453.228 397.075"></polygon><path d="M432.656,397.074946 L424.069,397.074946 C423.504,397.074946 422.963,397.299 422.564,397.698 C422.166,398.097 421.941,398.638 421.941,399.202 L421.941,405.065 C421.941,405.629 422.166,406.17 422.564,406.569 C422.963,406.968 423.504,407.192 424.069,407.192 L426.987,407.192 L426.987,410.591 L429.205,407.192 L432.656,407.192 C432.935,407.194 433.213,407.14 433.472,407.034 C433.731,406.928 433.966,406.771 434.164,406.573 C434.362,406.375 434.518,406.14 434.624,405.881 C434.731,405.622 434.785,405.345 434.783054,405.065 L434.783054,399.202 C434.785,398.922 434.731,398.645 434.624,398.386 C434.518,398.127 434.362,397.892 434.164,397.694 C433.966,397.496 433.731,397.339 433.472,397.233 C433.213,397.127 432.935,397.073 432.656,397.074946 Z" id="Path" fill="#407BFF" fill-rule="nonzero"></path><path d="M415.442,398.683 C413.86,396.089 410.798,397.062 409.216,399.072 C407.646,397.049 404.598,396.024 402.977,398.618 C400.266,402.977 405.791,407.063 408.412,408.671 L409.151,409.125 L409.903,408.671 C412.485,407.102 418.114,403.08 415.442,398.683 Z" id="Path" fill="#407BFF" fill-rule="nonzero"></path><g id="Group" opacity="0.3" transform="translate(266.000000, 195.000000)" fill="#FFFFFF" fill-rule="nonzero"><polygon id="Path" opacity="0.7" points="152.452 8.544 160.105 8.544 156.279 18.467"></polygon><polygon id="Path" opacity="0.7" points="177.111 57.938 179.433 65.228 168.822 64.58"></polygon><polygon id="Path" points="174.127 25.952 170.495 34.863 181.534 38.715 181.534 31.503"></polygon><polygon id="Path" points="31.003 6.157 36.619 6.157 31.003 13.512"></polygon><polygon id="Path" points="9.886 42.412 16.242 40.959 18.019 46.42 10.69 48.975"></polygon><path d="M74.196,13.512 C75.565,13.512 76.674,12.403 76.674,11.034 C76.674,9.666 75.565,8.557 74.196,8.557 C72.828,8.557 71.719,9.666 71.719,11.034 C71.719,12.403 72.828,13.512 74.196,13.512 Z" id="Path"></path><path d="M38.0980234,177.157 C38.0980234,178.13 37.809,179.081 37.268,179.89 C36.728,180.698 35.959,181.328 35.06,181.7 C34.161,182.072 33.172,182.168 32.218,181.978 C31.264,181.787 30.388,181.317 29.701,180.629 C29.014,179.94 28.547,179.063 28.359,178.108 C28.17,177.154 28.27,176.165 28.644,175.267 C29.018,174.369 29.65,173.602 30.46,173.063 C31.27,172.524 32.222,172.238 33.195,172.240977 C33.84,172.240977 34.478,172.368 35.074,172.615 C35.67,172.863 36.211,173.225 36.666,173.682 C37.122,174.138 37.483,174.68 37.728,175.277 C37.974,175.873 38.1,176.512 38.0980234,177.157 Z" id="Path"></path><polygon id="Path" points="14.426 134.443 16.242 137.517 7.46 141.278 5.463 139.229"></polygon><polygon id="Path" points="71.719 184.771 70.007 180.426 76.687 180.426"></polygon><polygon id="Path" points="142.685 180.426 143.203 175.588 152.361 178 152.361 185.069"></polygon><polygon id="Path" points="162.362 155.482 170.547 155.482 166.461 160.32"></polygon><polygon id="Path" points="175.826 105.699 174.127 115.972 176.008 117.684 177.772 105.699"></polygon><polygon id="Path" points="0.209 75.605 7.46 80.872 2.271 84.685"></polygon><path d="M32.378,33.916 C32.829,33.916 33.195,33.55 33.195,33.099 C33.195,32.647 32.829,32.281 32.378,32.281 C31.926,32.281 31.561,32.647 31.561,33.099 C31.561,33.55 31.926,33.916 32.378,33.916 Z" id="Path"></path><path d="M137.392,24.175 C138.023,24.175 138.534,23.663 138.534,23.033 C138.534,22.403 138.023,21.892 137.392,21.892 C136.762,21.892 136.251,22.403 136.251,23.033 C136.251,23.663 136.762,24.175 137.392,24.175 Z" id="Path"></path><path d="M106.754,179.492 C106.754,179.736 106.657,179.97 106.484,180.143 C106.312,180.316 106.077,180.413 105.833,180.413 C105.589,180.413 105.355,180.316 105.182,180.143 C105.009,179.97 104.912,179.736 104.912,179.492 C104.912,179.247 105.009,179.013 105.182,178.841 C105.355,178.668 105.589,178.571 105.833,178.571 C106.077,178.571 106.312,178.668 106.484,178.841 C106.657,179.013 106.754,179.247 106.754,179.492 Z" id="Path"></path><polygon id="Path" points="117.56 1.708 126.691 0.333 126.691 4.782 117.56 6.157"></polygon><polygon id="Path" points="177.772 6.157 180.769 6.157 179.264 9.828"></polygon><polygon id="Path" points="5.463 11.035 9.886 11.035 7.668 13.512"></polygon><polygon id="Path" points="173.141 184.771 172.713 176.262 179.263 178.571"></polygon><polygon id="Path" points="179.432 135.805 176.008 133.068 176.008 135.805 179.432 137.867"></polygon><polygon id="Path" points="3.828 108.436 7.668 111.691 5.748 114.597 0.663 110.524"></polygon><polygon id="Path" points="0.663 32.281 5.462 32.281 0.209 33.916"></polygon></g><polygon id="Path" fill="#407BFF" fill-rule="nonzero" points="350.314 219.512 358.992 211.353 367.579 219.59 378.008 213.843 384.286 223.961 395.817 221.004 399.371 232.353 411.279 232.353 411.915 244.235 423.446 247.193 421.085 258.867 431.527 264.6 426.351 275.314 435.029 283.46 427.35 292.553 433.732 302.606 424.03 309.506 427.713 320.817 416.61 325.085 417.362 336.966 405.533 338.341 403.315 350.041 391.511 348.42 386.452 359.199 375.426 354.698 367.838 363.882 358.279 356.786 348.654 363.791 341.157 354.542 330.092 358.927 325.137 348.109 313.333 349.6 311.219 337.887 299.402 336.396 300.271 324.527 289.207 320.156 292.994 308.871 283.357 301.879 289.842 291.891 282.241 282.721 291.01 274.666 285.938 263.886 296.432 258.257 294.188 246.57 305.745 243.729 306.484 231.848 318.392 231.964 322.063 220.64 333.568 223.715 339.937 213.662"></polygon><path d="M428.647,295.147 L436.326,286.067 L427.648,277.921 L432.837,267.207 L422.395,261.474 L424.756,249.8 L413.224,246.842 L412.589,234.961 L400.681,234.961 L397.127,223.611 L385.596,226.568 L379.318,216.451 L368.941,222.197 L360.354,213.96 L351.676,222.119 L341.299,216.269 L334.93,226.335 L323.425,223.248 L319.754,234.571 L307.846,234.455 L307.107,246.336 L295.549,249.177 L297.793,260.851 L287.3,266.481 L292.371,277.26 L283.538,285.367 L291.139,294.537 L284.654,304.525 L294.291,311.517 L290.504,322.802 L301.568,327.173 L300.699,339.042 L312.516,340.533 L314.617,352.207 L326.434,350.716 L331.389,361.534 L342.453,357.15 L349.951,366.398 L359.575,359.394 L369.135,366.489 L376.723,357.305 L387.749,361.806 L392.808,351.027 L404.599,352.648 L406.83,340.974 L418.659,339.599 L417.894,327.718 L429.01,323.45 L425.327,312.126 L435.029,305.239 L428.647,295.147 Z M426.26,303.526 L417.686,309.623 L420.942,319.624 L411.123,323.385 L411.798,333.879 L401.343,335.098 L399.384,345.475 L389.007,344.049 L384.532,353.569 L374.804,349.6 L368.097,357.694 L359.653,351.429 L351.157,357.616 L344.542,349.445 L334.761,353.336 L330.39,343.776 L319.948,345.073 L318.093,334.696 L307.716,333.399 L308.495,322.918 L298.714,319.027 L302.061,309.065 L293.552,302.891 L299.285,294.07 L292.566,285.976 L300.349,278.855 L295.744,269.282 L305.018,264.314 L303.034,253.938 L313.255,251.434 L313.904,240.94 L324.41,241.044 L327.653,231.043 L337.81,233.767 L343.439,224.882 L352.61,230.07 L360.263,222.858 L367.851,230.135 L377.061,225.064 L382.612,234.001 L392.795,231.406 L395.934,241.446 L406.453,241.446 L407.011,251.953 L417.194,254.547 L415.118,264.846 L424.328,269.905 L419.762,279.374 L427.428,286.573 L420.644,294.602 L426.26,303.526 Z" id="Shape" fill="#000000" fill-rule="nonzero" opacity="0.4"></path><polygon id="Path" fill="#000000" fill-rule="nonzero" opacity="0.4" points="350.314 219.512 358.992 211.353 367.579 219.59 378.008 213.843 384.286 223.961 395.817 221.004 399.371 232.353 411.279 232.353 411.915 244.235 423.446 247.193 421.085 258.867 431.527 264.6 426.351 275.314 435.029 283.46 427.35 292.553 433.732 302.606 424.03 309.506 427.713 320.817 416.61 325.085 417.362 336.966 405.533 338.341 403.315 350.041 391.511 348.42 386.452 359.199 375.426 354.698 367.838 363.882 358.279 356.786 348.654 363.791 341.157 354.542 330.092 358.927 325.137 348.109 313.333 349.6 311.219 337.887 299.402 336.396 300.271 324.527 289.207 320.156 292.994 308.871 283.357 301.879 289.842 291.891 282.241 282.721 291.01 274.666 285.938 263.886 296.432 258.257 294.188 246.57 305.745 243.729 306.484 231.848 318.392 231.964 322.063 220.64 333.568 223.715 339.937 213.662"></polygon><path d="M427.35,292.553 L435.029,283.473 L426.351,275.327 L431.54,264.613 L421.098,258.879 L423.459,247.205 L411.928,244.248 L411.292,232.366 L399.384,232.366 L395.83,221.016 L384.299,223.974 L378.021,213.856 L367.644,219.602 L359.057,211.366 L350.379,219.525 L340.002,213.675 L333.633,223.74 L322.128,220.653 L318.457,231.977 L306.549,231.86 L305.81,243.742 L294.253,246.583 L296.497,258.257 L286.003,263.886 L291.075,274.665 L282.241,282.772 L289.842,291.943 L283.357,301.931 L292.994,308.922 L289.207,320.207 L300.271,324.579 L299.402,336.447 L311.219,337.939 L313.32,349.613 L325.137,348.121 L330.092,358.939 L341.157,354.555 L348.654,363.804 L358.279,356.799 L367.838,363.894 L375.426,354.711 L386.452,359.212 L391.511,348.433 L403.302,350.054 L405.533,338.38 L417.362,337.005 L416.597,325.123 L427.713,320.856 L424.03,309.532 L433.732,302.644 L427.35,292.553 Z M424.964,300.932 L416.39,307.028 L419.645,317.029 L409.826,320.791 L410.501,331.285 L400.046,332.504 L398.087,342.881 L387.71,341.454 L383.235,350.975 L373.507,347.006 L366.801,355.1 L358.356,348.835 L349.86,355.022 L343.245,346.85 L333.465,350.741 L329.093,341.182 L318.651,342.479 L316.797,332.102 L306.42,330.805 L307.198,320.324 L297.418,316.433 L300.764,306.471 L292.255,300.296 L297.988,291.476 L291.269,283.382 L299.052,276.261 L294.447,266.688 L303.722,261.72 L301.737,251.343 L311.958,248.84 L312.607,238.346 L323.114,238.45 L326.356,228.449 L336.513,231.173 L342.142,222.287 L351.313,227.476 L358.966,220.264 L366.554,227.541 L375.764,222.469 L381.315,231.406 L391.498,228.812 L394.637,238.852 L405.157,238.852 L405.714,249.358 L415.897,251.953 L413.821,262.252 L423.031,267.311 L418.465,276.78 L426.131,283.979 L419.347,292.008 L424.964,300.932 Z" id="Shape" fill="#407BFF" fill-rule="nonzero"></path><path d="M427.35,292.553 L435.029,283.473 L426.351,275.327 L431.54,264.613 L421.098,258.879 L423.459,247.205 L411.928,244.248 L411.292,232.366 L399.384,232.366 L395.83,221.016 L384.299,223.974 L378.021,213.856 L367.644,219.602 L359.057,211.366 L350.379,219.525 L340.002,213.675 L333.633,223.74 L322.128,220.653 L318.457,231.977 L306.549,231.86 L305.81,243.742 L294.253,246.583 L296.497,258.257 L286.003,263.886 L291.075,274.665 L282.241,282.772 L289.842,291.943 L283.357,301.931 L292.994,308.922 L289.207,320.207 L300.271,324.579 L299.402,336.447 L311.219,337.939 L313.32,349.613 L325.137,348.121 L330.092,358.939 L341.157,354.555 L348.654,363.804 L358.279,356.799 L367.838,363.894 L375.426,354.711 L386.452,359.212 L391.511,348.433 L403.302,350.054 L405.533,338.38 L417.362,337.005 L416.597,325.123 L427.713,320.856 L424.03,309.532 L433.732,302.644 L427.35,292.553 Z M424.964,300.932 L416.39,307.028 L419.645,317.029 L409.826,320.791 L410.501,331.285 L400.046,332.504 L398.087,342.881 L387.71,341.454 L383.235,350.975 L373.507,347.006 L366.801,355.1 L358.356,348.835 L349.86,355.022 L343.245,346.85 L333.465,350.741 L329.093,341.182 L318.651,342.479 L316.797,332.102 L306.42,330.805 L307.198,320.324 L297.418,316.433 L300.764,306.471 L292.255,300.296 L297.988,291.476 L291.269,283.382 L299.052,276.261 L294.447,266.688 L303.722,261.72 L301.737,251.343 L311.958,248.84 L312.607,238.346 L323.114,238.45 L326.356,228.449 L336.513,231.173 L342.142,222.287 L351.313,227.476 L358.966,220.264 L366.554,227.541 L375.764,222.469 L381.315,231.406 L391.498,228.812 L394.637,238.852 L405.157,238.852 L405.714,249.358 L415.897,251.953 L413.821,262.252 L423.031,267.311 L418.465,276.78 L426.131,283.979 L419.347,292.008 L424.964,300.932 Z" id="Shape" fill="#FFFFFF" fill-rule="nonzero" opacity="0.6"></path><path d="M320.519,283.823 C320.519,283.823 327.134,282.682 330.39,283.823 C333.646,284.965 347.421,308.468 347.421,308.468 C347.421,308.468 374.142,271.708 395.506,255.637 C395.506,255.637 367.786,280.464 351.715,322.14 C351.715,322.14 346.306,324.527 342.479,320.259 C341.377,318.962 328.963,297.806 326.564,297.015 C324.683,296.379 318.612,296.691 318.612,296.691 L320.519,283.823 Z" id="Path" fill="#000000" fill-rule="nonzero" opacity="0.4"></path><path d="M319.222,282.526 C319.222,282.526 325.838,281.384 329.093,282.526 C332.349,283.667 346.125,307.171 346.125,307.171 C346.125,307.171 372.845,270.411 394.209,254.339 C394.209,254.339 366.489,279.166 350.418,320.843 C350.418,320.843 345.009,323.23 341.182,318.962 C340.08,317.665 327.666,296.509 325.267,295.718 C323.386,295.082 317.315,295.393 317.315,295.393 L319.222,282.526 Z" id="Path" fill="#FFFFFF" fill-rule="nonzero"></path><g id="Path-+-Path-+-Path-+-Path-+-Path-+-Path-+-Path-+-Path-+-Path-+-Path-Mask" transform="translate(276.000000, 117.000000)"><mask id="mask-2" fill="white"><use xlink:href="#path-1"></use></mask><use id="Mask" fill="#407BFF" fill-rule="nonzero" xlink:href="#path-1"></use><path d="M12.108,37.602 C15.257,33.884 18.747,35.242 18.747,35.242 C26.83,41.731 22.323,44.681 25.027,47.926 C22.094,51.727 21.681,53.858 18.747,57.66 C18.747,57.66 17.516,55.3 15.413,52.94 C13.31,50.58 8.959,41.32 12.108,37.602 Z" id="Path" fill="#263238" fill-rule="nonzero" mask="url(#mask-2)"></path><path d="M32.064,48.954 C24.622,47.132 22.726,43.56 22.726,43.56 C26.167,40.921 26.06,36.457 25.574,33.622 C25.433,32.725 25.214,31.842 24.92,30.985 L33.814,33.732 C33.46,35.005 33.198,36.302 33.029,37.613 C32.889,38.578 32.869,39.558 32.971,40.527 C33.276,43.385 34.816,43.598 34.816,43.598 C36.077,46.83 32.064,48.954 32.064,48.954 Z" id="Path" fill="#E4897B" fill-rule="nonzero" mask="url(#mask-2)"></path><path d="M32.064,48.954 C24.622,47.132 22.726,43.56 22.726,43.56 C26.167,40.921 26.06,36.457 25.574,33.622 C25.433,32.725 25.214,31.842 24.92,30.985 L33.814,33.732 C33.46,35.005 33.198,36.302 33.029,37.613 C32.889,38.578 32.869,39.558 32.971,40.527 C33.276,43.385 34.816,43.598 34.816,43.598 C36.077,46.83 32.064,48.954 32.064,48.954 Z" id="Path" fill-opacity="0.06" fill="#000000" fill-rule="nonzero" mask="url(#mask-2)"></path><path d="M33.357,15.982 C41.894,16.155 44.565,20.842 45.053,29.747 C45.658,40.884 43.1,48.729 32.459,46.137 C18.026,42.611 19.185,15.688 33.357,15.982 Z" id="Path" fill="#E4897B" fill-rule="nonzero" mask="url(#mask-2)"></path><path d="M14.885,34.244 C14.973,32.929 16.419,32.58 16.419,32.58 L23.28,35.521 C23.28,35.521 23.509,34.894 23.468,36.539 C23.367,40.576 14.567,38.975 14.885,34.244 Z" id="Path" fill="#FFFFFF" fill-rule="nonzero" mask="url(#mask-2)"></path><path d="M38.963,24.968 C38.791,24.372 25.761,13.651 28.041,18.587 C29.549,21.85 24.798,25.24 20.236,31.874 C16.094,37.897 9.899,27.207 15.074,16.776 C18.924,9.015 26.681,4.128 35.619,6.921 C58.524,14.078 45.37,31.17 45.37,31.17 C46.568,22 34.843,16.951 36.815,19.068 C39.014,21.43 38.971,24.688 38.963,24.968 C38.966,24.976 38.966,24.983 38.963,24.987 C38.963,24.987 38.963,24.98 38.963,24.968 Z" id="Path" fill="#263238" fill-rule="nonzero" mask="url(#mask-2)"></path><path d="M24.077,31.443 C24.02,30.804 23.863,30.175 23.615,29.592 C23.368,29.008 23.034,28.481 22.634,28.042 C22.234,27.602 21.775,27.258 21.283,27.029 C20.791,26.801 20.276,26.692 19.767,26.709 C17.02,26.885 15.866,33.847 22.767,36.028 C23.763,36.341 24.289,35.179 24.077,31.443 Z" id="Path" fill="#E4897B" fill-rule="nonzero" mask="url(#mask-2)"></path><path d="M33.581,48.431 C29.447,49.221 25.23,45.046 23.87,42.227 C13.08,51.399 15.238,60.031 18.475,71.091 L28.456,72.44 L39.246,83.5 L42.214,77.026 C39.889,75.697 38.893,74.369 37.628,71.091 L40.865,62.728 C38.74,55.877 38.893,55.044 33.581,48.431 Z" id="Path" fill="#B3CAFF" fill-rule="nonzero" mask="url(#mask-2)"></path><path d="M33.581,48.431 C29.534,48.431 27.646,47.622 23.87,42.227 L22.251,43.575 C25.758,49.51 29.534,50.319 35.199,50.589 L33.581,48.431 Z" id="Path" fill="#FFFFFF" fill-rule="nonzero" mask="url(#mask-2)"></path><path d="M23.061,48.701 C16.281,47.571 16.587,62.998 16.587,62.998 C16.978,66.065 17.057,67.782 18.475,70.821 C21.534,71.095 23.683,70.593 27.647,67.314 C27.647,67.314 27.647,60.301 27.108,55.715 C26.691,52.174 26.298,49.24 23.061,48.701 Z" id="Path" fill="#79A2FF" fill-rule="nonzero" mask="url(#mask-2)"></path></g><path d="M340.992,173.496 C340.992,175.177 340.494,176.819 339.56,178.216 C338.627,179.614 337.3,180.703 335.747,181.346 C334.195,181.989 332.487,182.157 330.839,181.829 C329.191,181.501 327.677,180.692 326.488,179.504 C325.3,178.316 324.491,176.802 324.163,175.154 C323.835,173.506 324.004,171.797 324.647,170.245 C325.29,168.692 326.379,167.365 327.776,166.432 C329.173,165.498 330.816,165 332.496,165 C334.749,165 336.911,165.895 338.504,167.488 C340.097,169.082 340.992,171.243 340.992,173.496 L340.992,173.496 Z" id="Path" fill="#FFFFFF" fill-rule="nonzero"></path><path d="M339.747,173.496 C339.747,174.93 339.322,176.332 338.525,177.525 C337.728,178.717 336.596,179.646 335.271,180.195 C333.946,180.744 332.488,180.888 331.081,180.608 C329.675,180.328 328.383,179.637 327.369,178.623 C326.355,177.609 325.664,176.317 325.384,174.911 C325.105,173.504 325.248,172.046 325.797,170.721 C326.346,169.396 327.275,168.264 328.468,167.467 C329.66,166.67 331.062,166.245 332.496,166.245 C334.419,166.245 336.263,167.009 337.623,168.369 C338.983,169.729 339.747,171.573 339.747,173.496 Z" id="Path" fill="#263238" fill-rule="nonzero"></path><polygon id="Path" fill="#FFFFFF" fill-rule="nonzero" points="332.211 177.271 328.346 173.859 329.202 172.886 332.004 175.351 335.687 170.292 336.738 171.058"></polygon><path d="M503.387,432.655 C503.387,432.655 495.824,416.169 504.463,399.916 C513.102,383.663 515.593,379.836 510.093,376.503 C504.593,373.169 502.064,389.474 502.064,389.474 C502.064,389.474 497.42,378.228 501.259,366.476 C505.099,354.724 507.485,335.565 502.258,333.503 C497.031,331.441 501.259,357.396 496.719,366.242 C494.406,360.034 492.915,353.549 492.283,346.954 C491.648,337.511 492.633,322.426 488.496,318.56 C484.358,314.695 481.725,317.367 485.785,338.211 C488.225,350.665 489.57,363.308 489.806,375.997 C489.806,375.997 480.843,348.653 474.824,347.862 C468.805,347.071 468.818,355.917 473.968,363.596 C479.117,371.275 489.053,385.038 490.688,392.133 C490.688,392.133 480.843,371.561 471.983,377.865 C463.124,384.169 479.688,396.595 487.069,401.096 C494.449,405.597 499.586,433.732 499.586,433.732 L503.387,432.655 Z" id="Path" fill="#407BFF" fill-rule="nonzero"></path><path d="M503.387,432.655 C503.387,432.655 495.824,416.169 504.463,399.916 C513.102,383.663 515.593,379.836 510.093,376.503 C504.593,373.169 502.064,389.474 502.064,389.474 C502.064,389.474 497.42,378.228 501.259,366.476 C505.099,354.724 507.485,335.565 502.258,333.503 C497.031,331.441 501.259,357.396 496.719,366.242 C494.406,360.034 492.915,353.549 492.283,346.954 C491.648,337.511 492.633,322.426 488.496,318.56 C484.358,314.695 481.725,317.367 485.785,338.211 C488.225,350.665 489.57,363.308 489.806,375.997 C489.806,375.997 480.843,348.653 474.824,347.862 C468.805,347.071 468.818,355.917 473.968,363.596 C479.117,371.275 489.053,385.038 490.688,392.133 C490.688,392.133 480.843,371.561 471.983,377.865 C463.124,384.169 479.688,396.595 487.069,401.096 C494.449,405.597 499.586,433.732 499.586,433.732 L503.387,432.655 Z" id="Path" fill="#000000" fill-rule="nonzero" opacity="0.2"></path><path d="M497.421,439.426 C497.421,439.426 504.775,422.823 495.942,406.699 C487.109,390.576 484.566,386.789 490.04,383.351 C495.514,379.914 498.225,396.232 498.225,396.232 C498.225,396.232 502.726,384.921 498.757,373.221 C494.788,361.521 492.154,342.401 497.356,340.274 C502.557,338.146 498.653,364.154 503.284,372.922 C505.524,366.682 506.941,360.176 507.499,353.569 C508.005,344.113 506.851,329.054 510.937,325.123 C515.023,321.193 517.695,323.826 513.881,344.736 C511.592,357.246 510.398,369.933 510.314,382.651 C510.314,382.651 518.953,355.178 524.959,354.296 C530.964,353.414 531.068,362.26 526.009,370.017 C520.951,377.774 511.17,391.679 509.627,398.774 C509.627,398.774 519.225,378.02 528.15,384.233 C537.074,390.446 520.678,403.08 513.349,407.672 C506.021,412.264 501.234,440.502 501.234,440.502 L497.421,439.426 Z" id="Path" fill="#407BFF" fill-rule="nonzero"></path><polygon id="Path" fill="#263238" fill-rule="nonzero" points="531.353 427.583 470.57 427.583 475.486 471.088 526.437 471.088"></polygon><polygon id="Path" fill="#3B464C" fill-rule="nonzero" points="259.501 423 250.501 423 253.001 461 258.001 461"></polygon><polygon id="Path" fill="#515B60" fill-rule="nonzero" points="265.001 423.5 259.001 423 258.001 461 260.501 461"></polygon><polygon id="Path" fill="#3B464C" fill-rule="nonzero" points="102.001 423 93.001 423 95.501 461 100.501 461"></polygon><polygon id="Path" fill="#515B60" fill-rule="nonzero" points="107.501 423.5 101.501 423 100.501 461 103.001 461"></polygon><polygon id="Path" fill="#3B464C" fill-rule="nonzero" points="200.501 423 191.501 423 194.001 461 199.001 461"></polygon><polygon id="Path" fill="#515B60" fill-rule="nonzero" points="206.001 423.5 200.001 423 199.001 461 201.501 461"></polygon><path d="M111.501,358 L106.500526,285.5 C106.473,276.106 107.685,271.145 110.423,267.261 C113.151,263.392 118.1,262 122.834,262 L181.501,262 L188.483,358 L246.501,358 C279.501,373 279.001,409 248.501,429 L153.501,429 C169.001,394.5 163.967,366.756 133.501,356.375 C127.063,356.403 119.755,357.019 111.501,358 Z" id="Path" fill="#515B60" fill-rule="nonzero"></path><path d="M85.501,358 L79.9999925,285.5 C79.972,276.052 81.4283,271.088 84.3476,267.194 C87.1877,263.406 92.0993,262 96.8336,262 L120.001,262 C111.872,264.476 106.762,269.424 106.501,283.5 L112.001,357 C173.001,344 168.501,416 153.501,429 C153.501,429 147.874,411.739 131.501,424 C115.127,436.261 82.5006,418.5 87.5006,386 L85.501,358 Z" id="Path" fill="#3B464C" fill-rule="nonzero"></path><path d="M252.501,367.5 C245.135,358.9 180.001,363 180.001,363 L176.501,397.5 L260.001,397.5 C261.389,382.7 259.866,376.1 252.501,367.5 Z" id="Path" fill="#3B464C" fill-rule="nonzero"></path><path d="M185.985,338.122 C185.928,338.326 185.919,338.541 185.96,338.75 C186,338.959 186.089,339.159 186.22,339.334 C186.351,339.509 186.521,339.656 186.717,339.765 C186.914,339.873 187.133,339.94 187.359,339.962 L204.784,342.206 C205.268,342.251 205.75,342.138 206.15,341.886 C206.549,341.635 206.841,341.26 206.975,340.825 L214.988,309.204 C215.069,308.985 215.098,308.752 215.073,308.52 C215.049,308.288 214.972,308.063 214.848,307.859 C214.724,307.656 214.555,307.479 214.353,307.34 C214.15,307.202 213.92,307.105 213.676,307.056 L196.251,304.812 C195.722,304.802 195.209,304.966 194.802,305.275 C194.395,305.584 194.118,306.019 194.02,306.503 L185.985,338.122 Z" id="Path" fill="#263238" fill-rule="nonzero"></path><path d="M195.176,307.865 L187.138,338.308 C187.064,338.483 187.039,338.671 187.064,338.859 C187.089,339.046 187.164,339.227 187.282,339.388 C187.401,339.548 187.559,339.683 187.746,339.782 C187.932,339.881 188.141,339.941 188.356,339.958 L203.904,342.056 C205.52,342.486 206.787,341.775 207.006,340.915 L215.023,309.473 C215.136,308.599 213.311,308.222 212.288,308.091 L197.127,306.51 C196.657,306.469 196.193,306.586 195.83,306.838 C195.467,307.09 195.233,307.457 195.176,307.865 Z" id="Path" fill="#FFFFFF" fill-rule="nonzero" opacity="0.5"></path><ellipse id="Oval" fill="#C4C4C4" fill-rule="nonzero" transform="translate(202.087000, 321.903000) rotate(18.462800) translate(-202.087000, -321.903000) " cx="202.087" cy="321.903" rx="3.5" ry="4"></ellipse><ellipse id="Oval" fill="#515B60" fill-rule="nonzero" transform="translate(211.425000, 311.180000) rotate(-55.609400) translate(-211.425000, -311.180000) " cx="211.425" cy="311.18" rx="1.4628" ry="1.33067"></ellipse><ellipse id="Oval" fill="#C4C4C4" fill-rule="nonzero" transform="translate(211.486000, 311.224000) rotate(-55.609400) translate(-211.486000, -311.224000) " cx="211.486" cy="311.224" rx="1" ry="1"></ellipse><path d="M252.001,310.961 C240.001,302.461 230.001,314.961 230.001,314.961 L207.501,356.461 L207.501,384.961 L224.501,379.961 L240.001,351.961 C240.001,351.961 265.615,320.605 252.001,310.961 Z" id="Path" fill="#B66E62" fill-rule="nonzero"></path><path d="M252.001,312.5 C240.001,304 230.001,316.5 230.001,316.5 L207.501,358 L207.501,386.5 L224.501,381.5 L240.001,353.5 C240.001,353.5 265.615,322.143 252.001,312.5 Z" id="Path" fill="#DA7F71" fill-rule="nonzero"></path><polygon id="Path" fill="#B66E62" fill-rule="nonzero" points="207.389 386.918 207.145 376.315 208.954 375 209.526 387.577"></polygon><path d="M224.216,381.759 C224.216,381.759 213.725,388.592 207.587,388.828 C207.587,388.828 206.043,394.528 205.968,398.175 C205.645,413.901 276.091,403.742 249.023,388.623 C241.29,384.304 224.216,381.759 224.216,381.759 Z" id="Path" fill="#FFFFFF" fill-rule="nonzero"></path><path d="M225.501,380 C225.501,380 214.001,384.5 207.213,386.356 C207.213,386.356 205.669,392.056 205.594,395.703 C205.271,411.429 275.717,401.27 248.649,386.151 C240.916,381.832 225.501,380 225.501,380 Z" id="Path" fill="#407BFF" fill-rule="nonzero"></path><path d="M225.501,380 C225.501,380 214.001,384.5 207.213,386.356 C207.213,386.356 205.669,392.056 205.594,395.703 C205.271,411.429 275.717,401.27 248.649,386.151 C240.916,381.832 225.501,380 225.501,380 Z" id="Path" fill-opacity="0.02" fill="#000000" fill-rule="nonzero"></path><ellipse id="Oval" fill="#FFFFFF" fill-rule="nonzero" transform="translate(211.080000, 392.344000) rotate(-8.608300) translate(-211.080000, -392.344000) " cx="211.08" cy="392.344" rx="3" ry="3.5"></ellipse><path d="M225.973,381.518 C223.365,383.076 221.671,387.998 221.671,387.998 C221.671,387.998 221.968,389.468 223.438,389.171 C224.908,388.874 225.229,384.451 227.839,383.181 C229.244,382.498 231.76,382.389 231.76,382.389 C231.76,382.389 233.032,381.112 231.854,380.33 C230.676,379.548 227.984,380.316 225.973,381.518 Z" id="Path" fill="#FFFFFF" fill-rule="nonzero"></path><path d="M232.551,382.645 C230.431,384.129 229.272,388.645 229.272,388.645 C229.272,388.645 229.606,389.973 230.834,389.664 C232.063,389.355 232.086,385.329 234.225,384.106 C235.376,383.448 237.5,383.282 237.5,383.282 C237.5,383.282 238.505,382.088 237.464,381.409 C236.422,380.73 234.187,381.499 232.551,382.645 Z" id="Path" fill="#FFFFFF" fill-rule="nonzero"></path><path d="M234.001,312 C222.001,292 187.001,349 187.001,349 L187.001,366 L208.001,376.5 L215.001,369.5 L220.001,360 L237.001,387 L254.001,385 C254.001,385 242.629,326.381 234.001,312 Z" id="Path" fill="#E4897B" fill-rule="nonzero"></path><path d="M220.001,360.5 C214.794,346.331 213.539,338.989 218.501,328.5 C214.048,338.879 215.845,346.315 221.501,360.5 C228.974,371.072 233.172,377.07 240.501,386.5 L237.001,387 L220.001,360.5 Z" id="Path" fill="#B66E62" fill-rule="nonzero"></path><path d="M123.555,284.822 C129.392,277.932 135.86,280.449 135.86,280.449 C150.842,292.477 142.489,297.944 147.501,303.958 C142.064,311.004 141.298,314.954 135.86,322 C135.86,322 133.578,317.626 129.68,313.252 C125.783,308.878 117.717,291.713 123.555,284.822 Z" id="Path" fill="#263238" fill-rule="nonzero"></path><path d="M188.501,345.5 C180.639,358.838 176.947,366.385 172.001,380 L174.001,387 C174.001,387 175.501,398.46 187.001,398 C198.501,397.54 200.916,391.558 214.001,370.5 C194.382,370.062 189.097,364.288 188.501,345.5 Z" id="Path" fill="#79A2FF" fill-rule="nonzero"></path><path d="M158.689,315.469 C144.895,312.092 141.382,305.471 141.382,305.471 C147.758,300.579 147.56,292.306 146.66,287.052 C146.398,285.388 145.992,283.752 145.447,282.163 L161.932,287.255 C161.276,289.614 160.79,292.018 160.478,294.448 C160.217,296.238 160.181,298.053 160.37,299.85 C160.935,305.147 163.79,305.542 163.79,305.542 C166.127,311.533 158.689,315.469 158.689,315.469 Z" id="Path" fill="#E4897B" fill-rule="nonzero"></path><path d="M158.689,315.469 C144.895,312.092 141.382,305.471 141.382,305.471 C147.758,300.579 147.56,292.306 146.66,287.052 C146.398,285.388 145.992,283.752 145.447,282.163 L161.932,287.255 C161.276,289.614 160.79,292.018 160.478,294.448 C160.217,296.238 160.181,298.053 160.37,299.85 C160.935,305.147 163.79,305.542 163.79,305.542 C166.127,311.533 158.689,315.469 158.689,315.469 Z" id="Path" fill-opacity="0.06" fill="#000000" fill-rule="nonzero"></path><path d="M174.945,253.374 C190.445,256.567 193.734,266.011 191.618,282.405 C188.964,302.908 181.657,316.343 163.138,308.029 C138.022,296.736 149.215,248.058 174.945,253.374 Z" id="Path" fill="#E4897B" fill-rule="nonzero"></path><path d="M135.118,280.427 C135.722,278.06 138.476,277.911 138.476,277.911 L149.987,285.585 C149.987,285.585 150.616,284.52 149.987,287.504 C148.441,294.828 132.943,288.943 135.118,280.427 Z" id="Path" fill="#FFFFFF" fill-rule="nonzero"></path><path d="M182.13,271.641 C182.016,270.498 161.886,246.563 164.376,256.327 C166.023,262.784 156.222,267.359 145.67,277.911 C136.088,287.492 128.403,265.92 141.353,248.653 C150.988,235.807 166.774,229.516 182.123,237.621 C221.453,258.391 191.716,285.106 191.716,285.106 C196.992,268.798 177.325,255.64 180.204,260.164 C183.415,265.21 182.239,271.133 182.13,271.641 C182.132,271.657 182.129,271.669 182.123,271.676 C182.123,271.676 182.125,271.664 182.13,271.641 Z" id="Path" fill="#263238" fill-rule="nonzero"></path><path d="M152.815,278.421 C152.926,277.238 152.852,276.039 152.597,274.892 C152.343,273.744 151.913,272.672 151.332,271.736 C150.75,270.8 150.03,270.018 149.21,269.435 C148.391,268.853 147.489,268.48 146.556,268.34 C141.49,267.735 137.039,280.034 148.881,286.335 C150.59,287.243 151.941,285.302 152.815,278.421 Z" id="Path" fill="#E4897B" fill-rule="nonzero"></path><path d="M161.501,314.5 C153.838,315.964 146.021,308.226 143.502,303 C123.502,320 127.501,336 133.501,356.5 L152.001,359 L172.001,379.5 L177.501,367.5 C173.193,365.038 171.347,362.575 169.001,356.5 L175.001,341 C171.062,328.301 171.347,326.757 161.501,314.5 Z" id="Path" fill="#B3CAFF" fill-rule="nonzero"></path><path d="M161.5,314.5 C154,314.5 150.5,313 143.5,303 L140.5,305.5 C147,316.5 154,318 164.5,318.5 L161.5,314.5 Z" id="Path" fill="#FFFFFF" fill-rule="nonzero"></path><path d="M142.001,315 C129.433,312.905 130.001,341.5 130.001,341.5 C130.726,347.185 130.872,350.367 133.501,356 C139.171,356.507 143.154,355.577 150.501,349.5 C150.501,349.5 150.501,336.5 149.501,328 C148.729,321.438 148.001,316 142.001,315 Z" id="Path" fill="#79A2FF" fill-rule="nonzero"></path><path d="M254.074,385 C254.074,385 242.679,390.186 236.574,389.5 C236.574,389.5 234.195,394.905 233.575,398.5 C230.902,414 302.074,414.5 277.574,395.5 C270.574,390.072 254.074,385 254.074,385 Z" id="Path" fill="#FFFFFF" fill-rule="nonzero"></path><path d="M254.074,382.5 C254.074,382.5 242.679,387.686 236.574,387 C236.574,387 234.195,392.405 233.575,396 C230.902,411.5 302.074,412 277.574,393 C270.574,387.572 254.074,382.5 254.074,382.5 Z" id="Path" fill="#407BFF" fill-rule="nonzero"></path><ellipse id="Oval" fill="#FFFFFF" fill-rule="nonzero" cx="239.501" cy="393.5" rx="3" ry="3.5"></ellipse><path d="M255.847,385.025 C253.035,386.175 250.623,390.788 250.623,390.788 C250.623,390.788 250.696,392.286 252.195,392.212 C253.693,392.139 254.672,387.813 257.443,386.949 C258.934,386.483 261.438,386.752 261.438,386.752 C261.438,386.752 262.887,385.68 261.839,384.73 C260.791,383.781 258.015,384.137 255.847,385.025 Z" id="Path" fill="#FFFFFF" fill-rule="nonzero"></path><path d="M262.182,387.123 C259.863,388.274 258.042,392.566 258.042,392.566 C258.042,392.566 258.173,393.928 259.434,393.807 C260.695,393.685 261.32,389.707 263.618,388.818 C264.855,388.34 266.98,388.494 266.98,388.494 C266.98,388.494 268.153,387.464 267.225,386.637 C266.296,385.809 263.971,386.236 262.182,387.123 Z" id="Path" fill="#FFFFFF" fill-rule="nonzero"></path><path d="M172.501,338.5 C164.264,348.444 160.575,353.425 154.501,362 L162.001,369.5 L176.001,346.5 C176.001,346.5 181.76,346.18 185.501,344.5 C190.848,342.099 196.001,334.869 194.001,333.5 C191.261,331.626 185.501,333.5 185.501,333.5 C185.501,333.5 186.477,330.999773 185.501,330.999773 C183.001,330.999773 179.522,330.925 177.501,333.5 C176.583,334.67 176.052,335.449 175.001,336.5 C173.949,337.552 172.501,338.5 172.501,338.5 Z" id="Path" fill="#E4897B" fill-rule="nonzero"></path><polygon id="Path" fill="#E4897B" fill-rule="nonzero" points="150.001 350 138.501 356 152.001 359"></polygon><path d="M186.245,418.316 C181.37,410.732 165.245,412.316 165.245,412.316 L169.745,421.816 C169.745,421.816 173.245,418.317 174.745,418.316 C176.245,418.316 174.698,435.463 173.245,446.316 C171.868,456.603 169.245,472.316 167.745,472.316 C166.245,472.317 163.245,473.816 163.245,473.816 C163.245,473.816 178.571,477.745 179.745,472.316 C183.745,453.816 189.072,422.713 186.245,418.316 Z" id="Path" fill="#264A99" fill-rule="nonzero"></path><path d="M183.245,417.316 C188.008,419.469 178.245,471.316 178.245,471.316 C174.456,473.712 169.267,472.682 168.286,472.458 C168.272,472.459 168.259,472.457 168.245,472.453 C168.062,472.4 168.09,472.413 168.286,472.458 C169.422,472.392 172.385,456.618 173.745,446.453 C175.198,435.6 176.745,418.453 175.245,418.453 C177.464,415.471 181.745,416.638 183.245,417.316 Z" id="Path" fill="#C5D7FF" fill-rule="nonzero"></path><path d="M139.456,401.406 L138.745,405.316 L143.727,402.599 C144.069,402.412 144.445,402.293 144.833,402.254 C149.046,401.828 151.841,402.036 155.599,403.589 C157.056,404.191 157.556,405.965 156.745,407.316 L163.745,409.316 L164.388,406.422 C164.611,405.422 164.307,404.368 163.563,403.663 C155.255,395.789 149.908,395.722 141.242,399.197 C140.305,399.572 139.636,400.414 139.456,401.406 Z" id="Path" fill="#A0BDFF" fill-rule="nonzero"></path><path d="M165.41,478.163 C164.389,482.351 135.12,480.236 124.012,473.5 C118.1,469.914 115.103,426.898 129.745,410.316 C140.783,397.816 164.569,403.545 170.46,418.054 C176.35,432.562 169.455,461.581 165.41,478.163 Z" id="Path" fill="#264A99" fill-rule="nonzero"></path><path d="M151.74,476.317 C150.729,480.357 121.747,478.317 110.747,471.817 C104.892,468.357 110.747,426.816 125.246,410.816 C135.457,399.548 151.74,406.316 156.74,418.317 C162.573,432.316 155.745,460.316 151.74,476.317 Z" id="Path" fill="#C5D7FF" fill-rule="nonzero"></path><path d="M115.166,459.202 L117.958,444.567 C118.358,442.473 120.33,441.06 122.441,441.355 L146.058,444.656 C148.284,444.968 149.817,447.052 149.451,449.269 L146.974,464.276 C146.617,466.438 144.587,467.911 142.42,467.578 L118.488,463.905 C116.249,463.562 114.741,461.428 115.166,459.202 Z" id="Path" fill="#264A99" fill-rule="nonzero"></path><path d="M129.309,428.952 L130.107,424.766 C130.507,422.671 132.479,421.259 134.59,421.554 L143.57,422.809 C145.796,423.12 147.329,425.204 146.963,427.422 L146.249,431.744 C145.892,433.907 143.862,435.379 141.696,435.047 L132.631,433.655 C130.391,433.312 128.884,431.178 129.309,428.952 Z" id="Path" fill="#264A99" fill-rule="nonzero"></path></g></g></svg> 