<svg width="51" height="51" viewBox="0 0 51 51" fill="none" xmlns="http://www.w3.org/2000/svg">
<g clip-path="url(#clip0_2_2)">
<path d="M44.8982 15.5707C44.9299 16.0149 44.9299 16.4591 44.9299 16.9033C44.9299 30.4501 34.6191 46.0593 15.7739 46.0593C9.96802 46.0593 4.57466 44.3778 0.0378418 41.4591C0.862744 41.5542 1.65581 41.586 2.51245 41.586C7.30298 41.586 11.7129 39.968 15.2345 37.2078C10.7294 37.1126 6.95405 34.1621 5.65327 30.1012C6.28784 30.1963 6.92231 30.2598 7.58862 30.2598C8.50864 30.2598 9.42876 30.1328 10.2853 29.9109C5.58989 28.959 2.06821 24.8347 2.06821 19.8537V19.7269C3.43237 20.4883 5.0188 20.9642 6.70015 21.0276C3.93999 19.1874 2.13169 16.0466 2.13169 12.4933C2.13169 10.5898 2.63921 8.84485 3.52759 7.322C8.57202 13.5403 16.1545 17.6011 24.657 18.0453C24.4984 17.2839 24.4032 16.4909 24.4032 15.6977C24.4032 10.0504 28.9717 5.45023 34.6506 5.45023C37.6011 5.45023 40.2661 6.68753 42.1379 8.68626C44.4539 8.24212 46.6747 7.38548 48.6417 6.21165C47.8802 8.59114 46.2623 10.5899 44.1367 11.8588C46.1989 11.6368 48.1976 11.0657 50.0376 10.2726C48.6419 12.303 46.8969 14.1113 44.8982 15.5707Z" fill="white"/>
</g>
<defs>
<clipPath id="clip0_2_2">
<rect width="50" height="50" fill="white" transform="translate(0.0378418 0.75473)"/>
</clipPath>
</defs>
</svg>
